SplineFontDB: 3.0
FontName: Chango-Regular
FullName: Chango Regular
FamilyName: Chango
Weight: Regular
Copyright: Copyright (c) 2011 Fontstage (info@fontstage.com), with Reserved Font Name "Chango"
Version: 001.001
ItalicAngle: 0
UnderlinePosition: -50
UnderlineWidth: 50
Ascent: 800
Descent: 200
sfntRevision: 0x00010042
LayerCount: 2
Layer: 0 1 "Back"  1
Layer: 1 1 "Fore"  0
NeedsXUIDChange: 1
XUID: [1021 288 713564382 10617206]
FSType: 0
OS2Version: 2
OS2_WeightWidthSlopeOnly: 0
OS2_UseTypoMetrics: 1
CreationTime: 1323101784
ModificationTime: 1323136967
PfmFamily: 17
TTFWeight: 400
TTFWidth: 5
LineGap: 0
VLineGap: 0
Panose: 2 0 0 0 0 0 0 0 0 0
OS2TypoAscent: 195
OS2TypoAOffset: 1
OS2TypoDescent: -16
OS2TypoDOffset: 1
OS2TypoLinegap: 0
OS2WinAscent: 0
OS2WinAOffset: 1
OS2WinDescent: 0
OS2WinDOffset: 1
HheadAscent: 0
HheadAOffset: 1
HheadDescent: 0
HheadDOffset: 1
OS2SubXSize: 700
OS2SubYSize: 650
OS2SubXOff: 0
OS2SubYOff: 140
OS2SupXSize: 700
OS2SupYSize: 650
OS2SupXOff: 0
OS2SupYOff: 477
OS2StrikeYSize: 50
OS2StrikeYPos: 250
OS2Vendor: 'PYRS'
OS2CodePages: 20000001.00000000
OS2UnicodeRanges: 800000ef.4000204b.00000000.00000000
MarkAttachClasses: 1
DEI: 91125
TtTable: prep
PUSHW_1
 511
SCANCTRL
PUSHB_1
 4
SCANTYPE
EndTTInstrs
LangName: 1033 "" "" "" "Fontstage: Chango: 2011" "Chango-Regular" "Version 1.001" "" "Chango is a trademark of Fontstage." "Fontstage" "Manuel Lupez" "" "www.fontstage.com" "www.fontstage.com" "This Font Software is licensed under the SIL Open Font License, Version 1.1. This license is available with a FAQ at: http://scripts.sil.org/OFL" "http://scripts.sil.org/OFL" 
GaspTable: 1 65535 15
Encoding: UnicodeBmp
UnicodeInterp: none
NameList: Adobe Glyph List
DisplaySize: -36
AntiAlias: 1
FitToEm: 1
WinInfo: 34 34 12
BeginPrivate: 6
BlueValues 23 [-20 0 510 525 701 723]
OtherBlues 11 [-203 -173]
StdHW 5 [153]
StdVW 5 [199]
StemSnapH 13 [153 174 224]
StemSnapV 17 [100 199 220 249]
EndPrivate

StartChar: .notdef
Encoding: 65536 -1 0
Width: 679
Flags: HMW
HStem: -1 21G<277.5 324> 4 83 254 25<253 272 253 299.5> 254 226<133 299.5> 641 79<276 384>
VStem: 22 67 22 148<352.5 394 352.5 403> 349 238<327.5 373.5> 520 67<305 555>
LayerCount: 2
Fore
SplineSet
108 720 m 2,0,-1
 480 720 l 2,1,2
 538 720 538 720 557 699.5 c 128,-1,3
 576 679 576 679 580 632 c 0,4,5
 587 549 587 549 587 352 c 128,-1,6
 587 155 587 155 577 68 c 0,7,8
 575 44 575 44 550 24.5 c 128,-1,9
 525 5 525 5 484 4 c 0,10,11
 374 -1 374 -1 302.5 -1 c 128,-1,12
 231 -1 231 -1 105 4 c 0,13,14
 72 5 72 5 53 24 c 128,-1,15
 34 43 34 43 31 67 c 0,16,17
 22 155 22 155 22 350 c 128,-1,18
 22 545 22 545 27 611 c 128,-1,19
 32 677 32 677 47 698.5 c 128,-1,20
 62 720 62 720 108 720 c 2,0,-1
108 501 m 128,-1,22
 127 480 127 480 142 480 c 128,-1,23
 157 480 157 480 180.5 500 c 128,-1,24
 204 520 204 520 231.5 520 c 0,25,26
 289 520 289 520 289 477 c 0,27,28
 289 458 289 458 270.5 444 c 128,-1,29
 252 430 252 430 229.5 423 c 128,-1,30
 207 416 207 416 188.5 399 c 128,-1,31
 170 382 170 382 170 357 c 0,32,33
 170 349 170 349 174 317 c 128,-1,34
 178 285 178 285 209 282 c 0,35,36
 236 279 236 279 265.5 279 c 128,-1,37
 295 279 295 279 311.5 281.5 c 128,-1,38
 328 284 328 284 334 287.5 c 128,-1,39
 340 291 340 291 343 294 c 128,-1,40
 346 297 346 297 347.5 304.5 c 128,-1,41
 349 312 349 312 349 315 c 2,42,-1
 349 340 l 2,43,44
 349 378.615384615 349 378.615384615 434.5 411.5 c 0,45,46
 467 424 467 424 493.5 448.5 c 128,-1,47
 520 473 520 473 520 506 c 0,48,49
 520 575 520 575 468 608 c 128,-1,50
 416 641 416 641 334 641 c 0,51,52
 175 641 175 641 105 571 c 0,53,54
 89 555 89 555 89 538.5 c 128,-1,21
 89 522 89 522 108 501 c 128,-1,22
332.5 229.5 m 128,-1,56
 311 254 311 254 266.5 254 c 128,-1,57
 222 254 222 254 195.5 228.5 c 128,-1,58
 169 203 169 203 169 167 c 128,-1,59
 169 131 169 131 196.5 109 c 128,-1,60
 224 87 224 87 263 87 c 128,-1,61
 302 87 302 87 328 113 c 128,-1,62
 354 139 354 139 354 172 c 128,-1,55
 354 205 354 205 332.5 229.5 c 128,-1,56
EndSplineSet
EndChar

StartChar: A
Encoding: 65 65 1
Width: 1084
Flags: HMW
HStem: 0 21G<49.5 78 78 168 638.5 667 667 989> 134 130<302 444 353 444 444 457.5 353 503> 690 20G<509 589 589 610.5>
LayerCount: 2
Fore
SplineSet
702 653 m 2,0,-1
 1029 100 l 2,1,2
 1049 67 1049 67 1049 44.5 c 128,-1,3
 1049 22 1049 22 1031 11 c 128,-1,4
 1013 0 1013 0 989 0 c 2,5,-1
 667 0 l 2,6,7
 618 0 618 0 604.5 18 c 0,8,9
 600 24 600 24 593 39 c 2,10,-1
 564 101 l 2,11,12
 551 130 551 130 503 134 c 1,13,-1
 314 134 l 2,14,15
 293 134 293 134 282 130 c 128,-1,16
 271 126 271 126 264 112 c 2,17,-1
 225 31 l 1,18,19
 215 13 215 13 203 6.5 c 128,-1,20
 191 0 191 0 168 0 c 2,21,-1
 78 0 l 2,22,23
 39 0 39 0 35.5 27.5 c 0,24,25
 34.9302325581 31.976744186 34.9302325581 31.976744186 34.9302325581 36.387236344 c 0,26,27
 34.9302325581 59.0697674419 34.9302325581 59.0697674419 50 80 c 1,28,-1
 363 632 l 2,29,30
 408 710 408 710 509 710 c 2,31,-1
 589 710 l 2,32,33
 669 710 669 710 702 653 c 2,0,-1
378 397 m 2,34,-1
 332 306 l 2,35,36
 328.230769231 297.384615385 328.230769231 297.384615385 328.230769231 290.192307692 c 0,37,38
 328.230769231 264 328.230769231 264 353 264 c 2,39,-1
 444 264 l 2,40,41
 465 264 465 264 473.22972973 274.581081081 c 128,-1,42
 481.459459459 285.162162162 481.459459459 285.162162162 481.459459459 293.189189189 c 128,-1,43
 481.459459459 301.216216216 481.459459459 301.216216216 478 309 c 2,44,-1
 440 395 l 2,45,46
 428 421 428 421 409 421 c 128,-1,47
 390 421 390 421 378 397 c 2,34,-1
EndSplineSet
EndChar

StartChar: B
Encoding: 66 66 2
Width: 974
Flags: HMW
HStem: -2 21G<468 512.5> 1 137 587 113 683 20G<406 507>
LayerCount: 2
Fore
SplineSet
464 290 m 2,0,-1
 463 160 l 2,1,2
 463 151 463 151 469 144.5 c 128,-1,3
 475 138 475 138 485 138 c 0,4,5
 546 138 546 138 585.5 162 c 128,-1,6
 625 186 625 186 625 237.5 c 0,7,8
 625 289 625 289 584 309 c 0,9,10
 551.2 325 551.2 325 512 325 c 0,11,12
 502.2 325 502.2 325 492 324 c 0,13,14
 464 322 464 322 464 290 c 2,0,-1
463 565 m 2,15,-1
 464 483 l 2,16,17
 464 464 464 464 487 464 c 0,18,19
 588 464 588 464 588 521 c 0,20,21
 588 587.216216216 588 587.216216216 497.623813002 587.216216216 c 0,22,23
 492.459459459 587.216216216 492.459459459 587.216216216 487 587 c 0,24,25
 463 587 463 587 463 565 c 2,15,-1
136 699 m 0,26,27
 260 703 260 703 446 703 c 0,28,29
 632 703 632 703 703.5 699.5 c 0,30,31
 775 696 775 696 830 644 c 128,-1,32
 885 592 885 592 885 524 c 0,33,34
 885 441 885 441 813 402 c 0,35,36
 806 398 806 398 806 392.5 c 128,-1,37
 806 387 806 387 813 385 c 0,38,39
 865 371 865 371 900.5 325 c 128,-1,40
 936 279 936 279 936 216 c 0,41,42
 936 137 936 137 875 73 c 128,-1,43
 814 9 814 9 688 3.5 c 0,44,45
 562 -2 562 -2 506 -2 c 0,46,47
 450 -2 450 -2 132 1 c 0,48,49
 103 1 103 1 85 19.5 c 128,-1,50
 67 38 67 38 64 62 c 0,51,52
 56 150 56 150 56 318.5 c 0,53,54
 56 487 56 487 63 606 c 0,55,56
 66 655 66 655 80 676.5 c 128,-1,57
 94 698 94 698 136 699 c 0,26,27
EndSplineSet
EndChar

StartChar: C
Encoding: 67 67 3
Width: 822
Flags: HMW
HStem: -20 215 539 184<343.5 610>
LayerCount: 2
Fore
SplineSet
413 -20 m 0,0,1
 233 -20 233 -20 128.5 71.5 c 128,-1,2
 24 163 24 163 24 330 c 0,3,4
 24 432 24 432 57.5 509 c 128,-1,5
 91 586 91 586 152 632 c 0,6,7
 272.673913043 723 272.673913043 723 471 723 c 0,8,9
 599 723 599 723 727 688 c 1,10,11
 776 672 776 672 776 609 c 0,12,13
 776 522.632653061 776 522.632653061 722.240733028 522.632653061 c 0,14,15
 713.386394558 522.632653061 713.386394558 522.632653061 663.193197279 530.816326531 c 128,-1,16
 613 539 613 539 593 539 c 0,17,18
 522 539 522 539 483.5 489.5 c 128,-1,19
 445 440 445 440 445 371.5 c 128,-1,20
 445 303 445 303 481 251 c 128,-1,21
 517 199 517 199 579 197 c 0,22,23
 621 195 621 195 728 195 c 0,24,25
 780 195 780 195 785 146 c 0,26,27
 787.5 128 787.5 128 787.5 109.5 c 128,-1,28
 787.5 91 787.5 91 785 72 c 0,29,30
 779 36 779 36 729 19.5 c 128,-1,31
 679 3 679 3 585 -8.5 c 128,-1,32
 491 -20 491 -20 413 -20 c 0,0,1
EndSplineSet
EndChar

StartChar: D
Encoding: 68 68 4
Width: 899
Flags: HMW
HStem: -4 224<295.5 542.5> 517 183 683 20G<302.5 361>
VStem: 630 233<332 406>
LayerCount: 2
Fore
SplineSet
520 2 m 1,0,1
 453 -4 453 -4 328 -4 c 128,-1,2
 203 -4 203 -4 157.5 -0.5 c 128,-1,3
 112 3 112 3 89 16 c 128,-1,4
 66 29 66 29 64 57 c 0,5,6
 57.95 164.8 57.95 164.8 57.95 303.5 c 128,-1,7
 57.95 442.2 57.95 442.2 62 597 c 0,8,9
 64 693 64 693 151 699 c 0,10,11
 212 703 212 703 338 703 c 128,-1,12
 464 703 464 703 535.5 699.5 c 128,-1,13
 607 696 607 696 673.5 666.5 c 128,-1,14
 740 637 740 637 780.5 589.5 c 0,15,16
 863 492.740740741 863 492.740740741 863 365 c 0,17,18
 863 229.642857143 863 229.642857143 776 124 c 0,19,20
 734 73 734 73 667.5 40 c 128,-1,21
 601 7 601 7 520 2 c 1,0,1
475 484 m 2,22,-1
 475 242 l 2,23,24
 475 234 475 234 481 227 c 128,-1,25
 487 220 487 220 497 220 c 0,26,27
 561 220 561 220 595.5 264 c 128,-1,28
 630 308 630 308 630 368 c 128,-1,29
 630 428 630 428 598.5 472.5 c 128,-1,30
 567 517 567 517 514 517 c 0,31,32
 501 517 501 517 494 515.5 c 0,33,34
 475 511.428571429 475 511.428571429 475 484 c 2,22,-1
EndSplineSet
EndChar

StartChar: E
Encoding: 69 69 5
Width: 844
Flags: HMW
HStem: 0 148<513 751> 291 123<499 516 516 679> 566 134<503.5 755.5 635.5 738>
LayerCount: 2
Fore
SplineSet
86.5 18.5 m 128,-1,1
 67 37 67 37 61.5 79.5 c 128,-1,2
 56 122 56 122 56 334.5 c 128,-1,3
 56 547 56 547 63 612 c 0,4,5
 71 696 71 696 134 698 c 0,6,7
 206 700 206 700 731 700 c 0,8,9
 790 700 790 700 790 625 c 0,10,11
 790 566 790 566 738 566 c 2,12,-1
 518 566 l 2,13,14
 497 566 497 566 484.5 552 c 128,-1,15
 472 538 472 538 472 516 c 2,16,-1
 472 444 l 2,17,18
 472 414 472 414 499 414 c 2,19,-1
 681 414 l 2,20,21
 697 414 697 414 705.5 411 c 128,-1,22
 714 408 714 408 721 393.5 c 128,-1,23
 728 379 728 379 728 346 c 128,-1,24
 728 313 728 313 716.5 302 c 128,-1,25
 705 291 705 291 679 291 c 2,26,-1
 516 291 l 2,27,28
 491 291 491 291 481.5 278.5 c 128,-1,29
 472 266 472 266 472 240 c 2,30,-1
 472 191 l 2,31,32
 472 148 472 148 513 148 c 2,33,-1
 762 148 l 2,34,35
 780 148 780 148 794 137.5 c 128,-1,36
 808 127 808 127 808 91.5 c 128,-1,37
 808 56 808 56 791 28 c 128,-1,38
 774 0 774 0 751 0 c 2,39,-1
 134 0 l 2,40,0
 106 0 106 0 86.5 18.5 c 128,-1,1
EndSplineSet
EndChar

StartChar: F
Encoding: 70 70 6
Width: 813
Flags: HMW
HStem: 0 21G<110.5 129 129 413> 291 123<495 511 511 660> 567 134<500.5 751 630 733>
LayerCount: 2
Fore
SplineSet
57 70 m 1,0,-1
 56 613 l 1,1,2
 64 696 64 696 127 700 c 1,3,4
 172 701 172 701 726 701 c 0,5,6
 786 701 786 701 786 612 c 0,7,8
 786 567 786 567 733 567 c 2,9,-1
 515 567 l 2,10,11
 494 567 494 567 481.5 553 c 128,-1,12
 469 539 469 539 469 516 c 2,13,-1
 469 445 l 2,14,15
 469 414 469 414 495 414 c 2,16,-1
 661 414 l 2,17,18
 685 414 685 414 697 403 c 128,-1,19
 709 392 709 392 709 352.5 c 0,20,21
 709 313 709 313 697.5 302 c 128,-1,22
 686 291 686 291 660 291 c 2,23,-1
 511 291 l 2,24,25
 486 291 486 291 476.5 279 c 128,-1,26
 467 267 467 267 467 241 c 2,27,-1
 467 69 l 2,28,29
 467 34 467 34 452 17 c 128,-1,30
 437 0 437 0 413 0 c 2,31,-1
 129 0 l 2,32,33
 101 0 101 0 81 18.5 c 128,-1,34
 61 37 61 37 57 70 c 1,0,-1
EndSplineSet
EndChar

StartChar: G
Encoding: 71 71 7
Width: 881
Flags: HMW
HStem: -10 195<232 565> 538 176<569.5 574 498.5 655>
LayerCount: 2
Fore
SplineSet
631 538 m 0,0,1
 541 538 541 538 504.5 491.5 c 128,-1,2
 468 445 468 445 468 344 c 0,3,4
 468 185 468 185 561 185 c 0,5,6
 579.862144 185.004672 579.862144 185.004672 586 186 c 1,7,8
 574 186 574 186 566.5 228 c 128,-1,9
 559 270 559 270 559 316 c 128,-1,10
 559 362 559 362 584 375.5 c 128,-1,11
 609 389 609 389 653.5 389 c 128,-1,12
 698 389 698 389 715.5 388.5 c 128,-1,13
 733 388 733 388 755.5 384.5 c 128,-1,14
 778 381 778 381 789.5 374.5 c 0,15,16
 818 358.391304348 818 358.391304348 818 326 c 2,17,-1
 818 180 l 2,18,19
 818 102 818 102 790 55.5 c 128,-1,20
 762 9 762 9 685 1 c 0,21,22
 577 -10 577 -10 355 -10 c 0,23,24
 266 -10 266 -10 202.5 18 c 128,-1,25
 139 46 139 46 104.5 96 c 0,26,27
 40 189.47826087 40 189.47826087 40 332.739130435 c 128,-1,28
 40 476 40 476 132 588 c 128,-1,29
 224 700 224 700 377 708 c 0,30,31
 482 714 482 714 529 714 c 0,32,33
 700 714 700 714 772 693 c 0,34,35
 821 679 821 679 821 614 c 0,36,37
 821 527 821 527 770 527 c 1,38,39
 754 528 754 528 706 533 c 128,-1,40
 658 538 658 538 631 538 c 0,0,1
EndSplineSet
EndChar

StartChar: H
Encoding: 72 72 8
Width: 1092
Flags: HMW
HStem: -3 21G<249.5 297 803.5 848> 188 181<498.5 515 515 590> 681 20G<138 382 382 405 723 954 954 984>
LayerCount: 2
Fore
SplineSet
1024 63 m 0,0,1
 1022 40 1022 40 1004.5 22 c 128,-1,2
 987 4 987 4 957 2 c 0,3,4
 875 -3 875 -3 822 -3 c 0,5,6
 769 -3 769 -3 697 2 c 1,7,8
 642 7 642 7 639 50 c 0,9,10
 638 67 638 67 637 94.5 c 128,-1,11
 636 122 636 122 634.5 143 c 0,12,13
 633 164 633 164 623.5 176 c 128,-1,14
 614 188 614 188 590 188 c 2,15,-1
 515 188 l 2,16,17
 491 188 491 188 481.5 176 c 128,-1,18
 472 164 472 164 470.5 143 c 0,19,20
 469 122 469 122 468 94.5 c 128,-1,21
 467 67 467 67 466 50 c 0,22,23
 463 7 463 7 408 2 c 1,24,25
 336 -3 336 -3 276.5 -3 c 0,26,27
 217 -3 217 -3 135 2 c 0,28,29
 105 4 105 4 87.5 22 c 128,-1,30
 70 40 70 40 68 63 c 0,31,32
 60 151 60 151 60 346 c 0,33,34
 60 541 60 541 64 599.5 c 0,35,36
 68 658 68 658 82 679.5 c 128,-1,37
 96 701 96 701 138 701 c 2,38,-1
 382 701 l 2,39,40
 417 701 417 701 441.5 677 c 128,-1,41
 466 653 466 653 466 615 c 2,42,-1
 466 405 l 2,43,44
 466 369 466 369 497 369 c 2,45,-1
 608 369 l 2,46,47
 639 369 639 369 639 405 c 2,48,-1
 639 615 l 2,49,50
 639 653 639 653 663.5 677 c 128,-1,51
 688 701 688 701 723 701 c 2,52,-1
 954 701 l 2,53,54
 996 701 996 701 1010 679.5 c 128,-1,55
 1024 658 1024 658 1028 599.5 c 0,56,57
 1032 541 1032 541 1032 346 c 0,58,59
 1032 151 1032 151 1024 63 c 0,0,1
EndSplineSet
EndChar

StartChar: I
Encoding: 73 73 9
Width: 544
Flags: HMW
HStem: -3 21G<257.5 302.5> 680 20G<138 406 406 436>
LayerCount: 2
Fore
SplineSet
138 700 m 2,0,-1
 406 700 l 2,1,2
 448 700 448 700 461.5 679 c 128,-1,3
 475 658 475 658 479.5 592.5 c 0,4,5
 484 527 484 527 484 338.5 c 0,6,7
 484 150 484 150 476 62 c 0,8,9
 473 39 473 39 455.5 21 c 128,-1,10
 438 3 438 3 409 1 c 0,11,12
 352 -3 352 -3 277 -3 c 0,13,14
 202 -3 202 -3 135 1 c 0,15,16
 106 3 106 3 88.5 21 c 128,-1,17
 71 39 71 39 68 62 c 0,18,19
 60 150 60 150 60 338.5 c 0,20,21
 60 527 60 527 64.5 592.5 c 0,22,23
 69 658 69 658 82.5 679 c 128,-1,24
 96 700 96 700 138 700 c 2,0,-1
EndSplineSet
EndChar

StartChar: J
Encoding: 74 74 10
Width: 659
Flags: HMW
HStem: -20 21G<71.5 240> 680 20G<255 523 523 553>
LayerCount: 2
Fore
SplineSet
185 273 m 2,0,-1
 182 581.25 l 2,1,2
 182 626.5 182 626.5 183 639 c 0,3,4
 184 671 184 671 198.5 685.5 c 128,-1,5
 213 700 213 700 255 700 c 2,6,-1
 523 700 l 2,7,8
 565 700 565 700 579.5 685.5 c 128,-1,9
 594 671 594 671 595 639 c 0,10,11
 597.083333333 576.5 597.083333333 576.5 597.083333333 487.75 c 128,-1,12
 597.083333333 399 597.083333333 399 593 273 c 1,13,14
 590.177691161 78.2606901295 590.177691161 78.2606901295 392.5 16 c 0,15,16
 278.2 -20 278.2 -20 100 -20 c 0,17,18
 60 -20 60 -20 47 4 c 128,-1,19
 34 28 34 28 34 87.5 c 128,-1,20
 34 147 34 147 80 152 c 0,21,22
 136 159 136 159 160.5 199.5 c 128,-1,23
 185 240 185 240 185 273 c 2,0,-1
EndSplineSet
EndChar

StartChar: K
Encoding: 75 75 11
Width: 1046
Flags: HMW
HStem: 0 21G<259 306.5 690.5 702 702 971> 680 20G<134 402 402 424 768 921 921 931.5>
LayerCount: 2
Fore
SplineSet
656 17 m 2,0,-1
 539 157 l 2,1,2
 521 179 521 179 502 179 c 0,3,4
 479 179 479 179 479 141 c 2,5,-1
 479 46 l 2,6,7
 479 28 479 28 463 17 c 128,-1,8
 447 6 447 6 425 4 c 0,9,10
 362 0 362 0 282.5 0 c 128,-1,11
 203 0 203 0 132 4 c 0,12,13
 102 6 102 6 84 24.5 c 128,-1,14
 66 43 66 43 64 66 c 0,15,16
 56 154 56 154 56 339.5 c 128,-1,17
 56 525 56 525 60.5 591 c 128,-1,18
 65 657 65 657 78.5 678.5 c 128,-1,19
 92 700 92 700 134 700 c 2,20,-1
 402 700 l 2,21,22
 435 700 435 700 457 674 c 128,-1,23
 479 648 479 648 479 610 c 2,24,-1
 480 498 l 2,25,26
 480 477 480 477 491 477 c 0,27,28
 498 477 498 477 519 494 c 1,29,-1
 715 677 l 2,30,31
 739 700 739 700 772.625 700.375 c 128,-1,32
 806.25 700.75 806.25 700.75 844.5 700.75 c 2,33,-1
 921 700 l 2,34,35
 937 700 937 700 943 685 c 128,-1,36
 949 670 949 670 937 658 c 0,37,38
 822 543 822 543 707 445 c 0,39,40
 697 436 697 436 697 426.5 c 128,-1,41
 697 417 697 417 708.5 405.5 c 2,42,-1
 761.5 352.5 l 2,43,44
 803 311 803 311 829.5 285 c 128,-1,45
 856 259 856 259 892 222 c 0,46,47
 964 148 964 148 1002 102 c 0,48,49
 1022.1025641 77.5897435897 1022.1025641 77.5897435897 1022.1025641 53.1794871795 c 0,50,51
 1022.1025641 43.5897435897 1022.1025641 43.5897435897 1019 34 c 0,52,53
 1008 0 1008 0 971 0 c 2,54,-1
 702 0 l 2,55,56
 671 0 671 0 656 17 c 2,0,-1
EndSplineSet
EndChar

StartChar: L
Encoding: 76 76 12
Width: 858
Flags: HMW
HStem: -4 176<413 799> 680 20G<134 402 402 432>
LayerCount: 2
Fore
SplineSet
477 459 m 2,0,-1
 476 259 l 2,1,2
 476 215 476 215 489.5 193.5 c 128,-1,3
 503 172 503 172 546 172 c 2,4,-1
 799 172 l 1,5,6
 845 171 845 171 845 102 c 0,7,8
 845 49 845 49 832 25 c 128,-1,9
 819 1 819 1 779 0 c 0,10,11
 638 -4 638 -4 500 -4 c 128,-1,12
 362 -4 362 -4 148 -2 c 0,13,14
 112 -2 112 -2 89.5 15.5 c 128,-1,15
 67 33 67 33 64 64 c 0,16,17
 56 151 56 151 56 338.5 c 128,-1,18
 56 526 56 526 60.5 591.5 c 128,-1,19
 65 657 65 657 79 678.5 c 128,-1,20
 93 700 93 700 134 700 c 2,21,-1
 402 700 l 2,22,23
 444 700 444 700 457.5 678 c 128,-1,24
 471 656 471 656 474 607 c 128,-1,25
 477 558 477 558 477 459 c 2,0,-1
EndSplineSet
EndChar

StartChar: M
Encoding: 77 77 13
Width: 1118
Flags: HMW
HStem: -17 21G<472.5 488.5>
VStem: 48 226
LayerCount: 2
Fore
SplineSet
495 529.5 m 128,-1,1
 543 457 543 457 562 433 c 128,-1,2
 581 409 581 409 592.5 409 c 128,-1,3
 604 409 604 409 613 422 c 128,-1,4
 622 435 622 435 679 522 c 128,-1,5
 736 609 736 609 773 654.5 c 128,-1,6
 810 700 810 700 831.928571429 701.142857143 c 128,-1,7
 853.857142857 702.285714286 853.857142857 702.285714286 888.785714286 702.285714286 c 128,-1,8
 923.714285714 702.285714286 923.714285714 702.285714286 970.857142857 700.142857143 c 128,-1,9
 1018 698 1018 698 1033.5 675.5 c 128,-1,10
 1049 653 1049 653 1052 612 c 0,11,12
 1058 507 1058 507 1058 333.5 c 128,-1,13
 1058 160 1058 160 1049 60 c 0,14,15
 1047 36 1047 36 1031 17 c 128,-1,16
 1015 -2 1015 -2 987 -2 c 0,17,18
 926 -3 926 -3 851.5 -3 c 128,-1,19
 777 -3 777 -3 733 0 c 0,20,21
 717 1 717 1 704.5 12.5 c 128,-1,22
 692 24 692 24 691 43 c 2,23,-1
 685 208 l 2,24,25
 684 232 684 232 674.5 235 c 128,-1,26
 665 238 665 238 657 222 c 0,27,28
 604 128 604 128 525 12 c 0,29,30
 506 -17 506 -17 475 -17 c 128,-1,31
 444 -17 444 -17 424 12 c 0,32,33
 389 62 389 62 305 224 c 0,34,35
 300 234 300 234 293.5 236 c 128,-1,36
 287 238 287 238 282 231 c 128,-1,37
 277 224 277 224 277 208 c 2,38,-1
 272 43 l 2,39,40
 271 24 271 24 255 12.5 c 128,-1,41
 239 1 239 1 218 0 c 1,42,-1
 119 0 l 1,43,44
 92 1 92 1 75.5 19 c 128,-1,45
 59 37 59 37 56 60 c 0,46,47
 48 149 48 149 48 336.5 c 128,-1,48
 48 524 48 524 53 612 c 0,49,50
 56 654 56 654 72 677 c 128,-1,51
 88 700 88 700 129 700 c 0,52,53
 339 700 339 700 356 697 c 128,-1,54
 373 694 373 694 410 648 c 128,-1,0
 447 602 447 602 495 529.5 c 128,-1,1
EndSplineSet
EndChar

StartChar: N
Encoding: 78 78 14
Width: 965
Flags: HMW
HStem: -20 20G<665 681 681 848> 680 20G<120 230 230 242 738 845 845 866.5>
VStem: 60 225 699 214<305.5 654>
LayerCount: 2
Fore
SplineSet
738 700 m 2,0,-1
 845 700 l 2,1,2
 879 700 879 700 892.5 689 c 128,-1,3
 906 678 906 678 907 644 c 0,4,5
 913 492 913 492 913 317 c 128,-1,6
 913 142 913 142 906 61 c 0,7,8
 904 38 904 38 888.5 19 c 128,-1,9
 873 0 873 0 848 0 c 2,10,-1
 681 0 l 2,11,12
 646 0 646 0 604 25 c 0,13,14
 372 162 372 162 312 192 c 0,15,16
 300 197 300 197 292.5 188.5 c 128,-1,17
 285 180 285 180 285 157 c 2,18,-1
 285 46 l 2,19,20
 285 27 285 27 271 16 c 0,21,22
 249.872727273 -0.6 249.872727273 -0.6 162.8 -0.6 c 0,23,24
 139.2 -0.6 139.2 -0.6 116.1 0.7 c 128,-1,25
 93 2 93 2 78.5 21 c 128,-1,26
 64 40 64 40 63 62 c 0,27,28
 60 182 60 182 60 363.5 c 128,-1,29
 60 545 60 545 61 600 c 128,-1,30
 62 655 62 655 74 677.5 c 128,-1,31
 86 700 86 700 120 700 c 2,32,-1
 230 700 l 2,33,34
 264 700 264 700 300 681 c 0,35,36
 610 520 610 520 662 494 c 0,37,38
 679 486 679 486 689 492 c 128,-1,39
 699 498 699 498 699 514 c 2,40,-1
 699 654 l 2,41,42
 699 674 699 674 709.5 687 c 128,-1,43
 720 700 720 700 738 700 c 2,0,-1
EndSplineSet
EndChar

StartChar: O
Encoding: 79 79 15
Width: 1043
Flags: HMW
HStem: -20 21G<375.5 543> 487 236<556 655>
LayerCount: 2
Fore
SplineSet
543 -20 m 1,0,1
 422 -20 422 -20 324 11.5 c 128,-1,2
 226 43 226 43 165 96 c 128,-1,3
 104 149 104 149 72 214.5 c 128,-1,4
 40 280 40 280 40 351 c 128,-1,5
 40 422 40 422 72.5 487.5 c 128,-1,6
 105 553 105 553 165.5 606 c 128,-1,7
 226 659 226 659 324 691 c 128,-1,8
 422 723 422 723 539 723 c 128,-1,9
 656 723 656 723 746 694 c 128,-1,10
 836 665 836 665 891 615 c 0,11,12
 1003 513.181818182 1003 513.181818182 1003 373 c 0,13,14
 1003 302 1003 302 972.5 234 c 128,-1,15
 942 166 942 166 885.5 110.5 c 128,-1,16
 829 55 829 55 740 19.5 c 128,-1,17
 651 -16 651 -16 543 -20 c 1,0,1
707 451.5 m 128,-1,19
 673 487 673 487 603.5 487 c 128,-1,20
 534 487 534 487 493 450 c 128,-1,21
 452 413 452 413 452 360 c 128,-1,22
 452 307 452 307 495 275 c 128,-1,23
 538 243 538 243 598.5 243 c 128,-1,24
 659 243 659 243 700 282 c 128,-1,25
 741 321 741 321 741 368.5 c 128,-1,18
 741 416 741 416 707 451.5 c 128,-1,19
EndSplineSet
EndChar

StartChar: P
Encoding: 80 80 16
Width: 894
Flags: HMW
HStem: -4 21G<266 313.5> 160 127<500 508 508 539 485.5 586> 518 181
VStem: 628 229<374 431.5>
LayerCount: 2
Fore
SplineSet
473 129 m 2,0,-1
 473 45 l 2,1,2
 473 2 473 2 414.5 -1 c 0,3,4
 356 -4 356 -4 287.5 -4 c 0,5,6
 219 -4 219 -4 131 1 c 0,7,8
 102 3 102 3 84.5 21 c 128,-1,9
 67 39 67 39 64 62 c 0,10,11
 56 150 56 150 56 338.5 c 0,12,13
 56 527 56 527 62 613 c 0,14,15
 68 699 68 699 149 700 c 0,16,17
 242.333333333 701.777777778 242.333333333 701.777777778 348.222222222 701.777777778 c 0,18,19
 454.111111111 701.777777778 454.111111111 701.777777778 577.555555556 698.888888889 c 0,20,21
 701 696 701 696 779 606 c 128,-1,22
 857 516 857 516 857 408 c 0,23,24
 857 300 857 300 788 230 c 128,-1,25
 719 160 719 160 586 160 c 2,26,-1
 508 160 l 2,27,28
 495 160 495 160 484 151 c 128,-1,29
 473 142 473 142 473 129 c 2,0,-1
472 491 m 2,30,-1
 474 306 l 2,31,32
 474 287 474 287 495 287 c 0,33,34
 557 287 557 287 592.5 321.5 c 128,-1,35
 628 356 628 356 628 403 c 128,-1,36
 628 450 628 450 594.5 484 c 128,-1,37
 561 518 561 518 496 518 c 0,38,39
 472 518 472 518 472 491 c 2,30,-1
EndSplineSet
EndChar

StartChar: Q
Encoding: 81 81 17
Width: 1078
Flags: HMW
HStem: 487 236<552 651>
LayerCount: 2
Fore
SplineSet
756 23 m 1,0,1
 657 -20 657 -20 537.5 -20 c 128,-1,2
 418 -20 418 -20 320 11.5 c 128,-1,3
 222 43 222 43 161 96 c 128,-1,4
 100 149 100 149 68 214.5 c 128,-1,5
 36 280 36 280 36 351 c 128,-1,6
 36 422 36 422 68.5 487.5 c 128,-1,7
 101 553 101 553 161.5 606 c 128,-1,8
 222 659 222 659 320 691 c 128,-1,9
 418 723 418 723 535 723 c 128,-1,10
 652 723 652 723 742 694 c 128,-1,11
 832 665 832 665 887 615 c 0,12,13
 999 513.181818182 999 513.181818182 999 373 c 0,14,15
 999 256 999 256 923 154 c 1,16,-1
 1018 145 l 2,17,18
 1041 142 1041 142 1041 115 c 128,-1,19
 1041 88 1041 88 1029.5 51 c 128,-1,20
 1018 14 1018 14 1007.32857143 -3.91428571429 c 128,-1,21
 996.657142857 -21.8285714286 996.657142857 -21.8285714286 969.436734694 -21.8285714286 c 0,22,23
 935.314285714 -21.8285714286 935.314285714 -21.8285714286 756 23 c 1,0,1
703 451.5 m 128,-1,25
 669 487 669 487 599.5 487 c 128,-1,26
 530 487 530 487 489 450 c 128,-1,27
 448 413 448 413 448 360 c 128,-1,28
 448 307 448 307 491 275 c 128,-1,29
 534 243 534 243 594.5 243 c 128,-1,30
 655 243 655 243 696 282 c 128,-1,31
 737 321 737 321 737 368.5 c 128,-1,24
 737 416 737 416 703 451.5 c 128,-1,25
EndSplineSet
EndChar

StartChar: R
Encoding: 82 82 18
Width: 915
Flags: HMW
HStem: -4 21G<273.5 321.5> 518 181 681 20G<316.5 382>
VStem: 628 227<374 431.5>
LayerCount: 2
Fore
SplineSet
472 491 m 2,0,-1
 474 306 l 2,1,2
 474 287 474 287 495 287 c 0,3,4
 557 287 557 287 592.5 321.5 c 128,-1,5
 628 356 628 356 628 403 c 128,-1,6
 628 450 628 450 594.5 484 c 128,-1,7
 561 518 561 518 496 518 c 0,8,9
 472 518 472 518 472 491 c 2,0,-1
734 192 m 1,10,11
 753 172 753 172 869 41 c 0,12,13
 876.333333333 32.3333333333 876.333333333 32.3333333333 876.333333333 25.3333333333 c 0,14,15
 876.333333333 -1 876.333333333 -1 853 -1 c 0,16,17
 799.5 -2 799.5 -2 746.25 -2 c 128,-1,18
 693 -2 693 -2 640 -1 c 0,19,20
 611 -1 611 -1 587 22 c 1,21,-1
 501 152 l 2,22,23
 496 158 496 158 489 160.5 c 0,24,25
 473 166.214285714 473 166.214285714 473 147 c 2,26,-1
 473 45 l 2,27,28
 473 2 473 2 416.5 -1 c 128,-1,29
 360 -4 360 -4 293 -4 c 128,-1,30
 226 -4 226 -4 131 1 c 0,31,32
 102 3 102 3 84.5 21 c 128,-1,33
 67 39 67 39 64 62 c 0,34,35
 56 150 56 150 56 338.5 c 128,-1,36
 56 527 56 527 62 613 c 128,-1,37
 68 699 68 699 149 700 c 0,38,39
 225 701 225 701 356 701 c 128,-1,40
 487 701 487 701 573 699 c 0,41,42
 697 697 697 697 776 607 c 128,-1,43
 855 517 855 517 855 404 c 0,44,45
 855 338 855 338 824.5 282 c 128,-1,46
 794 226 794 226 734 192 c 1,10,11
EndSplineSet
EndChar

StartChar: S
Encoding: 83 83 19
Width: 809
Flags: HMW
HStem: -20 201<226 465.5> -20 246<68 465.5> 510 213<304 681.5> 541 182<304 578.5>
VStem: 307 181
LayerCount: 2
Fore
SplineSet
209.5 -1 m 128,-1,1
 135 18 135 18 104.5 37 c 128,-1,2
 74 56 74 56 64 64 c 0,3,4
 38 84.8 38 84.8 38 122 c 0,5,6
 38 151.2 38 151.2 45 177.1 c 0,7,8
 58.2162162162 226 58.2162162162 226 92 226 c 1,9,10
 103 225 103 225 162.5 203 c 128,-1,11
 222 181 222 181 256 181 c 0,12,13
 307 181 307 181 307 221 c 0,14,15
 307 245 307 245 282 265.5 c 128,-1,16
 257 286 257 286 221.5 305 c 128,-1,17
 186 324 186 324 150 348.5 c 128,-1,18
 114 373 114 373 89 416.5 c 128,-1,19
 64 460 64 460 64 518 c 0,20,21
 64 614 64 614 158 668.5 c 128,-1,22
 252 723 252 723 401 723 c 128,-1,23
 550 723 550 723 637.5 692.5 c 128,-1,24
 725 662 725 662 725 608 c 0,25,26
 725 569 725 569 707 539.5 c 128,-1,27
 689 510 689 510 669 510 c 0,28,29
 662 510 662 510 622.5 525.5 c 128,-1,30
 583 541 583 541 551 541 c 0,31,32
 488 541 488 541 488 492 c 0,33,34
 488 468 488 468 518 448 c 128,-1,35
 548 428 548 428 590.5 409.5 c 128,-1,36
 633 391 633 391 676 368 c 128,-1,37
 719 345 719 345 749 305 c 128,-1,38
 779 265 779 265 779 208 c 128,-1,39
 779 151 779 151 742.5 104 c 128,-1,40
 706 57 706 57 645.5 31 c 0,41,42
 526.826923077 -20 526.826923077 -20 370 -20 c 0,43,0
 284 -20 284 -20 209.5 -1 c 128,-1,1
EndSplineSet
EndChar

StartChar: T
Encoding: 84 84 20
Width: 838
Flags: HMW
HStem: -4 21G<406.5 451.5> 519 183<362.5 663 362.5 753>
LayerCount: 2
Fore
SplineSet
629 61 m 0,0,1
 628 39 628 39 610 20.5 c 128,-1,2
 592 2 592 2 562 0 c 0,3,4
 505 -4 505 -4 425 -4 c 128,-1,5
 345 -4 345 -4 278 0 c 0,6,7
 248 2 248 2 230 20.5 c 128,-1,8
 212 39 212 39 211 61 c 0,9,10
 208 213 208 213 208 320.5 c 128,-1,11
 208 428 208 428 209 478 c 0,12,13
 209 516 209 516 175 516 c 2,14,-1
 85 516 l 2,15,16
 64 516 64 516 51 526 c 128,-1,17
 38 536 38 536 36.5 561 c 128,-1,18
 35 586 35 586 35 613 c 128,-1,19
 35 640 35 640 36.5 659.5 c 128,-1,20
 38 679 38 679 52.5 689.5 c 128,-1,21
 67 700 67 700 84 700 c 0,22,23
 214 702 214 702 436 702 c 128,-1,24
 658 702 658 702 754 700 c 0,25,26
 771 699 771 699 785.5 689 c 128,-1,27
 800 679 800 679 801.5 659.75 c 128,-1,28
 803 640.5 803 640.5 803 614.25 c 128,-1,29
 803 588 803 588 801.5 563.5 c 0,30,31
 798.775510204 519 798.775510204 519 753 519 c 2,32,-1
 663 519 l 2,33,34
 629 519 629 519 629 484 c 0,35,36
 632 358 632 358 632 256 c 128,-1,37
 632 154 632 154 629 61 c 0,0,1
EndSplineSet
EndChar

StartChar: U
Encoding: 85 85 21
Width: 885
Flags: HMW
HStem: -20 243<511.5 554.5 511.5 556> 680 20G<111 378 378 406.5 686 778 778 801>
VStem: 619 224
LayerCount: 2
Fore
SplineSet
447.5 594.75 m 2,0,-1
 446 504 l 1,1,-1
 446 311 l 2,2,3
 446 269 446 269 472 246 c 128,-1,4
 498 223 498 223 533 223 c 128,-1,5
 568 223 568 223 593.5 246 c 128,-1,6
 619 269 619 269 619 311 c 2,7,-1
 619 609 l 2,8,9
 619 656 619 656 631.5 678 c 128,-1,10
 644 700 644 700 686 700 c 2,11,-1
 778 700 l 2,12,13
 810 700 810 700 822.5 681 c 0,14,15
 845 646.8 845 646.8 845 418 c 0,16,17
 845 343 845 343 843 303 c 0,18,19
 840 222 840 222 805.5 158.5 c 128,-1,20
 771 95 771 95 717 57 c 0,21,22
 607.578947368 -20 607.578947368 -20 470 -20 c 0,23,24
 287.604651163 -20 287.604651163 -20 169 65 c 0,25,26
 109 108 109 108 74.5 179.5 c 128,-1,27
 40 251 40 251 39 346 c 0,28,29
 38 393 38 393 38 484.5 c 128,-1,30
 38 576 38 576 40.5 616.5 c 128,-1,31
 43 657 43 657 56.5 678.5 c 128,-1,32
 70 700 70 700 111 700 c 2,33,-1
 378 700 l 2,34,35
 418 700 418 700 431 679 c 0,36,37
 447.5 652.346153846 447.5 652.346153846 447.5 594.75 c 2,0,-1
EndSplineSet
EndChar

StartChar: V
Encoding: 86 86 22
Width: 963
Flags: HMW
HStem: -20 21G<447.5 514> 681 20G<770 782>
LayerCount: 2
Fore
SplineSet
640 52 m 0,0,1
 622 18 622 18 577.5 -1 c 128,-1,2
 533 -20 533 -20 481 -20 c 128,-1,3
 429 -20 429 -20 386 -2 c 128,-1,4
 343 16 343 16 324 50 c 0,5,6
 174 327 174 327 45 594 c 0,7,8
 30.1076923077 625.815384615 30.1076923077 625.815384615 30.1076923077 642.884615385 c 0,9,10
 30.1076923077 697 30.1076923077 697 79 697 c 2,11,-1
 368 699 l 2,12,13
 405 699 405 699 424.5 686 c 128,-1,14
 444 673 444 673 459 634 c 2,15,-1
 556 386 l 2,16,17
 562 370 562 370 578 370 c 128,-1,18
 594 370 594 370 602 386 c 2,19,-1
 733 670 l 2,20,21
 745.819277108 697.469879518 745.819277108 697.469879518 761 700 c 0,22,23
 767 701 767 701 782 701 c 2,24,-1
 897 699 l 2,25,26
 916 699 916 699 923.5 681 c 0,27,28
 926.540540541 673.702702703 926.540540541 673.702702703 926.540540541 663.891891892 c 128,-1,29
 926.540540541 654.081081081 926.540540541 654.081081081 904.27027027 609.040540541 c 128,-1,30
 882 564 882 564 787.5 359 c 128,-1,31
 693 154 693 154 640 52 c 0,0,1
EndSplineSet
EndChar

StartChar: W
Encoding: 87 87 23
Width: 1423
Flags: HMW
HStem: -21 21G<959 1031.5> -20 21G<396 482> 682 20G<372 396>
LayerCount: 2
Fore
SplineSet
783 647 m 2,0,-1
 922 645 l 2,1,2
 953 645 953 645 970 633 c 128,-1,3
 987 621 987 621 995 593 c 2,4,-1
 1056 391 l 2,5,6
 1058 383 1058 383 1063 380 c 128,-1,7
 1068 377 1068 377 1073 380 c 128,-1,8
 1078 383 1078 383 1080 390 c 2,9,-1
 1164 662 l 2,10,11
 1170 682 1170 682 1182.5 690 c 128,-1,12
 1195 698 1195 698 1222 698 c 2,13,-1
 1335 698 l 2,14,15
 1354 698 1354 698 1362 680 c 0,16,17
 1365.76470588 671.529411765 1365.76470588 671.529411765 1365.76470588 661.588235294 c 128,-1,18
 1365.76470588 651.647058824 1365.76470588 651.647058824 1347.38235294 605.323529412 c 128,-1,19
 1329 559 1329 559 1265 362 c 128,-1,20
 1201 165 1201 165 1154 63 c 1,21,22
 1114 -21 1114 -21 999 -21 c 0,23,24
 937 -21 937 -21 882 7.5 c 128,-1,25
 827 36 827 36 808.5 78.5 c 128,-1,26
 790 121 790 121 759.5 203 c 128,-1,27
 729 285 729 285 717 317 c 1,28,29
 665 153 665 153 624 64 c 0,30,31
 605 24 605 24 554.5 2 c 128,-1,32
 504 -20 504 -20 443 -20 c 0,33,34
 297 -20 297 -20 249 88 c 0,35,36
 96 436 96 436 41 599 c 0,37,38
 32.8181818182 624.636363636 32.8181818182 624.636363636 32.8181818182 642.545454545 c 0,39,40
 32.8181818182 699 32.8181818182 699 86 699 c 2,41,-1
 372 702 l 2,42,43
 409 702 409 702 427 689 c 128,-1,44
 445 676 445 676 456 639 c 2,45,-1
 526 393 l 2,46,47
 528 384 528 384 533 381 c 0,48,49
 543.510204082 374.693877551 543.510204082 374.693877551 550 392 c 2,50,-1
 617 596 l 2,51,52
 632 644 632 644 679 645 c 0,53,54
 741 647 741 647 783 647 c 2,0,-1
EndSplineSet
EndChar

StartChar: X
Encoding: 88 88 24
Width: 1028
Flags: HMW
HStem: 0 21G<44.5 55 55 223> 679 20G<82.5 106> 680 20G<484 504.5 814 973 973 984>
LayerCount: 2
Fore
SplineSet
55 0 m 2,0,1
 35.4375 0 35.4375 0 35.4375 14.595703125 c 0,2,3
 35.4375 23.8125 35.4375 23.8125 46 36 c 2,4,-1
 312 317 l 1,5,-1
 69 600 l 1,6,7
 48.1086956522 626.282608696 48.1086956522 626.282608696 48.1086956522 642.75 c 128,-1,8
 48.1086956522 659.217391304 48.1086956522 659.217391304 53 669 c 0,9,10
 68 699 68 699 106 699 c 2,11,-1
 484 700 l 2,12,13
 513 700 513 700 527.5 691 c 128,-1,14
 542 682 542 682 562 654 c 2,15,-1
 615 578 l 2,16,17
 630.34965035 555.487179487 630.34965035 555.487179487 639.992767916 555.487179487 c 128,-1,18
 649.461538462 555.487179487 649.461538462 555.487179487 667 574 c 2,19,-1
 768 676 l 2,20,21
 783 692 783 692 791 696 c 128,-1,22
 799 700 799 700 814 700 c 2,23,-1
 973 700 l 2,24,25
 992.266666667 700 992.266666667 700 992.266666667 686.602222222 c 0,26,27
 992.266666667 676.866666667 992.266666667 676.866666667 981 663 c 2,28,-1
 746 403 l 1,29,30
 899.4 198.466666667 899.4 198.466666667 969 96 c 1,31,32
 991.163934426 65.3114754098 991.163934426 65.3114754098 991.163934426 40.4364418167 c 0,33,34
 991.163934426 4.14344262295 991.163934426 4.14344262295 950 3 c 0,35,36
 858 0.714285714286 858 0.714285714286 772.928571429 0.714285714286 c 128,-1,37
 687.857142857 0.714285714286 687.857142857 0.714285714286 628.928571429 1.35714285714 c 128,-1,38
 570 2 570 2 559 18 c 1,39,-1
 444 161 l 2,40,41
 432 176 432 176 423.5 176 c 128,-1,42
 415 176 415 176 400 161 c 2,43,-1
 268 23 l 2,44,45
 253 7 253 7 245.5 3.5 c 128,-1,46
 238 0 238 0 223 0 c 2,47,-1
 55 0 l 2,0,1
EndSplineSet
EndChar

StartChar: Y
Encoding: 89 89 25
Width: 955
Flags: HMW
HStem: -4 21G<444.5 489.5> 680 20G<421 441.5 757 887 887 898>
LayerCount: 2
Fore
SplineSet
887 700 m 2,0,1
 906.571428571 700 906.571428571 700 906.571428571 680 c 0,2,3
 906.571428571 666.535714286 906.571428571 666.535714286 896 652 c 1,4,-1
 672 297 l 1,5,6
 672 216 672 216 667 61 c 0,7,8
 666 39 666 39 648 20.5 c 128,-1,9
 630 2 630 2 600 0 c 0,10,11
 543 -4 543 -4 463 -4 c 128,-1,12
 383 -4 383 -4 316 0 c 0,13,14
 286 2 286 2 268 20.5 c 128,-1,15
 250 39 250 39 249 61 c 0,16,17
 247 162 247 162 247 271 c 1,18,-1
 45 610 l 1,19,20
 30.1076923077 633.015384615 30.1076923077 633.015384615 30.1076923077 647.646153846 c 0,21,22
 30.1076923077 698 30.1076923077 698 79 698 c 2,23,-1
 421 700 l 2,24,25
 450 700 450 700 464.5 691 c 128,-1,26
 479 682 479 682 499 654 c 1,27,-1
 560 523 l 1,28,29
 576 501 576 501 586.5 501 c 128,-1,30
 597 501 597 501 612 519 c 1,31,-1
 714 679 l 1,32,33
 731 700 731 700 757 700 c 2,34,-1
 887 700 l 2,0,1
EndSplineSet
EndChar

StartChar: Z
Encoding: 90 90 26
Width: 844
Flags: HMW
HStem: -4 161<393.5 767> 547 156
LayerCount: 2
Fore
SplineSet
75 577 m 2,0,-1
 75 651 l 2,1,2
 75 677 75 677 87.5 687.5 c 128,-1,3
 100 698 100 698 154.5 699.5 c 128,-1,4
 209 701 209 701 319 702 c 128,-1,5
 429 703 429 703 562 703 c 2,6,7
 742 703 l 2,8,9
 766 703 766 703 786.5 690 c 128,-1,10
 807 677 807 677 807 657 c 2,11,-1
 807 575 l 2,12,13
 807 559 807 559 802.5 550 c 2,14,15
 796.5 538 l 2,16,17
 795 535 795 535 789 526 c 2,18,-1
 781 514 l 1,19,20
 688 367 688 367 566 197 c 0,21,22
 554 180 554 180 557.5 168.5 c 128,-1,23
 561 157 561 157 576 157 c 2,24,-1
 767 157 l 2,25,26
 788 157 788 157 799.5 142.5 c 128,-1,27
 811 128 811 128 811 111 c 2,28,-1
 811 53 l 2,29,30
 811 1 811 1 767 -1 c 0,31,32
 636 -4 636 -4 443 -4 c 128,-1,33
 250 -4 250 -4 135 0 c 0,34,35
 84 2 84 2 60.5 13.5 c 128,-1,36
 37 25 37 25 37 58 c 2,37,-1
 37 135 l 2,38,39
 37 168 37 168 57 201 c 0,40,41
 161 366 161 366 274 516 c 0,42,43
 283 529 283 529 277 538 c 128,-1,44
 271 547 271 547 254 547 c 2,45,-1
 122 547 l 2,46,47
 102 547 102 547 88.5 555.5 c 128,-1,48
 75 564 75 564 75 577 c 2,0,-1
EndSplineSet
EndChar

StartChar: Eth
Encoding: 208 208 27
Width: 909
Flags: HMW
HStem: -4 224<305.5 552.5> 306 123<25 68 40 67 485 542> 517 183 683 20G<312.5 371>
VStem: 640 233<332 406>
LayerCount: 2
Fore
SplineSet
530 2 m 1,0,1
 463 -4 463 -4 338 -4 c 128,-1,2
 213 -4 213 -4 167.5 -0.5 c 128,-1,3
 122 3 122 3 99 16 c 128,-1,4
 76 29 76 29 74 57 c 0,5,6
 67 179 67 179 67 306 c 1,7,-1
 38 306 l 2,8,9
 22 306 22 306 13.5 309 c 128,-1,10
 5 312 5 312 -2 326.5 c 128,-1,11
 -9 341 -9 341 -9 374 c 128,-1,12
 -9 407 -9 407 2.5 418 c 128,-1,13
 14 429 14 429 40 429 c 2,14,-1
 68 429 l 1,15,16
 70 541 70 541 72 597 c 0,17,18
 74 693 74 693 161 699 c 0,19,20
 222 703 222 703 348 703 c 128,-1,21
 474 703 474 703 545.5 699.5 c 128,-1,22
 617 696 617 696 683.5 666.5 c 128,-1,23
 750 637 750 637 790.5 589.5 c 0,24,25
 873 492.740740741 873 492.740740741 873 365 c 0,26,27
 873 229.642857143 873 229.642857143 786 124 c 0,28,29
 744 73 744 73 677.5 40 c 128,-1,30
 611 7 611 7 530 2 c 1,0,1
485 484 m 2,31,-1
 485 429 l 1,32,-1
 544 429 l 2,33,34
 560 429 560 429 568.5 426 c 128,-1,35
 577 423 577 423 584 408.5 c 128,-1,36
 591 394 591 394 591 361 c 128,-1,37
 591 328 591 328 579.5 317 c 128,-1,38
 568 306 568 306 542 306 c 2,39,-1
 485 306 l 1,40,-1
 485 242 l 2,41,42
 485 234 485 234 491 227 c 128,-1,43
 497 220 497 220 507 220 c 0,44,45
 571 220 571 220 605.5 264 c 128,-1,46
 640 308 640 308 640 368 c 128,-1,47
 640 428 640 428 608.5 472.5 c 128,-1,48
 577 517 577 517 524 517 c 0,49,50
 511 517 511 517 504 515.5 c 0,51,52
 485 511.428571429 485 511.428571429 485 484 c 2,31,-1
EndSplineSet
EndChar

StartChar: Thorn
Encoding: 222 222 28
Width: 927
Flags: HMW
HStem: -3 21G<257.5 302.5> 106 125<497.5 551.5 497.5 598 479 551.5> 481 117 481 219<138 555>
VStem: 641 228<325.5 387.5>
LayerCount: 2
Fore
SplineSet
138 700 m 2,0,-1
 406 700 l 2,1,2
 448 700 448 700 461.5 679 c 128,-1,3
 475 658 475 658 478 609 c 0,4,5
 478 604 478 604 479 600 c 1,6,7
 508 600 508 600 588 598 c 0,8,9
 715 596 715 596 792 521.5 c 128,-1,10
 869 447 869 447 869 346.5 c 0,11,12
 869 246 869 246 800 176 c 128,-1,13
 731 106 731 106 598 106 c 2,14,-1
 479 106 l 1,15,-1
 476 62 l 2,16,17
 474 40 474 40 456.5 21.5 c 128,-1,18
 439 3 439 3 409 1 c 0,19,20
 352 -3 352 -3 277 -3 c 0,21,22
 202 -3 202 -3 135 1 c 0,23,24
 106 3 106 3 88.5 21 c 128,-1,25
 71 39 71 39 68 62 c 0,26,27
 60 150 60 150 60 338.5 c 0,28,29
 60 527 60 527 64.5 592.5 c 0,30,31
 69 658 69 658 82.5 679 c 128,-1,32
 96 700 96 700 138 700 c 2,0,-1
484 452 m 2,33,-1
 486 252 l 2,34,35
 486 231 486 231 507 231 c 0,36,37
 570 231 570 231 605.5 268.5 c 128,-1,38
 641 306 641 306 641 357 c 128,-1,39
 641 408 641 408 607.5 444.5 c 128,-1,40
 574 481 574 481 509 481 c 0,41,42
 484 481 484 481 484 452 c 2,33,-1
EndSplineSet
EndChar

StartChar: AE
Encoding: 198 198 29
Width: 1234
Flags: HMW
HStem: 0 148<903 1141> 134 130<314 441 372 441 441 445> 291 123<889 906 906 1069> 566 134<1069 1128> 681 20G<776.5 875>
LayerCount: 2
Fore
SplineSet
828 701 m 1,0,-1
 1121 700 l 2,1,2
 1180 700 1180 700 1180 625 c 0,3,4
 1180 566 1180 566 1128 566 c 2,5,-1
 908 566 l 2,6,7
 887 566 887 566 874.5 552 c 128,-1,8
 862 538 862 538 862 516 c 2,9,-1
 862 444 l 2,10,11
 862 414 862 414 889 414 c 2,12,-1
 1071 414 l 2,13,14
 1087 414 1087 414 1095.5 411 c 128,-1,15
 1104 408 1104 408 1111 393.5 c 128,-1,16
 1118 379 1118 379 1118 346 c 128,-1,17
 1118 313 1118 313 1106.5 302 c 128,-1,18
 1095 291 1095 291 1069 291 c 2,19,-1
 906 291 l 2,20,21
 881 291 881 291 871.5 278.5 c 128,-1,22
 862 266 862 266 862 240 c 2,23,-1
 862 191 l 2,24,25
 862 148 862 148 903 148 c 2,26,-1
 1152 148 l 2,27,28
 1170 148 1170 148 1184 137.5 c 128,-1,29
 1198 127 1198 127 1198 91.5 c 128,-1,30
 1198 56 1198 56 1181 28 c 128,-1,31
 1164 0 1164 0 1141 0 c 2,32,-1
 553 0 l 2,33,34
 525 0 525 0 505.5 18.5 c 128,-1,35
 486 37 486 37 482.5 68.5 c 128,-1,36
 479 100 479 100 478.5 105.5 c 128,-1,37
 478 111 478 111 476.5 116.5 c 128,-1,38
 475 122 475 122 467 128 c 128,-1,39
 459 134 459 134 445 134 c 2,40,-1
 326 134 l 2,41,42
 292 134 292 134 278 112 c 2,43,-1
 229 31 l 2,44,45
 218 13 218 13 208 6.5 c 128,-1,46
 198 0 198 0 176 0 c 2,47,-1
 86 0 l 2,48,49
 47 0 47 0 38 29 c 0,50,51
 35 38.6666666667 35 38.6666666667 35 52 c 128,-1,52
 35 65.3333333333 35 65.3333333333 47 80 c 1,53,-1
 407 619 l 2,54,55
 460 697 460 697 542 697 c 1,56,-1
 828 701 l 1,0,-1
344.933333333 285.466666667 m 0,57,58
 344.933333333 264 344.933333333 264 372 264 c 2,59,-1
 441 264 l 2,60,61
 475 264 475 264 475 302 c 2,62,-1
 474 393 l 2,63,64
 474 408 474 408 466.5 416 c 128,-1,65
 459 424 459 424 445.5 424 c 128,-1,66
 432 424 432 424 418 404 c 2,67,-1
 353 306 l 1,68,69
 344.933333333 295.733333333 344.933333333 295.733333333 344.933333333 285.466666667 c 0,57,58
EndSplineSet
EndChar

StartChar: OE
Encoding: 338 338 30
Width: 1428
Flags: HMW
HStem: -20 21G<375.5 543> 0 148<1097 1335> 291 123<1083 1100 1100 1263> 487 236<553 578.5 376 619> 566 134<1087.5 1339.5 1221.5 1322>
LayerCount: 2
Fore
SplineSet
543 -20 m 1,0,1
 422 -20 422 -20 324 11.5 c 128,-1,2
 226 43 226 43 165 96 c 128,-1,3
 104 149 104 149 72 214.5 c 128,-1,4
 40 280 40 280 40 351 c 128,-1,5
 40 422 40 422 72.5 487.5 c 128,-1,6
 105 553 105 553 165.5 606 c 128,-1,7
 226 659 226 659 324 691 c 128,-1,8
 422 723 422 723 534.5 723 c 0,9,10
 647 723 647 723 731 698 c 1,11,12
 802 700 802 700 1315 700 c 0,13,14
 1374 700 1374 700 1374 625 c 0,15,16
 1374 566 1374 566 1322 566 c 2,17,-1
 1102 566 l 2,18,19
 1081 566 1081 566 1068.5 552 c 128,-1,20
 1056 538 1056 538 1056 516 c 2,21,-1
 1056 444 l 2,22,23
 1056 414 1056 414 1083 414 c 2,24,-1
 1265 414 l 2,25,26
 1281 414 1281 414 1289.5 411 c 128,-1,27
 1298 408 1298 408 1305 393.5 c 128,-1,28
 1312 379 1312 379 1312 346 c 0,29,30
 1312 313 1312 313 1300.5 302 c 128,-1,31
 1289 291 1289 291 1263 291 c 2,32,-1
 1100 291 l 2,33,34
 1075 291 1075 291 1065.5 278.5 c 128,-1,35
 1056 266 1056 266 1056 240 c 2,36,-1
 1056 191 l 2,37,38
 1056 148 1056 148 1097 148 c 2,39,-1
 1346 148 l 2,40,41
 1364 148 1364 148 1378 137.5 c 128,-1,42
 1392 127 1392 127 1392 91.5 c 0,43,44
 1392 56 1392 56 1375 28 c 128,-1,45
 1358 0 1358 0 1335 0 c 2,46,-1
 718 0 l 2,47,48
 706 0 706 0 694 3 c 1,49,50
 625 -17 625 -17 543 -20 c 1,0,1
640 278 m 2,51,-1
 641 453 l 2,52,53
 641 472 641 472 633.5 479.5 c 128,-1,54
 626 487 626 487 603 487 c 0,55,56
 532 487 532 487 492 449.5 c 128,-1,57
 452 412 452 412 452 359.5 c 0,58,59
 452 307 452 307 495.5 275 c 128,-1,60
 539 243 539 243 598 243 c 0,61,62
 640 243 640 243 640 278 c 2,51,-1
EndSplineSet
EndChar

StartChar: Agrave
Encoding: 192 192 31
Width: 1084
Flags: HMW
HStem: 0 21G<49.5 78 78 168 638.5 667 667 989> 134 130<302 444 353 444 444 457.5 353 503> 710 48<509 589 589 610.5>
LayerCount: 2
Fore
SplineSet
702 653 m 2,0,-1
 1029 100 l 2,1,2
 1049 67 1049 67 1049 44.5 c 128,-1,3
 1049 22 1049 22 1031 11 c 128,-1,4
 1013 0 1013 0 989 0 c 2,5,-1
 667 0 l 2,6,7
 618 0 618 0 604.5 18 c 0,8,9
 600 24 600 24 593 39 c 2,10,-1
 564 101 l 2,11,12
 551 130 551 130 503 134 c 1,13,-1
 314 134 l 2,14,15
 293 134 293 134 282 130 c 128,-1,16
 271 126 271 126 264 112 c 2,17,-1
 225 31 l 1,18,19
 215 13 215 13 203 6.5 c 128,-1,20
 191 0 191 0 168 0 c 2,21,-1
 78 0 l 2,22,23
 39 0 39 0 35.5 27.5 c 0,24,25
 34.9302325581 31.976744186 34.9302325581 31.976744186 34.9302325581 36.387236344 c 0,26,27
 34.9302325581 59.0697674419 34.9302325581 59.0697674419 50 80 c 1,28,-1
 363 632 l 2,29,30
 408 710 408 710 509 710 c 2,31,-1
 589 710 l 2,32,33
 669 710 669 710 702 653 c 2,0,-1
378 397 m 2,34,-1
 332 306 l 2,35,36
 328.230769231 297.384615385 328.230769231 297.384615385 328.230769231 290.192307692 c 0,37,38
 328.230769231 264 328.230769231 264 353 264 c 2,39,-1
 444 264 l 2,40,41
 465 264 465 264 473.22972973 274.581081081 c 128,-1,42
 481.459459459 285.162162162 481.459459459 285.162162162 481.459459459 293.189189189 c 128,-1,43
 481.459459459 301.216216216 481.459459459 301.216216216 478 309 c 2,44,-1
 440 395 l 2,45,46
 428 421 428 421 409 421 c 128,-1,47
 390 421 390 421 378 397 c 2,34,-1
689 758 m 2,48,-1
 418 758 l 2,49,50
 370.976190476 758 370.976190476 758 370.976190476 786.705782313 c 0,51,52
 370.976190476 801.976190476 370.976190476 801.976190476 411 883 c 0,53,54
 422.666666667 904.777777778 422.666666667 904.777777778 444.012345679 904.777777778 c 0,55,56
 467.6 904.777777778 467.6 904.777777778 534.8 879.888888889 c 128,-1,57
 602 855 602 855 643.5 839 c 128,-1,58
 685 823 685 823 699.5 817.5 c 128,-1,59
 714 812 714 812 714 785 c 128,-1,60
 714 758 714 758 689 758 c 2,48,-1
EndSplineSet
EndChar

StartChar: Acircumflex
Encoding: 194 194 32
Width: 1084
Flags: HMW
HStem: 0 21G<49.5 78 78 168 638.5 667 667 989> 134 130<302 444 353 444 444 457.5 353 503> 690 20G<509 589 589 610.5> 922 20G<509 575 575 583.5>
LayerCount: 2
Fore
SplineSet
702 653 m 2,0,-1
 1029 100 l 2,1,2
 1049 67 1049 67 1049 44.5 c 128,-1,3
 1049 22 1049 22 1031 11 c 128,-1,4
 1013 0 1013 0 989 0 c 2,5,-1
 667 0 l 2,6,7
 618 0 618 0 604.5 18 c 0,8,9
 600 24 600 24 593 39 c 2,10,-1
 564 101 l 2,11,12
 551 130 551 130 503 134 c 1,13,-1
 314 134 l 2,14,15
 293 134 293 134 282 130 c 128,-1,16
 271 126 271 126 264 112 c 2,17,-1
 225 31 l 1,18,19
 215 13 215 13 203 6.5 c 128,-1,20
 191 0 191 0 168 0 c 2,21,-1
 78 0 l 2,22,23
 39 0 39 0 35.5 27.5 c 0,24,25
 34.9302325581 31.976744186 34.9302325581 31.976744186 34.9302325581 36.387236344 c 0,26,27
 34.9302325581 59.0697674419 34.9302325581 59.0697674419 50 80 c 1,28,-1
 363 632 l 2,29,30
 408 710 408 710 509 710 c 2,31,-1
 589 710 l 2,32,33
 669 710 669 710 702 653 c 2,0,-1
378 397 m 2,34,-1
 332 306 l 2,35,36
 328.230769231 297.384615385 328.230769231 297.384615385 328.230769231 290.192307692 c 0,37,38
 328.230769231 264 328.230769231 264 353 264 c 2,39,-1
 444 264 l 2,40,41
 465 264 465 264 473.22972973 274.581081081 c 128,-1,42
 481.459459459 285.162162162 481.459459459 285.162162162 481.459459459 293.189189189 c 128,-1,43
 481.459459459 301.216216216 481.459459459 301.216216216 478 309 c 2,44,-1
 440 395 l 2,45,46
 428 421 428 421 409 421 c 128,-1,47
 390 421 390 421 378 397 c 2,34,-1
509 942 m 2,48,-1
 575 942 l 2,49,50
 595 942 595 942 630 912 c 2,51,-1
 747 810 l 1,52,53
 752.142857143 802.285714286 752.142857143 802.285714286 752.142857143 793.5 c 0,54,55
 752.142857143 764.312169312 752.142857143 764.312169312 740.369300912 750.794382528 c 128,-1,56
 728.595744681 737.276595745 728.595744681 737.276595745 720.361702128 737.276595745 c 128,-1,57
 712.127659574 737.276595745 712.127659574 737.276595745 706 740 c 2,58,-1
 542 814 l 1,59,-1
 378 740 l 2,60,61
 371.872340426 737.276595745 371.872340426 737.276595745 363.638297872 737.276595745 c 128,-1,62
 355.404255319 737.276595745 355.404255319 737.276595745 344.20212766 750.138297872 c 128,-1,63
 333 763 333 763 332.428571429 773.857142857 c 128,-1,64
 331.857142857 784.714285714 331.857142857 784.714285714 331.857142857 793.5 c 128,-1,65
 331.857142857 802.285714286 331.857142857 802.285714286 337 810 c 1,66,-1
 454 912 l 2,67,68
 489 942 489 942 509 942 c 2,48,-1
EndSplineSet
EndChar

StartChar: Aacute
Encoding: 193 193 33
Width: 1084
Flags: HMW
HStem: 0 21G<49.5 78 78 168 638.5 667 667 989> 134 130<302 444 353 444 444 457.5 353 503> 710 48<509 589 589 610.5>
LayerCount: 2
Fore
SplineSet
702 653 m 2,0,-1
 1029 100 l 2,1,2
 1049 67 1049 67 1049 44.5 c 128,-1,3
 1049 22 1049 22 1031 11 c 128,-1,4
 1013 0 1013 0 989 0 c 2,5,-1
 667 0 l 2,6,7
 618 0 618 0 604.5 18 c 0,8,9
 600 24 600 24 593 39 c 2,10,-1
 564 101 l 2,11,12
 551 130 551 130 503 134 c 1,13,-1
 314 134 l 2,14,15
 293 134 293 134 282 130 c 128,-1,16
 271 126 271 126 264 112 c 2,17,-1
 225 31 l 1,18,19
 215 13 215 13 203 6.5 c 128,-1,20
 191 0 191 0 168 0 c 2,21,-1
 78 0 l 2,22,23
 39 0 39 0 35.5 27.5 c 0,24,25
 34.9302325581 31.976744186 34.9302325581 31.976744186 34.9302325581 36.387236344 c 0,26,27
 34.9302325581 59.0697674419 34.9302325581 59.0697674419 50 80 c 1,28,-1
 363 632 l 2,29,30
 408 710 408 710 509 710 c 2,31,-1
 589 710 l 2,32,33
 669 710 669 710 702 653 c 2,0,-1
378 397 m 2,34,-1
 332 306 l 2,35,36
 328.230769231 297.384615385 328.230769231 297.384615385 328.230769231 290.192307692 c 0,37,38
 328.230769231 264 328.230769231 264 353 264 c 2,39,-1
 444 264 l 2,40,41
 465 264 465 264 473.22972973 274.581081081 c 128,-1,42
 481.459459459 285.162162162 481.459459459 285.162162162 481.459459459 293.189189189 c 128,-1,43
 481.459459459 301.216216216 481.459459459 301.216216216 478 309 c 2,44,-1
 440 395 l 2,45,46
 428 421 428 421 409 421 c 128,-1,47
 390 421 390 421 378 397 c 2,34,-1
705 758 m 2,48,-1
 434 758 l 2,49,50
 409 758 409 758 409 785 c 128,-1,51
 409 812 409 812 423.5 817.5 c 128,-1,52
 438 823 438 823 479.5 839 c 128,-1,53
 521 855 521 855 548 865 c 0,54,55
 655.4 904.777777778 655.4 904.777777778 677.866666667 904.777777778 c 128,-1,56
 700.333333333 904.777777778 700.333333333 904.777777778 712 883 c 0,57,58
 752.023809524 801.976190476 752.023809524 801.976190476 752.023809524 786.705782313 c 0,59,60
 752.023809524 758 752.023809524 758 705 758 c 2,48,-1
EndSplineSet
EndChar

StartChar: Adieresis
Encoding: 196 196 34
Width: 1084
Flags: HMW
HStem: 0 21G<49.5 78 78 168 638.5 667 667 989> 134 130<302 444 353 444 444 457.5 353 503> 690 20G<509 589 589 610.5> 743 174<383.5 439.5 649.5 705.5>
VStem: 310 199<811.5 850> 576 199<811.5 850>
LayerCount: 2
Fore
SplineSet
702 653 m 2,0,-1
 1029 100 l 2,1,2
 1049 67 1049 67 1049 44.5 c 128,-1,3
 1049 22 1049 22 1031 11 c 128,-1,4
 1013 0 1013 0 989 0 c 2,5,-1
 667 0 l 2,6,7
 618 0 618 0 604.5 18 c 0,8,9
 600 24 600 24 593 39 c 2,10,-1
 564 101 l 2,11,12
 551 130 551 130 503 134 c 1,13,-1
 314 134 l 2,14,15
 293 134 293 134 282 130 c 128,-1,16
 271 126 271 126 264 112 c 2,17,-1
 225 31 l 1,18,19
 215 13 215 13 203 6.5 c 128,-1,20
 191 0 191 0 168 0 c 2,21,-1
 78 0 l 2,22,23
 39 0 39 0 35.5 27.5 c 0,24,25
 34.9302325581 31.976744186 34.9302325581 31.976744186 34.9302325581 36.387236344 c 0,26,27
 34.9302325581 59.0697674419 34.9302325581 59.0697674419 50 80 c 1,28,-1
 363 632 l 2,29,30
 408 710 408 710 509 710 c 2,31,-1
 589 710 l 2,32,33
 669 710 669 710 702 653 c 2,0,-1
378 397 m 2,34,-1
 332 306 l 2,35,36
 325 290 325 290 331 277 c 128,-1,37
 337 264 337 264 353 264 c 2,38,-1
 444 264 l 2,39,40
 465 264 465 264 473.22972973 274.581081081 c 128,-1,41
 481.459459459 285.162162162 481.459459459 285.162162162 481.459459459 293.189189189 c 128,-1,42
 481.459459459 301.216216216 481.459459459 301.216216216 478 309 c 2,43,-1
 440 395 l 2,44,45
 428 421 428 421 409 421 c 128,-1,46
 390 421 390 421 378 397 c 2,34,-1
339 890.5 m 128,-1,48
 368 917 368 917 415.5 917 c 128,-1,49
 463 917 463 917 486 891.5 c 128,-1,50
 509 866 509 866 509 832 c 128,-1,51
 509 798 509 798 481 770.5 c 128,-1,52
 453 743 453 743 411 743 c 128,-1,53
 369 743 369 743 339.5 766 c 128,-1,54
 310 789 310 789 310 826.5 c 128,-1,47
 310 864 310 864 339 890.5 c 128,-1,48
605 890.5 m 128,-1,56
 634 917 634 917 681.5 917 c 128,-1,57
 729 917 729 917 752 891.5 c 128,-1,58
 775 866 775 866 775 832 c 128,-1,59
 775 798 775 798 747 770.5 c 128,-1,60
 719 743 719 743 677 743 c 128,-1,61
 635 743 635 743 605.5 766 c 128,-1,62
 576 789 576 789 576 826.5 c 128,-1,55
 576 864 576 864 605 890.5 c 128,-1,56
EndSplineSet
EndChar

StartChar: Atilde
Encoding: 195 195 35
Width: 1084
Flags: HMW
HStem: 0 21G<49.5 78 78 168 638.5 667 667 989> 134 130<302 444 353 444 444 457.5 353 503> 690 20G<509 589 589 610.5> 745 172<616 662 616 673> 816 172<414 460>
LayerCount: 2
Fore
SplineSet
702 653 m 2,0,-1
 1029 100 l 2,1,2
 1049 67 1049 67 1049 44.5 c 128,-1,3
 1049 22 1049 22 1031 11 c 128,-1,4
 1013 0 1013 0 989 0 c 2,5,-1
 667 0 l 2,6,7
 618 0 618 0 604.5 18 c 0,8,9
 600 24 600 24 593 39 c 2,10,-1
 564 101 l 2,11,12
 551 130 551 130 503 134 c 1,13,-1
 314 134 l 2,14,15
 293 134 293 134 282 130 c 128,-1,16
 271 126 271 126 264 112 c 2,17,-1
 225 31 l 1,18,19
 215 13 215 13 203 6.5 c 128,-1,20
 191 0 191 0 168 0 c 2,21,-1
 78 0 l 2,22,23
 39 0 39 0 35.5 27.5 c 0,24,25
 34.9302325581 31.976744186 34.9302325581 31.976744186 34.9302325581 36.387236344 c 0,26,27
 34.9302325581 59.0697674419 34.9302325581 59.0697674419 50 80 c 1,28,-1
 363 632 l 2,29,30
 408 710 408 710 509 710 c 2,31,-1
 589 710 l 2,32,33
 669 710 669 710 702 653 c 2,0,-1
378 397 m 2,34,-1
 332 306 l 2,35,36
 325 290 325 290 331 277 c 128,-1,37
 337 264 337 264 353 264 c 2,38,-1
 444 264 l 2,39,40
 465 264 465 264 473.22972973 274.581081081 c 128,-1,41
 481.459459459 285.162162162 481.459459459 285.162162162 481.459459459 293.189189189 c 128,-1,42
 481.459459459 301.216216216 481.459459459 301.216216216 478 309 c 2,43,-1
 440 395 l 2,44,45
 428 421 428 421 409 421 c 128,-1,46
 390 421 390 421 378 397 c 2,34,-1
620 745 m 0,47,48
 575 745 575 745 516 780.5 c 128,-1,49
 457 816 457 816 431.5 816 c 128,-1,50
 406 816 406 816 391 803.5 c 128,-1,51
 376 791 376 791 363 760 c 0,52,53
 358 749 358 749 347 749 c 2,54,-1
 294 752 l 1,55,56
 284 755 284 755 281.5 760 c 128,-1,57
 279 765 279 765 279 778 c 0,58,59
 279 877 279 877 327 932.5 c 128,-1,60
 375 988 375 988 456 988 c 0,61,62
 501 988 501 988 560 952.5 c 128,-1,63
 619 917 619 917 644.5 917 c 128,-1,64
 670 917 670 917 685 929.5 c 128,-1,65
 700 942 700 942 713 973 c 0,66,67
 718 984 718 984 729 984 c 2,68,-1
 782 981 l 1,69,70
 792 978 792 978 794.5 973 c 128,-1,71
 797 968 797 968 797 955 c 0,72,73
 797 856 797 856 749 800.5 c 128,-1,74
 701 745 701 745 620 745 c 0,47,48
EndSplineSet
EndChar

StartChar: Aring
Encoding: 197 197 36
Width: 1084
Flags: HMW
HStem: 0 21G<49.5 78 78 168 638.5 667 667 989> 134 130<302 444 353 444 444 457.5 353 503> 690 20G<509 589 589 610.5> 728 91<527.5 552 527.5 586> 893 99<527.5 553>
VStem: 401 102<846.5 860> 578 100<848.5 861 835 867>
LayerCount: 2
Fore
SplineSet
702 653 m 2,0,-1
 1029 100 l 2,1,2
 1049 67 1049 67 1049 44.5 c 128,-1,3
 1049 22 1049 22 1031 11 c 128,-1,4
 1013 0 1013 0 989 0 c 2,5,-1
 667 0 l 2,6,7
 618 0 618 0 604.5 18 c 0,8,9
 600 24 600 24 593 39 c 2,10,-1
 564 101 l 2,11,12
 551 130 551 130 503 134 c 1,13,-1
 314 134 l 2,14,15
 293 134 293 134 282 130 c 128,-1,16
 271 126 271 126 264 112 c 2,17,-1
 225 31 l 1,18,19
 215 13 215 13 203 6.5 c 128,-1,20
 191 0 191 0 168 0 c 2,21,-1
 78 0 l 2,22,23
 39 0 39 0 35.5 27.5 c 0,24,25
 34.9302325581 31.976744186 34.9302325581 31.976744186 34.9302325581 36.387236344 c 0,26,27
 34.9302325581 59.0697674419 34.9302325581 59.0697674419 50 80 c 1,28,-1
 363 632 l 2,29,30
 408 710 408 710 509 710 c 2,31,-1
 589 710 l 2,32,33
 669 710 669 710 702 653 c 2,0,-1
378 397 m 2,34,-1
 332 306 l 2,35,36
 328.230769231 297.384615385 328.230769231 297.384615385 328.230769231 290.192307692 c 0,37,38
 328.230769231 264 328.230769231 264 353 264 c 2,39,-1
 444 264 l 2,40,41
 465 264 465 264 473.22972973 274.581081081 c 128,-1,42
 481.459459459 285.162162162 481.459459459 285.162162162 481.459459459 293.189189189 c 128,-1,43
 481.459459459 301.216216216 481.459459459 301.216216216 478 309 c 2,44,-1
 440 395 l 2,45,46
 428 421 428 421 409 421 c 128,-1,47
 390 421 390 421 378 397 c 2,34,-1
540 893 m 128,-1,49
 522 893 522 893 512.5 882 c 128,-1,50
 503 871 503 871 503 856 c 128,-1,51
 503 841 503 841 512.5 830 c 128,-1,52
 522 819 522 819 539.5 819 c 128,-1,53
 557 819 557 819 567.5 831 c 128,-1,54
 578 843 578 843 578 858 c 128,-1,55
 578 873 578 873 568 883 c 128,-1,48
 558 893 558 893 540 893 c 128,-1,49
640.5 771.5 m 128,-1,57
 603 728 603 728 537.5 728 c 128,-1,58
 472 728 472 728 436.5 770.5 c 128,-1,59
 401 813 401 813 401.5 862.5 c 128,-1,60
 402 912 402 912 438 952 c 128,-1,61
 474 992 474 992 538.5 992 c 128,-1,62
 603 992 603 992 640 954 c 128,-1,63
 677 916 677 916 677.5 865.5 c 128,-1,56
 678 815 678 815 640.5 771.5 c 128,-1,57
EndSplineSet
EndChar

StartChar: Ccedilla
Encoding: 199 199 37
Width: 822
Flags: HMW
HStem: -174 68<338 390 338 402> -19 214 539 184<343.5 610>
VStem: 311 199<-162.5 -80> 328 182<-115 -36.5> 377 133<-96 -80 -115 -73.5>
LayerCount: 2
Fore
SplineSet
326 -105 m 1,0,-1
 340 -106 l 1,1,2
 377 -106 377 -106 377 -88 c 0,3,4
 377 -74 377 -74 352.5 -64.5 c 128,-1,5
 328 -55 328 -55 328 -39 c 0,6,7
 328 -33 328 -33 332 -25 c 0,8,9
 335 -17 335 -17 324 -13 c 1,10,11
 183 8 183 8 103.5 96.5 c 128,-1,12
 24 185 24 185 24 330 c 0,13,14
 24 432 24 432 57.5 509 c 128,-1,15
 91 586 91 586 152 632 c 0,16,17
 272.673913043 723 272.673913043 723 471 723 c 0,18,19
 599 723 599 723 727 688 c 1,20,21
 776 672 776 672 776 609 c 0,22,23
 776 522.632653061 776 522.632653061 722.240733028 522.632653061 c 0,24,25
 713.386394558 522.632653061 713.386394558 522.632653061 663.193197279 530.816326531 c 128,-1,26
 613 539 613 539 593 539 c 0,27,28
 522 539 522 539 483.5 489.5 c 128,-1,29
 445 440 445 440 445 371.5 c 128,-1,30
 445 303 445 303 481 251 c 128,-1,31
 517 199 517 199 579 197 c 0,32,33
 621 195 621 195 728 195 c 0,34,35
 780 195 780 195 785 146 c 0,36,37
 787.5 128 787.5 128 787.5 109.5 c 128,-1,38
 787.5 91 787.5 91 785 72 c 0,39,40
 779 36 779 36 734 21 c 0,41,42
 633 -12 633 -12 460 -19 c 0,43,44
 456.296296296 -19 456.296296296 -19 458.37037037 -22.5555555556 c 1,45,-1
 462 -25 l 1,46,47
 510 -42 510 -42 510 -98 c 0,48,49
 510 -126 510 -126 482 -149 c 128,-1,50
 454 -172 454 -172 402 -174 c 1,51,-1
 390 -174 l 2,52,53
 311 -174 311 -174 311 -154 c 0,54,55
 311 -106 311 -106 326 -105 c 1,0,-1
EndSplineSet
EndChar

StartChar: Egrave
Encoding: 200 200 38
Width: 844
Flags: HMW
HStem: 0 148<513 751> 291 123<499 516 516 679> 566 134<503.5 755.5 635.5 738> 700 58
LayerCount: 2
Fore
SplineSet
86.5 18.5 m 128,-1,1
 67 37 67 37 61.5 79.5 c 128,-1,2
 56 122 56 122 56 334.5 c 128,-1,3
 56 547 56 547 63 612 c 0,4,5
 71 696 71 696 134 698 c 0,6,7
 206 700 206 700 731 700 c 0,8,9
 790 700 790 700 790 625 c 0,10,11
 790 566 790 566 738 566 c 2,12,-1
 518 566 l 2,13,14
 497 566 497 566 484.5 552 c 128,-1,15
 472 538 472 538 472 516 c 2,16,-1
 472 444 l 2,17,18
 472 414 472 414 499 414 c 2,19,-1
 681 414 l 2,20,21
 697 414 697 414 705.5 411 c 128,-1,22
 714 408 714 408 721 393.5 c 128,-1,23
 728 379 728 379 728 346 c 128,-1,24
 728 313 728 313 716.5 302 c 128,-1,25
 705 291 705 291 679 291 c 2,26,-1
 516 291 l 2,27,28
 491 291 491 291 481.5 278.5 c 128,-1,29
 472 266 472 266 472 240 c 2,30,-1
 472 191 l 2,31,32
 472 148 472 148 513 148 c 2,33,-1
 762 148 l 2,34,35
 780 148 780 148 794 137.5 c 128,-1,36
 808 127 808 127 808 91.5 c 128,-1,37
 808 56 808 56 791 28 c 128,-1,38
 774 0 774 0 751 0 c 2,39,-1
 134 0 l 2,40,0
 106 0 106 0 86.5 18.5 c 128,-1,1
569 758 m 2,41,-1
 298 758 l 2,42,43
 250.976190476 758 250.976190476 758 250.976190476 786.705782313 c 0,44,45
 250.976190476 801.976190476 250.976190476 801.976190476 291 883 c 0,46,47
 302.666666667 904.777777778 302.666666667 904.777777778 324.012345679 904.777777778 c 0,48,49
 347.6 904.777777778 347.6 904.777777778 414.8 879.888888889 c 128,-1,50
 482 855 482 855 523.5 839 c 128,-1,51
 565 823 565 823 579.5 817.5 c 128,-1,52
 594 812 594 812 594 785 c 128,-1,53
 594 758 594 758 569 758 c 2,41,-1
EndSplineSet
EndChar

StartChar: Ecircumflex
Encoding: 202 202 39
Width: 844
Flags: HMW
HStem: 0 148<513 751> 291 123<499 516 516 679> 566 134<503.5 755.5 635.5 738> 922 20G<389 455 455 463.5>
LayerCount: 2
Fore
SplineSet
86.5 18.5 m 128,-1,1
 67 37 67 37 61.5 79.5 c 128,-1,2
 56 122 56 122 56 334.5 c 128,-1,3
 56 547 56 547 63 612 c 0,4,5
 71 696 71 696 134 698 c 0,6,7
 206 700 206 700 731 700 c 0,8,9
 790 700 790 700 790 625 c 0,10,11
 790 566 790 566 738 566 c 2,12,-1
 518 566 l 2,13,14
 497 566 497 566 484.5 552 c 128,-1,15
 472 538 472 538 472 516 c 2,16,-1
 472 444 l 2,17,18
 472 414 472 414 499 414 c 2,19,-1
 681 414 l 2,20,21
 697 414 697 414 705.5 411 c 128,-1,22
 714 408 714 408 721 393.5 c 128,-1,23
 728 379 728 379 728 346 c 128,-1,24
 728 313 728 313 716.5 302 c 128,-1,25
 705 291 705 291 679 291 c 2,26,-1
 516 291 l 2,27,28
 491 291 491 291 481.5 278.5 c 128,-1,29
 472 266 472 266 472 240 c 2,30,-1
 472 191 l 2,31,32
 472 148 472 148 513 148 c 2,33,-1
 762 148 l 2,34,35
 780 148 780 148 794 137.5 c 128,-1,36
 808 127 808 127 808 91.5 c 128,-1,37
 808 56 808 56 791 28 c 128,-1,38
 774 0 774 0 751 0 c 2,39,-1
 134 0 l 2,40,0
 106 0 106 0 86.5 18.5 c 128,-1,1
389 942 m 2,41,-1
 455 942 l 2,42,43
 475 942 475 942 510 912 c 2,44,-1
 627 810 l 1,45,46
 632.142857143 802.285714286 632.142857143 802.285714286 632.142857143 793.5 c 0,47,48
 632.142857143 764.312169312 632.142857143 764.312169312 620.369300912 750.794382528 c 128,-1,49
 608.595744681 737.276595745 608.595744681 737.276595745 600.361702128 737.276595745 c 128,-1,50
 592.127659574 737.276595745 592.127659574 737.276595745 586 740 c 2,51,-1
 422 814 l 1,52,-1
 258 740 l 2,53,54
 251.872340426 737.276595745 251.872340426 737.276595745 243.638297872 737.276595745 c 128,-1,55
 235.404255319 737.276595745 235.404255319 737.276595745 224.20212766 750.138297872 c 128,-1,56
 213 763 213 763 212.428571429 773.857142857 c 128,-1,57
 211.857142857 784.714285714 211.857142857 784.714285714 211.857142857 793.5 c 128,-1,58
 211.857142857 802.285714286 211.857142857 802.285714286 217 810 c 1,59,-1
 334 912 l 2,60,61
 369 942 369 942 389 942 c 2,41,-1
EndSplineSet
EndChar

StartChar: Eacute
Encoding: 201 201 40
Width: 844
Flags: HMW
HStem: 0 148<513 751> 291 123<499 516 516 679> 566 134<503.5 755.5 635.5 738> 700 58
LayerCount: 2
Fore
SplineSet
86.5 18.5 m 128,-1,1
 67 37 67 37 61.5 79.5 c 128,-1,2
 56 122 56 122 56 334.5 c 128,-1,3
 56 547 56 547 63 612 c 0,4,5
 71 696 71 696 134 698 c 0,6,7
 206 700 206 700 731 700 c 0,8,9
 790 700 790 700 790 625 c 0,10,11
 790 566 790 566 738 566 c 2,12,-1
 518 566 l 2,13,14
 497 566 497 566 484.5 552 c 128,-1,15
 472 538 472 538 472 516 c 2,16,-1
 472 444 l 2,17,18
 472 414 472 414 499 414 c 2,19,-1
 681 414 l 2,20,21
 697 414 697 414 705.5 411 c 128,-1,22
 714 408 714 408 721 393.5 c 128,-1,23
 728 379 728 379 728 346 c 128,-1,24
 728 313 728 313 716.5 302 c 128,-1,25
 705 291 705 291 679 291 c 2,26,-1
 516 291 l 2,27,28
 491 291 491 291 481.5 278.5 c 128,-1,29
 472 266 472 266 472 240 c 2,30,-1
 472 191 l 2,31,32
 472 148 472 148 513 148 c 2,33,-1
 762 148 l 2,34,35
 780 148 780 148 794 137.5 c 128,-1,36
 808 127 808 127 808 91.5 c 128,-1,37
 808 56 808 56 791 28 c 128,-1,38
 774 0 774 0 751 0 c 2,39,-1
 134 0 l 2,40,0
 106 0 106 0 86.5 18.5 c 128,-1,1
596 758 m 2,41,-1
 325 758 l 2,42,43
 300 758 300 758 300 785 c 128,-1,44
 300 812 300 812 314.5 817.5 c 128,-1,45
 329 823 329 823 370.5 839 c 128,-1,46
 412 855 412 855 439 865 c 0,47,48
 546.4 904.777777778 546.4 904.777777778 568.866666667 904.777777778 c 128,-1,49
 591.333333333 904.777777778 591.333333333 904.777777778 603 883 c 0,50,51
 643.023809524 801.976190476 643.023809524 801.976190476 643.023809524 786.705782313 c 0,52,53
 643.023809524 758 643.023809524 758 596 758 c 2,41,-1
EndSplineSet
EndChar

StartChar: Edieresis
Encoding: 203 203 41
Width: 844
Flags: HMW
HStem: 0 148<513 751> 291 123<499 516 516 679> 566 134<503.5 755.5 635.5 738> 743 174<262.5 318.5 528.5 584.5>
VStem: 189 199<811.5 850> 455 199<811.5 850>
LayerCount: 2
Fore
SplineSet
86.5 18.5 m 128,-1,1
 67 37 67 37 61.5 79.5 c 128,-1,2
 56 122 56 122 56 334.5 c 128,-1,3
 56 547 56 547 63 612 c 0,4,5
 71 696 71 696 134 698 c 0,6,7
 206 700 206 700 731 700 c 0,8,9
 790 700 790 700 790 625 c 0,10,11
 790 566 790 566 738 566 c 2,12,-1
 518 566 l 2,13,14
 497 566 497 566 484.5 552 c 128,-1,15
 472 538 472 538 472 516 c 2,16,-1
 472 444 l 2,17,18
 472 414 472 414 499 414 c 2,19,-1
 681 414 l 2,20,21
 697 414 697 414 705.5 411 c 128,-1,22
 714 408 714 408 721 393.5 c 128,-1,23
 728 379 728 379 728 346 c 128,-1,24
 728 313 728 313 716.5 302 c 128,-1,25
 705 291 705 291 679 291 c 2,26,-1
 516 291 l 2,27,28
 491 291 491 291 481.5 278.5 c 128,-1,29
 472 266 472 266 472 240 c 2,30,-1
 472 191 l 2,31,32
 472 148 472 148 513 148 c 2,33,-1
 762 148 l 2,34,35
 780 148 780 148 794 137.5 c 128,-1,36
 808 127 808 127 808 91.5 c 128,-1,37
 808 56 808 56 791 28 c 128,-1,38
 774 0 774 0 751 0 c 2,39,-1
 134 0 l 2,40,0
 106 0 106 0 86.5 18.5 c 128,-1,1
218 890.5 m 128,-1,42
 247 917 247 917 294.5 917 c 128,-1,43
 342 917 342 917 365 891.5 c 128,-1,44
 388 866 388 866 388 832 c 128,-1,45
 388 798 388 798 360 770.5 c 128,-1,46
 332 743 332 743 290 743 c 128,-1,47
 248 743 248 743 218.5 766 c 128,-1,48
 189 789 189 789 189 826.5 c 128,-1,41
 189 864 189 864 218 890.5 c 128,-1,42
484 890.5 m 128,-1,50
 513 917 513 917 560.5 917 c 128,-1,51
 608 917 608 917 631 891.5 c 128,-1,52
 654 866 654 866 654 832 c 128,-1,53
 654 798 654 798 626 770.5 c 128,-1,54
 598 743 598 743 556 743 c 128,-1,55
 514 743 514 743 484.5 766 c 128,-1,56
 455 789 455 789 455 826.5 c 128,-1,49
 455 864 455 864 484 890.5 c 128,-1,50
EndSplineSet
EndChar

StartChar: Igrave
Encoding: 204 204 42
Width: 544
Flags: HMW
HStem: -3 21G<257.5 302.5> 700 58<138 148 148 406 406 419>
LayerCount: 2
Fore
SplineSet
138 700 m 2,0,-1
 406 700 l 2,1,2
 448 700 448 700 461.5 679 c 128,-1,3
 475 658 475 658 479.5 592.5 c 128,-1,4
 484 527 484 527 484 338.5 c 128,-1,5
 484 150 484 150 476 62 c 0,6,7
 473 39 473 39 455.5 21 c 128,-1,8
 438 3 438 3 409 1 c 0,9,10
 352 -3 352 -3 277 -3 c 128,-1,11
 202 -3 202 -3 135 1 c 0,12,13
 106 3 106 3 88.5 21 c 128,-1,14
 71 39 71 39 68 62 c 0,15,16
 60 150 60 150 60 338.5 c 128,-1,17
 60 527 60 527 64.5 592.5 c 128,-1,18
 69 658 69 658 82.5 679 c 128,-1,19
 96 700 96 700 138 700 c 2,0,-1
419 758 m 2,20,-1
 148 758 l 2,21,22
 100.976190476 758 100.976190476 758 100.976190476 786.705782313 c 0,23,24
 100.976190476 801.976190476 100.976190476 801.976190476 141 883 c 0,25,26
 152.666666667 904.777777778 152.666666667 904.777777778 174.012345679 904.777777778 c 0,27,28
 197.6 904.777777778 197.6 904.777777778 264.8 879.888888889 c 128,-1,29
 332 855 332 855 373.5 839 c 128,-1,30
 415 823 415 823 429.5 817.5 c 128,-1,31
 444 812 444 812 444 785 c 128,-1,32
 444 758 444 758 419 758 c 2,20,-1
EndSplineSet
EndChar

StartChar: Icircumflex
Encoding: 206 206 43
Width: 544
Flags: HMW
HStem: -3 21G<257.5 302.5> 922 20G<239 305 305 313.5>
LayerCount: 2
Fore
SplineSet
138 700 m 2,0,-1
 406 700 l 2,1,2
 448 700 448 700 461.5 679 c 128,-1,3
 475 658 475 658 479.5 592.5 c 128,-1,4
 484 527 484 527 484 338.5 c 128,-1,5
 484 150 484 150 476 62 c 0,6,7
 473 39 473 39 455.5 21 c 128,-1,8
 438 3 438 3 409 1 c 0,9,10
 352 -3 352 -3 277 -3 c 128,-1,11
 202 -3 202 -3 135 1 c 0,12,13
 106 3 106 3 88.5 21 c 128,-1,14
 71 39 71 39 68 62 c 0,15,16
 60 150 60 150 60 338.5 c 128,-1,17
 60 527 60 527 64.5 592.5 c 128,-1,18
 69 658 69 658 82.5 679 c 128,-1,19
 96 700 96 700 138 700 c 2,0,-1
239 942 m 2,20,-1
 305 942 l 2,21,22
 325 942 325 942 360 912 c 2,23,-1
 477 810 l 1,24,25
 482.142857143 802.285714286 482.142857143 802.285714286 482.142857143 793.5 c 0,26,27
 482.142857143 764.312169312 482.142857143 764.312169312 470.369300912 750.794382528 c 128,-1,28
 458.595744681 737.276595745 458.595744681 737.276595745 450.361702128 737.276595745 c 128,-1,29
 442.127659574 737.276595745 442.127659574 737.276595745 436 740 c 2,30,-1
 272 814 l 1,31,-1
 108 740 l 2,32,33
 101.872340426 737.276595745 101.872340426 737.276595745 93.6382978723 737.276595745 c 128,-1,34
 85.4042553191 737.276595745 85.4042553191 737.276595745 74.2021276596 750.138297872 c 128,-1,35
 63 763 63 763 62.4285714286 773.857142857 c 128,-1,36
 61.8571428571 784.714285714 61.8571428571 784.714285714 61.8571428571 793.5 c 128,-1,37
 61.8571428571 802.285714286 61.8571428571 802.285714286 67 810 c 1,38,-1
 184 912 l 2,39,40
 219 942 219 942 239 942 c 2,20,-1
EndSplineSet
EndChar

StartChar: Iacute
Encoding: 205 205 44
Width: 544
Flags: HMW
HStem: -3 21G<257.5 302.5> 700 58<138 404>
LayerCount: 2
Fore
SplineSet
138 700 m 2,0,-1
 406 700 l 2,1,2
 448 700 448 700 461.5 679 c 128,-1,3
 475 658 475 658 479.5 592.5 c 128,-1,4
 484 527 484 527 484 338.5 c 128,-1,5
 484 150 484 150 476 62 c 0,6,7
 473 39 473 39 455.5 21 c 128,-1,8
 438 3 438 3 409 1 c 0,9,10
 352 -3 352 -3 277 -3 c 128,-1,11
 202 -3 202 -3 135 1 c 0,12,13
 106 3 106 3 88.5 21 c 128,-1,14
 71 39 71 39 68 62 c 0,15,16
 60 150 60 150 60 338.5 c 128,-1,17
 60 527 60 527 64.5 592.5 c 128,-1,18
 69 658 69 658 82.5 679 c 128,-1,19
 96 700 96 700 138 700 c 2,0,-1
404 758 m 2,20,-1
 133 758 l 2,21,22
 108 758 108 758 108 785 c 128,-1,23
 108 812 108 812 122.5 817.5 c 128,-1,24
 137 823 137 823 178.5 839 c 128,-1,25
 220 855 220 855 247 865 c 0,26,27
 354.4 904.777777778 354.4 904.777777778 376.866666667 904.777777778 c 128,-1,28
 399.333333333 904.777777778 399.333333333 904.777777778 411 883 c 0,29,30
 451.023809524 801.976190476 451.023809524 801.976190476 451.023809524 786.705782313 c 0,31,32
 451.023809524 758 451.023809524 758 404 758 c 2,20,-1
EndSplineSet
EndChar

StartChar: Idieresis
Encoding: 207 207 45
Width: 544
Flags: HMW
HStem: -3 21G<257.5 302.5> 743 174<113.5 169.5 379.5 435.5>
VStem: 40 199<811.5 850> 306 199<811.5 850>
LayerCount: 2
Fore
SplineSet
138 700 m 2,0,-1
 406 700 l 2,1,2
 448 700 448 700 461.5 679 c 128,-1,3
 475 658 475 658 479.5 592.5 c 128,-1,4
 484 527 484 527 484 338.5 c 128,-1,5
 484 150 484 150 476 62 c 0,6,7
 473 39 473 39 455.5 21 c 128,-1,8
 438 3 438 3 409 1 c 0,9,10
 352 -3 352 -3 277 -3 c 128,-1,11
 202 -3 202 -3 135 1 c 0,12,13
 106 3 106 3 88.5 21 c 128,-1,14
 71 39 71 39 68 62 c 0,15,16
 60 150 60 150 60 338.5 c 128,-1,17
 60 527 60 527 64.5 592.5 c 128,-1,18
 69 658 69 658 82.5 679 c 128,-1,19
 96 700 96 700 138 700 c 2,0,-1
69 890.5 m 128,-1,21
 98 917 98 917 145.5 917 c 128,-1,22
 193 917 193 917 216 891.5 c 128,-1,23
 239 866 239 866 239 832 c 128,-1,24
 239 798 239 798 211 770.5 c 128,-1,25
 183 743 183 743 141 743 c 128,-1,26
 99 743 99 743 69.5 766 c 128,-1,27
 40 789 40 789 40 826.5 c 128,-1,20
 40 864 40 864 69 890.5 c 128,-1,21
335 890.5 m 128,-1,29
 364 917 364 917 411.5 917 c 128,-1,30
 459 917 459 917 482 891.5 c 128,-1,31
 505 866 505 866 505 832 c 128,-1,32
 505 798 505 798 477 770.5 c 128,-1,33
 449 743 449 743 407 743 c 128,-1,34
 365 743 365 743 335.5 766 c 128,-1,35
 306 789 306 789 306 826.5 c 128,-1,28
 306 864 306 864 335 890.5 c 128,-1,29
EndSplineSet
EndChar

StartChar: Itilde
Encoding: 296 296 46
Width: 544
Flags: HMW
HStem: -3 21G<257.5 302.5> 745 172<351 397 351 408> 816 101 816 172<149 195>
LayerCount: 2
Fore
SplineSet
355 745 m 0,0,1
 310 745 310 745 251 780.5 c 128,-1,2
 192 816 192 816 166.5 816 c 0,3,4
 141 816 141 816 126 803.5 c 128,-1,5
 111 791 111 791 98 760 c 1,6,7
 92 749 92 749 82 749 c 2,8,-1
 29 752 l 1,9,10
 19 755 19 755 16.5 760 c 128,-1,11
 14 765 14 765 14 778 c 0,12,13
 14 877 14 877 62 932.5 c 128,-1,14
 110 988 110 988 191 988 c 0,15,16
 236 988 236 988 295 952.5 c 128,-1,17
 354 917 354 917 379.5 917 c 0,18,19
 405 917 405 917 420 929.5 c 128,-1,20
 435 942 435 942 448 973 c 1,21,22
 454 984 454 984 464 984 c 2,23,-1
 517 981 l 1,24,25
 527 978 527 978 529.5 973 c 128,-1,26
 532 968 532 968 532 955 c 0,27,28
 532 856 532 856 484 800.5 c 128,-1,29
 436 745 436 745 355 745 c 0,0,1
138 700 m 2,30,-1
 406 700 l 2,31,32
 448 700 448 700 461.5 679 c 128,-1,33
 475 658 475 658 479.5 592.5 c 0,34,35
 484 527 484 527 484 338.5 c 0,36,37
 484 150 484 150 476 62 c 0,38,39
 473 39 473 39 455.5 21 c 128,-1,40
 438 3 438 3 409 1 c 0,41,42
 352 -3 352 -3 277 -3 c 0,43,44
 202 -3 202 -3 135 1 c 0,45,46
 106 3 106 3 88.5 21 c 128,-1,47
 71 39 71 39 68 62 c 0,48,49
 60 150 60 150 60 338.5 c 0,50,51
 60 527 60 527 64.5 592.5 c 0,52,53
 69 658 69 658 82.5 679 c 128,-1,54
 96 700 96 700 138 700 c 2,30,-1
EndSplineSet
EndChar

StartChar: IJ
Encoding: 306 306 47
Width: 1184
Flags: HMW
HStem: -20 21G<598.5 767> 680 20G<138 406 406 436 782 1050 1050 1080>
LayerCount: 2
Fore
SplineSet
138 700 m 2,0,-1
 406 700 l 2,1,2
 448 700 448 700 461.5 679 c 128,-1,3
 475 658 475 658 479.5 592.5 c 128,-1,4
 484 527 484 527 484 338.5 c 128,-1,5
 484 150 484 150 476 62 c 0,6,7
 473 39 473 39 455.5 21 c 128,-1,8
 438 3 438 3 409 1 c 0,9,10
 352 -3 352 -3 277 -3 c 128,-1,11
 202 -3 202 -3 135 1 c 0,12,13
 106 3 106 3 88.5 21 c 128,-1,14
 71 39 71 39 68 62 c 0,15,16
 60 150 60 150 60 338.5 c 128,-1,17
 60 527 60 527 64.5 592.5 c 128,-1,18
 69 658 69 658 82.5 679 c 128,-1,19
 96 700 96 700 138 700 c 2,0,-1
712 273 m 2,20,-1
 709 581.25 l 2,21,22
 709 626.5 709 626.5 710 639 c 0,23,24
 711 671 711 671 725.5 685.5 c 128,-1,25
 740 700 740 700 782 700 c 2,26,-1
 1050 700 l 2,27,28
 1092 700 1092 700 1106.5 685.5 c 128,-1,29
 1121 671 1121 671 1122 639 c 0,30,31
 1124.08333333 576.5 1124.08333333 576.5 1124.08333333 487.75 c 128,-1,32
 1124.08333333 399 1124.08333333 399 1120 273 c 1,33,34
 1117.17769116 78.2606901296 1117.17769116 78.2606901296 919.5 16 c 0,35,36
 805.2 -20 805.2 -20 627 -20 c 0,37,38
 587 -20 587 -20 574 4 c 128,-1,39
 561 28 561 28 561 87.5 c 128,-1,40
 561 147 561 147 607 152 c 0,41,42
 663 159 663 159 687.5 199.5 c 128,-1,43
 712 240 712 240 712 273 c 2,20,-1
EndSplineSet
EndChar

StartChar: Jcircumflex
Encoding: 308 308 48
Width: 659
Flags: HMW
HStem: -20 21G<71.5 240> 922 20G<357 423 423 431.5>
LayerCount: 2
Fore
SplineSet
357 942 m 2,0,-1
 423 942 l 2,1,2
 443 942 443 942 478 912 c 2,3,-1
 595 810 l 1,4,5
 600.142857143 802.285714286 600.142857143 802.285714286 600.142857143 793.5 c 0,6,7
 600.142857143 764.312169312 600.142857143 764.312169312 588.369300912 750.794382528 c 128,-1,8
 576.595744681 737.276595745 576.595744681 737.276595745 568.361702128 737.276595745 c 128,-1,9
 560.127659574 737.276595745 560.127659574 737.276595745 554 740 c 2,10,-1
 390 814 l 1,11,-1
 226 740 l 2,12,13
 219.872340426 737.276595745 219.872340426 737.276595745 211.638297872 737.276595745 c 128,-1,14
 203.404255319 737.276595745 203.404255319 737.276595745 192.20212766 750.138297872 c 128,-1,15
 181 763 181 763 180 782 c 128,-1,16
 179 801 179 801 185 810 c 1,17,-1
 302 912 l 2,18,19
 337 942 337 942 357 942 c 2,0,-1
185 273 m 2,20,-1
 182 581.25 l 2,21,22
 182 626.5 182 626.5 183 639 c 0,23,24
 184 671 184 671 198.5 685.5 c 128,-1,25
 213 700 213 700 255 700 c 2,26,-1
 523 700 l 2,27,28
 565 700 565 700 579.5 685.5 c 128,-1,29
 594 671 594 671 595 639 c 0,30,31
 597.083333333 576.5 597.083333333 576.5 597.083333333 487.75 c 128,-1,32
 597.083333333 399 597.083333333 399 593 273 c 1,33,34
 590.177691161 78.2606901295 590.177691161 78.2606901295 392.5 16 c 0,35,36
 278.2 -20 278.2 -20 100 -20 c 0,37,38
 60 -20 60 -20 47 4 c 128,-1,39
 34 28 34 28 34 87.5 c 128,-1,40
 34 147 34 147 80 152 c 0,41,42
 136 159 136 159 160.5 199.5 c 128,-1,43
 185 240 185 240 185 273 c 2,20,-1
EndSplineSet
EndChar

StartChar: Ldotaccent
Encoding: 319 319 49
Width: 875
Flags: HMW
HStem: -4 176<413 799> 256 224<688.5 758> 680 20G<134 402 402 432>
VStem: 596 249<343.5 394>
LayerCount: 2
Fore
SplineSet
631.5 446 m 128,-1,1
 667 480 667 480 727 480 c 128,-1,2
 787 480 787 480 816 447 c 128,-1,3
 845 414 845 414 845 370.5 c 128,-1,4
 845 327 845 327 810 291.5 c 128,-1,5
 775 256 775 256 722.5 256 c 128,-1,6
 670 256 670 256 633 285.5 c 128,-1,7
 596 315 596 315 596 363.5 c 128,-1,0
 596 412 596 412 631.5 446 c 128,-1,1
477 459 m 2,8,-1
 476 259 l 2,9,10
 476 215 476 215 489.5 193.5 c 128,-1,11
 503 172 503 172 546 172 c 2,12,-1
 799 172 l 1,13,14
 845 171 845 171 845 102 c 0,15,16
 845 49 845 49 832 25 c 128,-1,17
 819 1 819 1 779 0 c 0,18,19
 638 -4 638 -4 500 -4 c 128,-1,20
 362 -4 362 -4 148 -2 c 0,21,22
 112 -2 112 -2 89.5 15.5 c 128,-1,23
 67 33 67 33 64 64 c 0,24,25
 56 151 56 151 56 338.5 c 128,-1,26
 56 526 56 526 60.5 591.5 c 128,-1,27
 65 657 65 657 79 678.5 c 128,-1,28
 93 700 93 700 134 700 c 2,29,-1
 402 700 l 2,30,31
 444 700 444 700 457.5 678 c 128,-1,32
 471 656 471 656 474 607 c 128,-1,33
 477 558 477 558 477 459 c 2,8,-1
EndSplineSet
EndChar

StartChar: Lslash
Encoding: 321 321 50
Width: 858
Flags: HMW
HStem: -4 176<413 799> 680 20G<134 402 402 432>
LayerCount: 2
Fore
SplineSet
14.5 255 m 0,0,1
 -9 255 -9 255 -9 301.5 c 128,-1,2
 -9 348 -9 348 2.5 361.5 c 128,-1,3
 14 375 14 375 40 380 c 2,4,-1
 56 383 l 1,5,6
 56 537 56 537 60.5 597 c 128,-1,7
 65 657 65 657 79 678.5 c 128,-1,8
 93 700 93 700 134 700 c 2,9,-1
 402 700 l 2,10,11
 444 700 444 700 457.5 678 c 128,-1,12
 471 656 471 656 474 608.5 c 128,-1,13
 477 561 477 561 477 470 c 1,14,-1
 501 475 l 2,15,16
 514 477 514 477 524.5 476.5 c 0,17,18
 548 475.380952381 548 475.380952381 548 429.19047619 c 128,-1,19
 548 383 548 383 536.5 369.5 c 128,-1,20
 525 356 525 356 499 351 c 2,21,-1
 476 346 l 1,22,-1
 476 259 l 2,23,24
 476 215 476 215 489.5 193.5 c 128,-1,25
 503 172 503 172 546 172 c 2,26,-1
 799 172 l 1,27,28
 845 171 845 171 845 102 c 0,29,30
 845 49 845 49 832 25 c 128,-1,31
 819 1 819 1 779 0 c 0,32,33
 638 -4 638 -4 500 -4 c 128,-1,34
 362 -4 362 -4 148 -2 c 0,35,36
 112 -2 112 -2 89.5 15.5 c 128,-1,37
 67 33 67 33 64 64 c 0,38,39
 56 152 56 152 56 260 c 1,40,-1
 38 257 l 2,41,42
 25 255 25 255 14.5 255 c 0,0,1
EndSplineSet
EndChar

StartChar: Nacute
Encoding: 323 323 51
Width: 965
Flags: HMW
HStem: -20 20G<665 681 681 848>
VStem: 60 225 699 214<305.5 654>
LayerCount: 2
Fore
SplineSet
628 758 m 2,0,-1
 357 758 l 2,1,2
 332 758 332 758 332 785 c 128,-1,3
 332 812 332 812 346.5 817.5 c 128,-1,4
 361 823 361 823 402.5 839 c 128,-1,5
 444 855 444 855 471 865 c 0,6,7
 578.4 904.777777778 578.4 904.777777778 600.866666667 904.777777778 c 128,-1,8
 623.333333333 904.777777778 623.333333333 904.777777778 635 883 c 0,9,10
 675.023809524 801.976190476 675.023809524 801.976190476 675.023809524 786.705782313 c 0,11,12
 675.023809524 758 675.023809524 758 628 758 c 2,0,-1
738 700 m 2,13,-1
 845 700 l 2,14,15
 879 700 879 700 892.5 689 c 128,-1,16
 906 678 906 678 907 644 c 0,17,18
 913 492 913 492 913 317 c 128,-1,19
 913 142 913 142 906 61 c 0,20,21
 904 38 904 38 888.5 19 c 128,-1,22
 873 0 873 0 848 0 c 2,23,-1
 681 0 l 2,24,25
 646 0 646 0 604 25 c 0,26,27
 372 162 372 162 312 192 c 0,28,29
 300 197 300 197 292.5 188.5 c 128,-1,30
 285 180 285 180 285 157 c 2,31,-1
 285 46 l 2,32,33
 285 27 285 27 271 16 c 0,34,35
 249.872727273 -0.6 249.872727273 -0.6 162.8 -0.6 c 0,36,37
 139.2 -0.6 139.2 -0.6 116.1 0.7 c 128,-1,38
 93 2 93 2 78.5 21 c 128,-1,39
 64 40 64 40 63 62 c 0,40,41
 60 182 60 182 60 363.5 c 128,-1,42
 60 545 60 545 61 600 c 128,-1,43
 62 655 62 655 74 677.5 c 128,-1,44
 86 700 86 700 120 700 c 2,45,-1
 230 700 l 2,46,47
 264 700 264 700 300 681 c 0,48,49
 610 520 610 520 662 494 c 0,50,51
 679 486 679 486 689 492 c 128,-1,52
 699 498 699 498 699 514 c 2,53,-1
 699 654 l 2,54,55
 699 674 699 674 709.5 687 c 128,-1,56
 720 700 720 700 738 700 c 2,13,-1
EndSplineSet
EndChar

StartChar: Ntilde
Encoding: 209 209 52
Width: 965
Flags: HMW
HStem: -20 20G<665 681 681 848> 740 172<569 615 569 626> 811 101 811 172<367 413>
VStem: 56 229 699 51 699 214<305.5 654>
LayerCount: 2
Fore
SplineSet
738 700 m 2,0,-1
 845 700 l 2,1,2
 879 700 879 700 892.5 689 c 128,-1,3
 906 678 906 678 907 644 c 0,4,5
 913 492 913 492 913 317 c 128,-1,6
 913 142 913 142 906 61 c 0,7,8
 904 38 904 38 888.5 19 c 128,-1,9
 873 0 873 0 848 0 c 2,10,-1
 681 0 l 2,11,12
 646 0 646 0 604 25 c 0,13,14
 372 162 372 162 312 192 c 0,15,16
 300 197 300 197 292.5 188.5 c 128,-1,17
 285 180 285 180 285 157 c 2,18,-1
 285 46 l 2,19,20
 285 27 285 27 271 16 c 0,21,22
 249.872727273 -0.6 249.872727273 -0.6 162.8 -0.6 c 0,23,24
 139.2 -0.6 139.2 -0.6 116.6 0.7 c 128,-1,25
 94 2 94 2 79.5 20.5 c 128,-1,26
 65 39 65 39 63 62 c 0,27,28
 56 152 56 152 56 337.5 c 128,-1,29
 56 523 56 523 60 590 c 128,-1,30
 64 657 64 657 75 678.5 c 128,-1,31
 86 700 86 700 120 700 c 2,32,-1
 230 700 l 2,33,34
 264 700 264 700 300 681 c 0,35,36
 610 520 610 520 662 494 c 0,37,38
 679 486 679 486 689 492 c 128,-1,39
 699 498 699 498 699 514 c 2,40,-1
 699 654 l 2,41,42
 699 674 699 674 709.5 687 c 128,-1,43
 720 700 720 700 738 700 c 2,0,-1
573 740 m 0,44,45
 528 740 528 740 469 775.5 c 128,-1,46
 410 811 410 811 384.5 811 c 128,-1,47
 359 811 359 811 344 798.5 c 128,-1,48
 329 786 329 786 316 755 c 1,49,50
 310 744 310 744 300 744 c 2,51,-1
 247 747 l 1,52,53
 237 750 237 750 234.5 755 c 128,-1,54
 232 760 232 760 232 773 c 0,55,56
 232 872 232 872 280 927.5 c 128,-1,57
 328 983 328 983 409 983 c 0,58,59
 454 983 454 983 513 947.5 c 128,-1,60
 572 912 572 912 597.5 912 c 128,-1,61
 623 912 623 912 638 924.5 c 128,-1,62
 653 937 653 937 666 968 c 1,63,64
 672 979 672 979 682 979 c 2,65,-1
 735 976 l 1,66,67
 745 973 745 973 747.5 968 c 128,-1,68
 750 963 750 963 750 950 c 0,69,70
 750 851 750 851 702 795.5 c 128,-1,71
 654 740 654 740 573 740 c 0,44,45
EndSplineSet
EndChar

StartChar: Ograve
Encoding: 210 210 53
Width: 1043
Flags: HMW
HStem: -20 21G<375.5 543> 243 244<559.5 640> 487 236<556 655> 723 35<387.5 398 398 669>
LayerCount: 2
Fore
SplineSet
543 -20 m 1,0,1
 422 -20 422 -20 324 11.5 c 128,-1,2
 226 43 226 43 165 96 c 128,-1,3
 104 149 104 149 72 214.5 c 128,-1,4
 40 280 40 280 40 351 c 128,-1,5
 40 422 40 422 72.5 487.5 c 128,-1,6
 105 553 105 553 165.5 606 c 128,-1,7
 226 659 226 659 324 691 c 128,-1,8
 422 723 422 723 539 723 c 128,-1,9
 656 723 656 723 746 694 c 128,-1,10
 836 665 836 665 891 615 c 0,11,12
 1003 513.181818182 1003 513.181818182 1003 373 c 0,13,14
 1003 302 1003 302 972.5 234 c 128,-1,15
 942 166 942 166 885.5 110.5 c 128,-1,16
 829 55 829 55 740 19.5 c 128,-1,17
 651 -16 651 -16 543 -20 c 1,0,1
707 451.5 m 128,-1,19
 673 487 673 487 603.5 487 c 128,-1,20
 534 487 534 487 493 450 c 128,-1,21
 452 413 452 413 452 360 c 128,-1,22
 452 307 452 307 495 275 c 128,-1,23
 538 243 538 243 598.5 243 c 128,-1,24
 659 243 659 243 700 282 c 128,-1,25
 741 321 741 321 741 368.5 c 128,-1,18
 741 416 741 416 707 451.5 c 128,-1,19
669 758 m 2,26,-1
 398 758 l 2,27,28
 350.976190476 758 350.976190476 758 350.976190476 786.705782313 c 0,29,30
 350.976190476 801.976190476 350.976190476 801.976190476 391 883 c 0,31,32
 402.666666667 904.777777778 402.666666667 904.777777778 424.012345679 904.777777778 c 0,33,34
 447.6 904.777777778 447.6 904.777777778 514.8 879.888888889 c 128,-1,35
 582 855 582 855 623.5 839 c 128,-1,36
 665 823 665 823 679.5 817.5 c 128,-1,37
 694 812 694 812 694 785 c 128,-1,38
 694 758 694 758 669 758 c 2,26,-1
EndSplineSet
EndChar

StartChar: Ocircumflex
Encoding: 212 212 54
Width: 1043
Flags: HMW
HStem: -20 21G<375.5 543> 487 236<556 655> 922 20G<501 567 567 575.5>
LayerCount: 2
Fore
SplineSet
543 -20 m 1,0,1
 422 -20 422 -20 324 11.5 c 128,-1,2
 226 43 226 43 165 96 c 128,-1,3
 104 149 104 149 72 214.5 c 128,-1,4
 40 280 40 280 40 351 c 128,-1,5
 40 422 40 422 72.5 487.5 c 128,-1,6
 105 553 105 553 165.5 606 c 128,-1,7
 226 659 226 659 324 691 c 128,-1,8
 422 723 422 723 539 723 c 128,-1,9
 656 723 656 723 746 694 c 128,-1,10
 836 665 836 665 891 615 c 0,11,12
 1003 513.181818182 1003 513.181818182 1003 373 c 0,13,14
 1003 302 1003 302 972.5 234 c 128,-1,15
 942 166 942 166 885.5 110.5 c 128,-1,16
 829 55 829 55 740 19.5 c 128,-1,17
 651 -16 651 -16 543 -20 c 1,0,1
707 451.5 m 128,-1,19
 673 487 673 487 603.5 487 c 128,-1,20
 534 487 534 487 493 450 c 128,-1,21
 452 413 452 413 452 360 c 128,-1,22
 452 307 452 307 495 275 c 128,-1,23
 538 243 538 243 598.5 243 c 128,-1,24
 659 243 659 243 700 282 c 128,-1,25
 741 321 741 321 741 368.5 c 128,-1,18
 741 416 741 416 707 451.5 c 128,-1,19
501 942 m 2,26,-1
 567 942 l 2,27,28
 587 942 587 942 622 912 c 2,29,-1
 739 810 l 1,30,31
 744.142857143 802.285714286 744.142857143 802.285714286 744.142857143 793.5 c 0,32,33
 744.142857143 764.312169312 744.142857143 764.312169312 732.369300912 750.794382528 c 128,-1,34
 720.595744681 737.276595745 720.595744681 737.276595745 712.361702128 737.276595745 c 128,-1,35
 704.127659574 737.276595745 704.127659574 737.276595745 698 740 c 2,36,-1
 534 814 l 1,37,-1
 370 740 l 2,38,39
 363.872340426 737.276595745 363.872340426 737.276595745 355.638297872 737.276595745 c 128,-1,40
 347.404255319 737.276595745 347.404255319 737.276595745 336.20212766 750.138297872 c 128,-1,41
 325 763 325 763 324.428571429 773.857142857 c 128,-1,42
 323.857142857 784.714285714 323.857142857 784.714285714 323.857142857 793.5 c 128,-1,43
 323.857142857 802.285714286 323.857142857 802.285714286 329 810 c 1,44,-1
 446 912 l 2,45,46
 481 942 481 942 501 942 c 2,26,-1
EndSplineSet
EndChar

StartChar: Oacute
Encoding: 211 211 55
Width: 1043
Flags: HMW
HStem: -20 21G<375.5 543> 243 244<559.5 640> 487 236<556 655> 723 35<425.5 432 432 699.5>
LayerCount: 2
Fore
SplineSet
543 -20 m 1,0,1
 422 -20 422 -20 324 11.5 c 128,-1,2
 226 43 226 43 165 96 c 128,-1,3
 104 149 104 149 72 214.5 c 128,-1,4
 40 280 40 280 40 351 c 128,-1,5
 40 422 40 422 72.5 487.5 c 128,-1,6
 105 553 105 553 165.5 606 c 128,-1,7
 226 659 226 659 324 691 c 128,-1,8
 422 723 422 723 539 723 c 128,-1,9
 656 723 656 723 746 694 c 128,-1,10
 836 665 836 665 891 615 c 0,11,12
 1003 513.181818182 1003 513.181818182 1003 373 c 0,13,14
 1003 302 1003 302 972.5 234 c 128,-1,15
 942 166 942 166 885.5 110.5 c 128,-1,16
 829 55 829 55 740 19.5 c 128,-1,17
 651 -16 651 -16 543 -20 c 1,0,1
707 451.5 m 128,-1,19
 673 487 673 487 603.5 487 c 128,-1,20
 534 487 534 487 493 450 c 128,-1,21
 452 413 452 413 452 360 c 128,-1,22
 452 307 452 307 495 275 c 128,-1,23
 538 243 538 243 598.5 243 c 128,-1,24
 659 243 659 243 700 282 c 128,-1,25
 741 321 741 321 741 368.5 c 128,-1,18
 741 416 741 416 707 451.5 c 128,-1,19
703 758 m 2,26,-1
 432 758 l 2,27,28
 407 758 407 758 407 785 c 128,-1,29
 407 812 407 812 421.5 817.5 c 128,-1,30
 436 823 436 823 477.5 839 c 128,-1,31
 519 855 519 855 546 865 c 0,32,33
 653.4 904.777777778 653.4 904.777777778 675.866666667 904.777777778 c 128,-1,34
 698.333333333 904.777777778 698.333333333 904.777777778 710 883 c 0,35,36
 750.023809524 801.976190476 750.023809524 801.976190476 750.023809524 786.705782313 c 0,37,38
 750.023809524 758 750.023809524 758 703 758 c 2,26,-1
EndSplineSet
EndChar

StartChar: Odieresis
Encoding: 214 214 56
Width: 1043
Flags: HMW
HStem: -20 21G<375.5 543> 487 236<556 655> 743 174<375.5 431.5 641.5 697.5>
VStem: 302 199<811.5 850> 568 199<811.5 850>
LayerCount: 2
Fore
SplineSet
543 -20 m 1,0,1
 422 -20 422 -20 324 11.5 c 128,-1,2
 226 43 226 43 165 96 c 128,-1,3
 104 149 104 149 72 214.5 c 128,-1,4
 40 280 40 280 40 351 c 128,-1,5
 40 422 40 422 72.5 487.5 c 128,-1,6
 105 553 105 553 165.5 606 c 128,-1,7
 226 659 226 659 324 691 c 128,-1,8
 422 723 422 723 539 723 c 128,-1,9
 656 723 656 723 746 694 c 128,-1,10
 836 665 836 665 891 615 c 0,11,12
 1003 513.181818182 1003 513.181818182 1003 373 c 0,13,14
 1003 302 1003 302 972.5 234 c 128,-1,15
 942 166 942 166 885.5 110.5 c 128,-1,16
 829 55 829 55 740 19.5 c 128,-1,17
 651 -16 651 -16 543 -20 c 1,0,1
707 451.5 m 128,-1,19
 673 487 673 487 603.5 487 c 128,-1,20
 534 487 534 487 493 450 c 128,-1,21
 452 413 452 413 452 360 c 128,-1,22
 452 307 452 307 495 275 c 128,-1,23
 538 243 538 243 598.5 243 c 128,-1,24
 659 243 659 243 700 282 c 128,-1,25
 741 321 741 321 741 368.5 c 128,-1,18
 741 416 741 416 707 451.5 c 128,-1,19
331 890.5 m 128,-1,27
 360 917 360 917 407.5 917 c 128,-1,28
 455 917 455 917 478 891.5 c 128,-1,29
 501 866 501 866 501 832 c 128,-1,30
 501 798 501 798 473 770.5 c 128,-1,31
 445 743 445 743 403 743 c 128,-1,32
 361 743 361 743 331.5 766 c 128,-1,33
 302 789 302 789 302 826.5 c 128,-1,26
 302 864 302 864 331 890.5 c 128,-1,27
597 890.5 m 128,-1,35
 626 917 626 917 673.5 917 c 128,-1,36
 721 917 721 917 744 891.5 c 128,-1,37
 767 866 767 866 767 832 c 128,-1,38
 767 798 767 798 739 770.5 c 128,-1,39
 711 743 711 743 669 743 c 128,-1,40
 627 743 627 743 597.5 766 c 128,-1,41
 568 789 568 789 568 826.5 c 128,-1,34
 568 864 568 864 597 890.5 c 128,-1,35
EndSplineSet
EndChar

StartChar: Otilde
Encoding: 213 213 57
Width: 1043
Flags: HMW
HStem: -20 21G<375.5 543> 487 236<556 655> 752 172<631 677 631 688> 823 172<429 475>
LayerCount: 2
Fore
SplineSet
543 -20 m 1,0,1
 422 -20 422 -20 324 11.5 c 128,-1,2
 226 43 226 43 165 96 c 128,-1,3
 104 149 104 149 72 214.5 c 128,-1,4
 40 280 40 280 40 351 c 128,-1,5
 40 422 40 422 72.5 487.5 c 128,-1,6
 105 553 105 553 165.5 606 c 128,-1,7
 226 659 226 659 324 691 c 128,-1,8
 422 723 422 723 539 723 c 128,-1,9
 656 723 656 723 746 694 c 128,-1,10
 836 665 836 665 891 615 c 0,11,12
 1003 513.181818182 1003 513.181818182 1003 373 c 0,13,14
 1003 302 1003 302 972.5 234 c 128,-1,15
 942 166 942 166 885.5 110.5 c 128,-1,16
 829 55 829 55 740 19.5 c 128,-1,17
 651 -16 651 -16 543 -20 c 1,0,1
707 451.5 m 128,-1,19
 673 487 673 487 603.5 487 c 128,-1,20
 534 487 534 487 493 450 c 128,-1,21
 452 413 452 413 452 360 c 128,-1,22
 452 307 452 307 495 275 c 128,-1,23
 538 243 538 243 598.5 243 c 128,-1,24
 659 243 659 243 700 282 c 128,-1,25
 741 321 741 321 741 368.5 c 128,-1,18
 741 416 741 416 707 451.5 c 128,-1,19
635 752 m 0,26,27
 590 752 590 752 531 787.5 c 128,-1,28
 472 823 472 823 446.5 823 c 128,-1,29
 421 823 421 823 406 810.5 c 128,-1,30
 391 798 391 798 378 767 c 1,31,32
 372 756 372 756 362 756 c 2,33,-1
 309 759 l 1,34,35
 299 762 299 762 296.5 767 c 128,-1,36
 294 772 294 772 294 785 c 0,37,38
 294 884 294 884 342 939.5 c 128,-1,39
 390 995 390 995 471 995 c 0,40,41
 516 995 516 995 575 959.5 c 128,-1,42
 634 924 634 924 659.5 924 c 128,-1,43
 685 924 685 924 700 936.5 c 128,-1,44
 715 949 715 949 728 980 c 1,45,46
 734 991 734 991 744 991 c 2,47,-1
 797 988 l 1,48,49
 807 985 807 985 809.5 980 c 128,-1,50
 812 975 812 975 812 962 c 0,51,52
 812 863 812 863 764 807.5 c 128,-1,53
 716 752 716 752 635 752 c 0,26,27
EndSplineSet
EndChar

StartChar: Oslash
Encoding: 216 216 58
Width: 1043
Flags: HMW
HStem: -23 21G<93 102 102 166> 487 236<556 597 376 655> 706 20G<892 956 956 965>
LayerCount: 2
Fore
SplineSet
543 -20 m 1,0,1
 375 -20 375 -20 254 39 c 1,2,-1
 226 14 l 1,3,4
 201 -23 201 -23 166 -23 c 2,5,-1
 102 -23 l 2,6,7
 86 -23 86 -23 78.4042553191 -11.7872340426 c 128,-1,8
 70.8085106383 -0.574468085106 70.8085106383 -0.574468085106 70.8085106383 7.73404255319 c 128,-1,9
 70.8085106383 16.0425531915 70.8085106383 16.0425531915 78 26 c 1,10,-1
 161 99 l 1,11,12
 40 202 40 202 40 351 c 0,13,14
 40 422 40 422 72.5 487.5 c 128,-1,15
 105 553 105 553 165.5 606 c 128,-1,16
 226 659 226 659 324 691 c 128,-1,17
 422 723 422 723 559 723 c 128,-1,18
 696 723 696 723 808 668 c 1,19,-1
 831 689 l 1,20,21
 857 726 857 726 892 726 c 2,22,-1
 956 726 l 2,23,24
 971 726 971 726 978.064102564 715.217948718 c 128,-1,25
 985.128205128 704.435897436 985.128205128 704.435897436 985.128205128 696.08974359 c 128,-1,26
 985.128205128 687.743589744 985.128205128 687.743589744 980 678 c 1,27,-1
 899 607 l 1,28,29
 1003 512 1003 512 1003 373 c 0,30,31
 1003 302 1003 302 972.5 234 c 128,-1,32
 942 166 942 166 885.5 110.5 c 128,-1,33
 829 55 829 55 740 19.5 c 128,-1,34
 651 -16 651 -16 543 -20 c 1,0,1
707 451.5 m 128,-1,36
 673 487 673 487 603.5 487 c 128,-1,37
 534 487 534 487 493 450 c 128,-1,38
 452 413 452 413 452 360 c 128,-1,39
 452 307 452 307 495 275 c 128,-1,40
 538 243 538 243 598.5 243 c 128,-1,41
 659 243 659 243 700 282 c 128,-1,42
 741 321 741 321 741 368.5 c 128,-1,35
 741 416 741 416 707 451.5 c 128,-1,36
EndSplineSet
EndChar

StartChar: Racute
Encoding: 340 340 59
Width: 915
Flags: HMW
HStem: -4 21G<273.5 321.5> 287 231<487.5 539> 518 181 699 59
VStem: 628 227<374 431.5>
LayerCount: 2
Fore
SplineSet
596 758 m 2,0,-1
 325 758 l 2,1,2
 300 758 300 758 300 785 c 128,-1,3
 300 812 300 812 314.5 817.5 c 128,-1,4
 329 823 329 823 370.5 839 c 128,-1,5
 412 855 412 855 439 865 c 0,6,7
 546.4 904.777777778 546.4 904.777777778 568.866666667 904.777777778 c 128,-1,8
 591.333333333 904.777777778 591.333333333 904.777777778 603 883 c 0,9,10
 643.023809524 801.976190476 643.023809524 801.976190476 643.023809524 786.705782313 c 0,11,12
 643.023809524 758 643.023809524 758 596 758 c 2,0,-1
472 491 m 2,13,-1
 474 306 l 2,14,15
 474 287 474 287 495 287 c 0,16,17
 557 287 557 287 592.5 321.5 c 128,-1,18
 628 356 628 356 628 403 c 128,-1,19
 628 450 628 450 594.5 484 c 128,-1,20
 561 518 561 518 496 518 c 0,21,22
 472 518 472 518 472 491 c 2,13,-1
734 192 m 1,23,24
 753 172 753 172 869 41 c 0,25,26
 876.333333333 32.3333333333 876.333333333 32.3333333333 876.333333333 25.3333333333 c 0,27,28
 876.333333333 -1 876.333333333 -1 853 -1 c 0,29,30
 799.5 -2 799.5 -2 746.25 -2 c 128,-1,31
 693 -2 693 -2 640 -1 c 0,32,33
 611 -1 611 -1 587 22 c 1,34,-1
 501 152 l 2,35,36
 496 158 496 158 489 160.5 c 0,37,38
 473 166.214285714 473 166.214285714 473 147 c 2,39,-1
 473 45 l 2,40,41
 473 2 473 2 416.5 -1 c 128,-1,42
 360 -4 360 -4 293 -4 c 128,-1,43
 226 -4 226 -4 131 1 c 0,44,45
 102 3 102 3 84.5 21 c 128,-1,46
 67 39 67 39 64 62 c 0,47,48
 56 150 56 150 56 338.5 c 128,-1,49
 56 527 56 527 62 613 c 128,-1,50
 68 699 68 699 149 700 c 0,51,52
 225 701 225 701 356 701 c 128,-1,53
 487 701 487 701 573 699 c 0,54,55
 697 697 697 697 776 607 c 128,-1,56
 855 517 855 517 855 404 c 0,57,58
 855 338 855 338 824.5 282 c 128,-1,59
 794 226 794 226 734 192 c 1,23,24
EndSplineSet
EndChar

StartChar: Rcaron
Encoding: 344 344 60
Width: 915
Flags: HMW
HStem: -4 21G<281.5 329.5> 287 231<495.5 547> 518 181 699 60
VStem: 636 227<374 431.5>
LayerCount: 2
Fore
SplineSet
508 759 m 2,0,-1
 442 759 l 2,1,2
 422 759 422 759 387 789 c 2,3,-1
 270 891 l 1,4,5
 264 900 264 900 265 919 c 128,-1,6
 266 938 266 938 277.20212766 950.861702128 c 128,-1,7
 288.404255319 963.723404255 288.404255319 963.723404255 296.638297872 963.723404255 c 128,-1,8
 304.872340426 963.723404255 304.872340426 963.723404255 311 961 c 2,9,-1
 475 887 l 1,10,-1
 639 961 l 2,11,12
 645.127659574 963.723404255 645.127659574 963.723404255 653.361702128 963.723404255 c 128,-1,13
 661.595744681 963.723404255 661.595744681 963.723404255 672.79787234 950.861702128 c 128,-1,14
 684 938 684 938 685 919 c 128,-1,15
 686 900 686 900 680 891 c 1,16,-1
 563 789 l 2,17,18
 528 759 528 759 508 759 c 2,0,-1
480 491 m 2,19,-1
 482 306 l 2,20,21
 482 287 482 287 503 287 c 0,22,23
 565 287 565 287 600.5 321.5 c 128,-1,24
 636 356 636 356 636 403 c 128,-1,25
 636 450 636 450 602.5 484 c 128,-1,26
 569 518 569 518 504 518 c 0,27,28
 480 518 480 518 480 491 c 2,19,-1
742 192 m 1,29,30
 761 172 761 172 877 41 c 0,31,32
 884.333333333 32.3333333333 884.333333333 32.3333333333 884.333333333 25.3333333333 c 0,33,34
 884.333333333 -1 884.333333333 -1 861 -1 c 0,35,36
 807.5 -2 807.5 -2 754.25 -2 c 128,-1,37
 701 -2 701 -2 648 -1 c 0,38,39
 619 -1 619 -1 595 22 c 1,40,-1
 509 152 l 2,41,42
 504 158 504 158 497 160.5 c 0,43,44
 481 166.214285714 481 166.214285714 481 147 c 2,45,-1
 481 45 l 2,46,47
 481 2 481 2 424.5 -1 c 128,-1,48
 368 -4 368 -4 301 -4 c 128,-1,49
 234 -4 234 -4 139 1 c 0,50,51
 110 3 110 3 92.5 21 c 128,-1,52
 75 39 75 39 72 62 c 0,53,54
 64 150 64 150 64 338.5 c 128,-1,55
 64 527 64 527 70 613 c 128,-1,56
 76 699 76 699 157 700 c 0,57,58
 233 701 233 701 364 701 c 128,-1,59
 495 701 495 701 581 699 c 0,60,61
 705 697 705 697 784 607 c 128,-1,62
 863 517 863 517 863 404 c 0,63,64
 863 338 863 338 832.5 282 c 128,-1,65
 802 226 802 226 742 192 c 1,29,30
EndSplineSet
EndChar

StartChar: Rcommaaccent
Encoding: 342 342 61
Width: 915
Flags: HMW
HStem: -215 180<390.5 563> 518 181 681 20G<316.5 382>
VStem: 628 227<374 431.5>
LayerCount: 2
Fore
SplineSet
472 491 m 2,0,-1
 474 306 l 2,1,2
 474 287 474 287 495 287 c 0,3,4
 557 287 557 287 592.5 321.5 c 128,-1,5
 628 356 628 356 628 403 c 128,-1,6
 628 450 628 450 594.5 484 c 128,-1,7
 561 518 561 518 496 518 c 0,8,9
 472 518 472 518 472 491 c 2,0,-1
734 192 m 1,10,11
 753 172 753 172 869 41 c 0,12,13
 876.333333333 32.3333333333 876.333333333 32.3333333333 876.333333333 25.3333333333 c 0,14,15
 876.333333333 -1 876.333333333 -1 853 -1 c 0,16,17
 799.5 -2 799.5 -2 746.25 -2 c 128,-1,18
 693 -2 693 -2 640 -1 c 0,19,20
 611 -1 611 -1 587 22 c 1,21,-1
 501 152 l 2,22,23
 496 158 496 158 489 160.5 c 0,24,25
 473 166.214285714 473 166.214285714 473 147 c 2,26,-1
 473 45 l 2,27,28
 473 2 473 2 416.5 -1 c 128,-1,29
 360 -4 360 -4 293 -4 c 128,-1,30
 226 -4 226 -4 131 1 c 0,31,32
 102 3 102 3 84.5 21 c 128,-1,33
 67 39 67 39 64 62 c 0,34,35
 56 150 56 150 56 338.5 c 128,-1,36
 56 527 56 527 62 613 c 128,-1,37
 68 699 68 699 149 700 c 0,38,39
 225 701 225 701 356 701 c 128,-1,40
 487 701 487 701 573 699 c 0,41,42
 697 697 697 697 776 607 c 128,-1,43
 855 517 855 517 855 404 c 0,44,45
 855 338 855 338 824.5 282 c 128,-1,46
 794 226 794 226 734 192 c 1,10,11
375.5 -199 m 128,-1,48
 364 -183 364 -183 364 -171 c 128,-1,49
 364 -159 364 -159 375 -155 c 0,50,51
 439.755102041 -132.846938776 439.755102041 -132.846938776 449 -82 c 0,52,53
 453 -60 453 -60 457 -54 c 0,54,55
 470 -35 470 -35 514 -35 c 2,56,-1
 563 -35 l 2,57,58
 606 -35 606 -35 606 -73 c 0,59,60
 606 -101 606 -101 581.5 -134 c 128,-1,61
 557 -167 557 -167 499 -191 c 128,-1,62
 441 -215 441 -215 397 -215 c 0,63,47
 387 -215 387 -215 375.5 -199 c 128,-1,48
EndSplineSet
EndChar

StartChar: Scaron
Encoding: 352 352 62
Width: 809
Flags: HMW
HStem: -20 201<226 465.5> 510 213<304 681.5> 541 182<304 578.5> 723 36<352.5 361 361 427>
VStem: 307 181
LayerCount: 2
Fore
SplineSet
209.5 -1 m 128,-1,1
 135 18 135 18 104.5 37 c 128,-1,2
 74 56 74 56 64 64 c 0,3,4
 38 84.8 38 84.8 38 122 c 0,5,6
 38 151.2 38 151.2 45 177.1 c 0,7,8
 58.2162162162 226 58.2162162162 226 92 226 c 1,9,10
 103 225 103 225 162.5 203 c 128,-1,11
 222 181 222 181 256 181 c 0,12,13
 307 181 307 181 307 221 c 0,14,15
 307 245 307 245 282 265.5 c 128,-1,16
 257 286 257 286 221.5 305 c 128,-1,17
 186 324 186 324 150 348.5 c 128,-1,18
 114 373 114 373 89 416.5 c 128,-1,19
 64 460 64 460 64 518 c 0,20,21
 64 614 64 614 158 668.5 c 128,-1,22
 252 723 252 723 401 723 c 128,-1,23
 550 723 550 723 637.5 692.5 c 128,-1,24
 725 662 725 662 725 608 c 0,25,26
 725 569 725 569 707 539.5 c 128,-1,27
 689 510 689 510 669 510 c 0,28,29
 662 510 662 510 622.5 525.5 c 128,-1,30
 583 541 583 541 551 541 c 0,31,32
 488 541 488 541 488 492 c 0,33,34
 488 468 488 468 518 448 c 128,-1,35
 548 428 548 428 590.5 409.5 c 128,-1,36
 633 391 633 391 676 368 c 128,-1,37
 719 345 719 345 749 305 c 128,-1,38
 779 265 779 265 779 208 c 128,-1,39
 779 151 779 151 742.5 104 c 128,-1,40
 706 57 706 57 645.5 31 c 0,41,42
 526.826923077 -20 526.826923077 -20 370 -20 c 0,43,0
 284 -20 284 -20 209.5 -1 c 128,-1,1
427 759 m 2,44,-1
 361 759 l 2,45,46
 341 759 341 759 306 789 c 2,47,-1
 189 891 l 1,48,49
 183.857142857 898.714285714 183.857142857 898.714285714 183.857142857 907.5 c 0,50,51
 183.857142857 936.687830688 183.857142857 936.687830688 195.630699088 950.205617472 c 128,-1,52
 207.404255319 963.723404255 207.404255319 963.723404255 215.638297872 963.723404255 c 128,-1,53
 223.872340426 963.723404255 223.872340426 963.723404255 230 961 c 2,54,-1
 394 887 l 1,55,-1
 558 961 l 2,56,57
 564.127659574 963.723404255 564.127659574 963.723404255 572.361702128 963.723404255 c 128,-1,58
 580.595744681 963.723404255 580.595744681 963.723404255 591.79787234 950.861702128 c 128,-1,59
 603 938 603 938 603.571428571 927.142857143 c 128,-1,60
 604.142857143 916.285714286 604.142857143 916.285714286 604.142857143 907.5 c 128,-1,61
 604.142857143 898.714285714 604.142857143 898.714285714 599 891 c 1,62,-1
 482 789 l 2,63,64
 447 759 447 759 427 759 c 2,44,-1
EndSplineSet
EndChar

StartChar: Ugrave
Encoding: 217 217 63
Width: 885
Flags: HMW
HStem: -20 243<511.5 554.5 511.5 556> 700 58<327.5 338 338 378 378 406.5>
VStem: 619 224
LayerCount: 2
Fore
SplineSet
447.5 594.75 m 2,0,-1
 446 504 l 1,1,-1
 446 311 l 2,2,3
 446 269 446 269 472 246 c 128,-1,4
 498 223 498 223 533 223 c 128,-1,5
 568 223 568 223 593.5 246 c 128,-1,6
 619 269 619 269 619 311 c 2,7,-1
 619 609 l 2,8,9
 619 656 619 656 631.5 678 c 128,-1,10
 644 700 644 700 686 700 c 2,11,-1
 778 700 l 2,12,13
 810 700 810 700 822.5 681 c 0,14,15
 845 646.8 845 646.8 845 418 c 0,16,17
 845 343 845 343 843 303 c 0,18,19
 840 222 840 222 805.5 158.5 c 128,-1,20
 771 95 771 95 717 57 c 0,21,22
 607.578947368 -20 607.578947368 -20 470 -20 c 0,23,24
 287.604651163 -20 287.604651163 -20 169 65 c 0,25,26
 109 108 109 108 74.5 179.5 c 128,-1,27
 40 251 40 251 39 346 c 0,28,29
 38 393 38 393 38 484.5 c 128,-1,30
 38 576 38 576 40.5 616.5 c 128,-1,31
 43 657 43 657 56.5 678.5 c 128,-1,32
 70 700 70 700 111 700 c 2,33,-1
 378 700 l 2,34,35
 418 700 418 700 431 679 c 0,36,37
 447.5 652.346153846 447.5 652.346153846 447.5 594.75 c 2,0,-1
609 758 m 2,38,-1
 338 758 l 2,39,40
 290.976190476 758 290.976190476 758 290.976190476 786.705782313 c 0,41,42
 290.976190476 801.976190476 290.976190476 801.976190476 331 883 c 0,43,44
 342.666666667 904.777777778 342.666666667 904.777777778 364.012345679 904.777777778 c 0,45,46
 387.6 904.777777778 387.6 904.777777778 454.8 879.888888889 c 128,-1,47
 522 855 522 855 563.5 839 c 128,-1,48
 605 823 605 823 619.5 817.5 c 128,-1,49
 634 812 634 812 634 785 c 128,-1,50
 634 758 634 758 609 758 c 2,38,-1
EndSplineSet
EndChar

StartChar: Ucircumflex
Encoding: 219 219 64
Width: 885
Flags: HMW
HStem: -20 243<511.5 554.5 511.5 556> 922 20G<499 565 565 573.5>
VStem: 619 224
LayerCount: 2
Fore
SplineSet
447.5 594.75 m 2,0,-1
 446 504 l 1,1,-1
 446 311 l 2,2,3
 446 269 446 269 472 246 c 128,-1,4
 498 223 498 223 533 223 c 128,-1,5
 568 223 568 223 593.5 246 c 128,-1,6
 619 269 619 269 619 311 c 2,7,-1
 619 609 l 2,8,9
 619 656 619 656 631.5 678 c 128,-1,10
 644 700 644 700 686 700 c 2,11,-1
 778 700 l 2,12,13
 810 700 810 700 822.5 681 c 0,14,15
 845 646.8 845 646.8 845 418 c 0,16,17
 845 343 845 343 843 303 c 0,18,19
 840 222 840 222 805.5 158.5 c 128,-1,20
 771 95 771 95 717 57 c 0,21,22
 607.578947368 -20 607.578947368 -20 470 -20 c 0,23,24
 287.604651163 -20 287.604651163 -20 169 65 c 0,25,26
 109 108 109 108 74.5 179.5 c 128,-1,27
 40 251 40 251 39 346 c 0,28,29
 38 393 38 393 38 484.5 c 128,-1,30
 38 576 38 576 40.5 616.5 c 128,-1,31
 43 657 43 657 56.5 678.5 c 128,-1,32
 70 700 70 700 111 700 c 2,33,-1
 378 700 l 2,34,35
 418 700 418 700 431 679 c 0,36,37
 447.5 652.346153846 447.5 652.346153846 447.5 594.75 c 2,0,-1
499 942 m 2,38,-1
 565 942 l 2,39,40
 585 942 585 942 620 912 c 2,41,-1
 737 810 l 1,42,43
 742.142857143 802.285714286 742.142857143 802.285714286 742.142857143 793.5 c 0,44,45
 742.142857143 764.312169312 742.142857143 764.312169312 730.369300912 750.794382528 c 128,-1,46
 718.595744681 737.276595745 718.595744681 737.276595745 710.361702128 737.276595745 c 128,-1,47
 702.127659574 737.276595745 702.127659574 737.276595745 696 740 c 2,48,-1
 532 814 l 1,49,-1
 368 740 l 2,50,51
 361.872340426 737.276595745 361.872340426 737.276595745 353.638297872 737.276595745 c 128,-1,52
 345.404255319 737.276595745 345.404255319 737.276595745 334.20212766 750.138297872 c 128,-1,53
 323 763 323 763 322.428571429 773.857142857 c 128,-1,54
 321.857142857 784.714285714 321.857142857 784.714285714 321.857142857 793.5 c 128,-1,55
 321.857142857 802.285714286 321.857142857 802.285714286 327 810 c 1,56,-1
 444 912 l 2,57,58
 479 942 479 942 499 942 c 2,38,-1
EndSplineSet
EndChar

StartChar: Uacute
Encoding: 218 218 65
Width: 885
Flags: HMW
HStem: -20 243<511.5 554.5 511.5 556> 700 58<111 408 401.5 406.5>
VStem: 619 224
LayerCount: 2
Fore
SplineSet
447.5 594.75 m 2,0,-1
 446 504 l 1,1,-1
 446 311 l 2,2,3
 446 269 446 269 472 246 c 128,-1,4
 498 223 498 223 533 223 c 128,-1,5
 568 223 568 223 593.5 246 c 128,-1,6
 619 269 619 269 619 311 c 2,7,-1
 619 609 l 2,8,9
 619 656 619 656 631.5 678 c 128,-1,10
 644 700 644 700 686 700 c 2,11,-1
 778 700 l 2,12,13
 810 700 810 700 822.5 681 c 0,14,15
 845 646.8 845 646.8 845 418 c 0,16,17
 845 343 845 343 843 303 c 0,18,19
 840 222 840 222 805.5 158.5 c 128,-1,20
 771 95 771 95 717 57 c 0,21,22
 607.578947368 -20 607.578947368 -20 470 -20 c 0,23,24
 287.604651163 -20 287.604651163 -20 169 65 c 0,25,26
 109 108 109 108 74.5 179.5 c 128,-1,27
 40 251 40 251 39 346 c 0,28,29
 38 393 38 393 38 484.5 c 128,-1,30
 38 576 38 576 40.5 616.5 c 128,-1,31
 43 657 43 657 56.5 678.5 c 128,-1,32
 70 700 70 700 111 700 c 2,33,-1
 378 700 l 2,34,35
 418 700 418 700 431 679 c 0,36,37
 447.5 652.346153846 447.5 652.346153846 447.5 594.75 c 2,0,-1
679 758 m 2,38,-1
 408 758 l 2,39,40
 383 758 383 758 383 785 c 128,-1,41
 383 812 383 812 397.5 817.5 c 128,-1,42
 412 823 412 823 453.5 839 c 128,-1,43
 495 855 495 855 522 865 c 0,44,45
 629.4 904.777777778 629.4 904.777777778 651.866666667 904.777777778 c 128,-1,46
 674.333333333 904.777777778 674.333333333 904.777777778 686 883 c 0,47,48
 726.023809524 801.976190476 726.023809524 801.976190476 726.023809524 786.705782313 c 0,49,50
 726.023809524 758 726.023809524 758 679 758 c 2,38,-1
EndSplineSet
EndChar

StartChar: Udieresis
Encoding: 220 220 66
Width: 885
Flags: HMW
HStem: -20 243<511.5 554.5 511.5 556> 743 174<370.5 426.5 636.5 692.5>
VStem: 297 199<811.5 850> 563 199<811.5 850> 619 224
LayerCount: 2
Fore
SplineSet
447.5 594.75 m 2,0,-1
 446 504 l 1,1,-1
 446 311 l 2,2,3
 446 269 446 269 472 246 c 128,-1,4
 498 223 498 223 533 223 c 128,-1,5
 568 223 568 223 593.5 246 c 128,-1,6
 619 269 619 269 619 311 c 2,7,-1
 619 609 l 2,8,9
 619 656 619 656 631.5 678 c 128,-1,10
 644 700 644 700 686 700 c 2,11,-1
 778 700 l 2,12,13
 810 700 810 700 822.5 681 c 0,14,15
 845 646.8 845 646.8 845 418 c 0,16,17
 845 343 845 343 843 303 c 0,18,19
 840 222 840 222 805.5 158.5 c 128,-1,20
 771 95 771 95 717 57 c 0,21,22
 607.578947368 -20 607.578947368 -20 470 -20 c 0,23,24
 287.604651163 -20 287.604651163 -20 169 65 c 0,25,26
 109 108 109 108 74.5 179.5 c 128,-1,27
 40 251 40 251 39 346 c 0,28,29
 38 393 38 393 38 484.5 c 128,-1,30
 38 576 38 576 40.5 616.5 c 128,-1,31
 43 657 43 657 56.5 678.5 c 128,-1,32
 70 700 70 700 111 700 c 2,33,-1
 378 700 l 2,34,35
 418 700 418 700 431 679 c 0,36,37
 447.5 652.346153846 447.5 652.346153846 447.5 594.75 c 2,0,-1
326 890.5 m 128,-1,39
 355 917 355 917 402.5 917 c 128,-1,40
 450 917 450 917 473 891.5 c 128,-1,41
 496 866 496 866 496 832 c 128,-1,42
 496 798 496 798 468 770.5 c 128,-1,43
 440 743 440 743 398 743 c 128,-1,44
 356 743 356 743 326.5 766 c 128,-1,45
 297 789 297 789 297 826.5 c 128,-1,38
 297 864 297 864 326 890.5 c 128,-1,39
592 890.5 m 128,-1,47
 621 917 621 917 668.5 917 c 128,-1,48
 716 917 716 917 739 891.5 c 128,-1,49
 762 866 762 866 762 832 c 128,-1,50
 762 798 762 798 734 770.5 c 128,-1,51
 706 743 706 743 664 743 c 128,-1,52
 622 743 622 743 592.5 766 c 128,-1,53
 563 789 563 789 563 826.5 c 128,-1,46
 563 864 563 864 592 890.5 c 128,-1,47
EndSplineSet
EndChar

StartChar: Yacute
Encoding: 221 221 67
Width: 955
Flags: HMW
HStem: -4 21G<444.5 489.5> 699 58
LayerCount: 2
Fore
SplineSet
887 700 m 2,0,1
 906.571428571 700 906.571428571 700 906.571428571 680 c 0,2,3
 906.571428571 666.535714286 906.571428571 666.535714286 896 652 c 1,4,-1
 672 297 l 1,5,6
 672 216 672 216 667 61 c 0,7,8
 666 39 666 39 648 20.5 c 128,-1,9
 630 2 630 2 600 0 c 0,10,11
 543 -4 543 -4 463 -4 c 128,-1,12
 383 -4 383 -4 316 0 c 0,13,14
 286 2 286 2 268 20.5 c 128,-1,15
 250 39 250 39 249 61 c 0,16,17
 247 162 247 162 247 271 c 1,18,-1
 45 610 l 1,19,20
 30.1076923077 633.015384615 30.1076923077 633.015384615 30.1076923077 647.646153846 c 0,21,22
 30.1076923077 698 30.1076923077 698 79 698 c 2,23,-1
 421 700 l 2,24,25
 450 700 450 700 464.5 691 c 128,-1,26
 479 682 479 682 499 654 c 1,27,-1
 560 523 l 1,28,29
 576 501 576 501 586.5 501 c 128,-1,30
 597 501 597 501 612 519 c 1,31,-1
 714 679 l 1,32,33
 731 700 731 700 757 700 c 2,34,-1
 887 700 l 2,0,1
711 757 m 2,35,-1
 440 757 l 2,36,37
 415 757 415 757 415 784 c 128,-1,38
 415 811 415 811 429.5 816.5 c 128,-1,39
 444 822 444 822 485.5 838 c 128,-1,40
 527 854 527 854 554 864 c 0,41,42
 661.4 903.777777778 661.4 903.777777778 683.866666667 903.777777778 c 128,-1,43
 706.333333333 903.777777778 706.333333333 903.777777778 718 882 c 0,44,45
 758.023809524 800.976190476 758.023809524 800.976190476 758.023809524 785.705782313 c 0,46,47
 758.023809524 757 758.023809524 757 711 757 c 2,35,-1
EndSplineSet
EndChar

StartChar: Ydieresis
Encoding: 376 376 68
Width: 955
Flags: HMW
HStem: -4 21G<444.5 489.5> 743 174<426.5 482.5 692.5 748.5>
VStem: 353 199<811.5 850> 619 199<811.5 850>
LayerCount: 2
Fore
SplineSet
887 700 m 2,0,1
 906.571428571 700 906.571428571 700 906.571428571 680 c 0,2,3
 906.571428571 666.535714286 906.571428571 666.535714286 896 652 c 1,4,-1
 672 297 l 1,5,6
 672 216 672 216 667 61 c 0,7,8
 666 39 666 39 648 20.5 c 128,-1,9
 630 2 630 2 600 0 c 0,10,11
 543 -4 543 -4 463 -4 c 128,-1,12
 383 -4 383 -4 316 0 c 0,13,14
 286 2 286 2 268 20.5 c 128,-1,15
 250 39 250 39 249 61 c 0,16,17
 247 162 247 162 247 271 c 1,18,-1
 45 610 l 1,19,20
 30.1076923077 633.015384615 30.1076923077 633.015384615 30.1076923077 647.646153846 c 0,21,22
 30.1076923077 698 30.1076923077 698 79 698 c 2,23,-1
 421 700 l 2,24,25
 450 700 450 700 464.5 691 c 128,-1,26
 479 682 479 682 499 654 c 1,27,-1
 560 523 l 1,28,29
 576 501 576 501 586.5 501 c 128,-1,30
 597 501 597 501 612 519 c 1,31,-1
 714 679 l 1,32,33
 731 700 731 700 757 700 c 2,34,-1
 887 700 l 2,0,1
382 890.5 m 128,-1,36
 411 917 411 917 458.5 917 c 128,-1,37
 506 917 506 917 529 891.5 c 128,-1,38
 552 866 552 866 552 832 c 128,-1,39
 552 798 552 798 524 770.5 c 128,-1,40
 496 743 496 743 454 743 c 128,-1,41
 412 743 412 743 382.5 766 c 128,-1,42
 353 789 353 789 353 826.5 c 128,-1,35
 353 864 353 864 382 890.5 c 128,-1,36
648 890.5 m 128,-1,44
 677 917 677 917 724.5 917 c 128,-1,45
 772 917 772 917 795 891.5 c 128,-1,46
 818 866 818 866 818 832 c 128,-1,47
 818 798 818 798 790 770.5 c 128,-1,48
 762 743 762 743 720 743 c 128,-1,49
 678 743 678 743 648.5 766 c 128,-1,50
 619 789 619 789 619 826.5 c 128,-1,43
 619 864 619 864 648 890.5 c 128,-1,44
EndSplineSet
EndChar

StartChar: Zcaron
Encoding: 381 381 69
Width: 844
Flags: HMW
HStem: -4 161<393.5 767> 547 156
LayerCount: 2
Fore
SplineSet
75 577 m 2,0,-1
 75 651 l 2,1,2
 75 677 75 677 87.5 687.5 c 128,-1,3
 100 698 100 698 154.5 699.5 c 128,-1,4
 209 701 209 701 319 702 c 128,-1,5
 429 703 429 703 562 703 c 2,6,7
 742 703 l 2,8,9
 766 703 766 703 786.5 690 c 128,-1,10
 807 677 807 677 807 657 c 2,11,-1
 807 575 l 2,12,13
 807 559 807 559 802.5 550 c 2,14,15
 796.5 538 l 2,16,17
 795 535 795 535 789 526 c 2,18,-1
 781 514 l 1,19,20
 688 367 688 367 566 197 c 0,21,22
 554 180 554 180 557.5 168.5 c 128,-1,23
 561 157 561 157 576 157 c 2,24,-1
 767 157 l 2,25,26
 788 157 788 157 799.5 142.5 c 128,-1,27
 811 128 811 128 811 111 c 2,28,-1
 811 53 l 2,29,30
 811 1 811 1 767 -1 c 0,31,32
 636 -4 636 -4 443 -4 c 128,-1,33
 250 -4 250 -4 135 0 c 0,34,35
 84 2 84 2 60.5 13.5 c 128,-1,36
 37 25 37 25 37 58 c 2,37,-1
 37 135 l 2,38,39
 37 168 37 168 57 201 c 0,40,41
 161 366 161 366 274 516 c 0,42,43
 283 529 283 529 277 538 c 128,-1,44
 271 547 271 547 254 547 c 2,45,-1
 122 547 l 2,46,47
 102 547 102 547 88.5 555.5 c 128,-1,48
 75 564 75 564 75 577 c 2,0,-1
488 759 m 2,49,-1
 422 759 l 2,50,51
 402 759 402 759 367 789 c 2,52,-1
 250 891 l 1,53,54
 244.857142857 898.714285714 244.857142857 898.714285714 244.857142857 907.5 c 0,55,56
 244.857142857 936.687830688 244.857142857 936.687830688 256.630699088 950.205617472 c 128,-1,57
 268.404255319 963.723404255 268.404255319 963.723404255 276.638297872 963.723404255 c 128,-1,58
 284.872340426 963.723404255 284.872340426 963.723404255 291 961 c 2,59,-1
 455 887 l 1,60,-1
 619 961 l 2,61,62
 625.127659574 963.723404255 625.127659574 963.723404255 633.361702128 963.723404255 c 128,-1,63
 641.595744681 963.723404255 641.595744681 963.723404255 652.79787234 950.861702128 c 128,-1,64
 664 938 664 938 664.571428571 927.142857143 c 128,-1,65
 665.142857143 916.285714286 665.142857143 916.285714286 665.142857143 907.5 c 128,-1,66
 665.142857143 898.714285714 665.142857143 898.714285714 660 891 c 1,67,-1
 543 789 l 2,68,69
 508 759 508 759 488 759 c 2,49,-1
EndSplineSet
EndChar

StartChar: ampersand
Encoding: 38 38 70
Width: 1022
Flags: HMW
HStem: -23 156<279 542> 280 176<522 533.5> 545 179<367 700.5> 566 158<367 575>
LayerCount: 2
Fore
SplineSet
570 263 m 0,0,1
 570 280 570 280 529 280 c 128,-1,2
 488 280 488 280 467 257 c 128,-1,3
 446 234 446 234 446 205 c 128,-1,4
 446 176 446 176 471.5 154.5 c 128,-1,5
 497 133 497 133 537 133 c 0,6,7
 550 133 550 133 561.5 137 c 128,-1,8
 573 141 573 141 573 160 c 0,9,10
 570 238 570 238 570 263 c 0,0,1
949 104 m 1,11,-1
 952 45 l 1,12,13
 952 -0.837837837838 952 -0.837837837838 914.5 -13 c 0,14,15
 883.666666667 -23 883.666666667 -23 839 -23 c 0,16,17
 710 -23 710 -23 648 31 c 1,18,19
 521 -23 521 -23 355 -23 c 0,20,21
 235.130434783 -23 235.130434783 -23 151 22 c 0,22,23
 108 45 108 45 84 86 c 128,-1,24
 60 127 60 127 60 183 c 0,25,26
 60 304 60 304 162 356 c 1,27,28
 88 405 88 405 88 506 c 0,29,30
 88 562 88 562 119.5 605 c 128,-1,31
 151 648 151 648 205 673.5 c 0,32,33
 311.941176471 724 311.941176471 724 450.470588235 724 c 128,-1,34
 589 724 589 724 688 691 c 0,35,36
 738 675 738 675 738 616 c 0,37,38
 738 583 738 583 724.5 564 c 128,-1,39
 711 545 711 545 681.5 545 c 128,-1,40
 652 545 652 545 613.5 555.5 c 128,-1,41
 575 566 575 566 543 566 c 128,-1,42
 511 566 511 566 480.5 547.5 c 128,-1,43
 450 529 450 529 450 489.75 c 128,-1,44
 450 450.5 450 450.5 470.25 450.5 c 0,45,46
 472.5 450.5 472.5 450.5 489.75 453.25 c 128,-1,47
 507 456 507 456 543.5 456 c 128,-1,48
 580 456 580 456 666 443 c 128,-1,49
 752 430 752 430 784 430 c 128,-1,50
 816 430 816 430 854.5 442 c 128,-1,51
 893 454 893 454 906 454 c 0,52,53
 947 454 947 454 947 375 c 0,54,55
 947 328.153846154 947 328.153846154 910.5 308.5 c 0,56,57
 883.880952381 294.166666667 883.880952381 294.166666667 844 283 c 1,58,-1
 844 190 l 2,59,60
 844 157 844 157 861.5 146 c 128,-1,61
 879 135 879 135 909 135 c 0,62,63
 949 135 949 135 949 104 c 1,11,-1
EndSplineSet
EndChar

StartChar: a
Encoding: 97 97 71
Width: 803
Flags: HMW
HStem: -16 21G<181.5 264> 241 74<233.5 380.5> 401 124<354.5 358.5>
LayerCount: 2
Fore
SplineSet
412 525 m 0,0,1
 738 525 738 525 741 313 c 0,2,3
 743 223 743 223 743 148 c 128,-1,4
 743 73 743 73 742 47 c 128,-1,5
 741 21 741 21 728.5 9.5 c 128,-1,6
 716 -2 716 -2 680 -2 c 2,7,-1
 468 -2 l 2,8,9
 436 -2 436 -2 424 9.5 c 128,-1,10
 412 21 412 21 411 44 c 0,11,12
 411 45 411 45 410.5 47.5 c 128,-1,13
 410 50 410 50 410 52 c 1,14,15
 344 -16 344 -16 230 -16 c 0,16,17
 151 -16 151 -16 95.5 23.5 c 128,-1,18
 40 63 40 63 40 132.5 c 128,-1,19
 40 202 40 202 79.5 243.5 c 128,-1,20
 119 285 119 285 173.5 300 c 128,-1,21
 228 315 228 315 290.5 315 c 128,-1,22
 353 315 353 315 413 303 c 1,23,-1
 413 307 l 2,24,25
 413 357 413 357 393.5 379 c 128,-1,26
 374 401 374 401 330.5 401 c 128,-1,27
 287 401 287 401 258 393.5 c 128,-1,28
 229 386 229 386 214 377.5 c 0,29,30
 172.529411765 354 172.529411765 354 156.764705882 354 c 128,-1,31
 141 354 141 354 128.5 369 c 128,-1,32
 116 384 116 384 116 415.5 c 128,-1,33
 116 447 116 447 127.5 459 c 128,-1,34
 139 471 139 471 164 483 c 0,35,36
 251 525 251 525 412 525 c 0,0,1
365 116 m 0,37,38
 409 116 409 116 410 133 c 0,39,40
 412 166 412 166 412 220 c 0,41,42
 412 241 412 241 380 241 c 128,-1,43
 348 241 348 241 328 225.5 c 128,-1,44
 308 210 308 210 308 180 c 128,-1,45
 308 150 308 150 324.5 133 c 128,-1,46
 341 116 341 116 365 116 c 0,37,38
EndSplineSet
EndChar

StartChar: b
Encoding: 98 98 72
Width: 812
Flags: HMW
HStem: -20 20G<106.5 143.5> -13 165<424 612.5> 347 175<424 617.5> 711 20G<120 312 312 336>
LayerCount: 2
Fore
SplineSet
438 152 m 0,0,1
 497 152 497 152 497 249.5 c 128,-1,2
 497 347 497 347 438 347 c 0,3,4
 415 347 415 347 396.5 331.5 c 128,-1,5
 378 316 378 316 378 288 c 2,6,-1
 378 211 l 2,7,8
 378 183 378 183 396.5 167.5 c 128,-1,9
 415 152 415 152 438 152 c 0,0,1
62 47 m 2,10,-1
 60 374 l 2,11,12
 60 524 60 524 63 666 c 0,13,14
 64 699 64 699 75.5 715 c 128,-1,15
 87 731 87 731 120 731 c 2,16,-1
 312 731 l 2,17,18
 345 731 345 731 356.5 715.5 c 128,-1,19
 368 700 368 700 371.5 648 c 128,-1,20
 375 596 375 596 375 464 c 0,21,22
 375 458 375 458 378 454.5 c 128,-1,23
 381 451 381 451 387 456 c 0,24,25
 457 522 457 522 556.5 522 c 128,-1,26
 656 522 656 522 718.507751938 458.484058515 c 128,-1,27
 781.015503876 394.968117029 781.015503876 394.968117029 781.015503876 252.50343836 c 128,-1,28
 781.015503876 110.03875969 781.015503876 110.03875969 718.007751938 48.519379845 c 128,-1,29
 655 -13 655 -13 553 -13 c 0,30,31
 403 -13 403 -13 363 56 c 1,32,33
 362 30 362 30 344 16 c 128,-1,34
 326 2 326 2 304 0 c 128,-1,35
 282 -2 282 -2 224 -2 c 1,36,-1
 118 0 l 2,37,38
 99 0 99 0 80.5 13.5 c 128,-1,39
 62 27 62 27 62 47 c 2,10,-1
EndSplineSet
EndChar

StartChar: c
Encoding: 99 99 73
Width: 676
Flags: HMW
HStem: -23 168<320 519.5> -23 188<320 624> 342 176<332.5 614.5> 365 153<446.5 457 332.5 505>
LayerCount: 2
Fore
SplineSet
480 365 m 0,0,1
 433 365 433 365 410 334 c 128,-1,2
 387 303 387 303 387 257 c 128,-1,3
 387 211 387 211 414 178 c 128,-1,4
 441 145 441 145 501 145 c 0,5,6
 520 145 520 145 557 155 c 128,-1,7
 594 165 594 165 609 165 c 0,8,9
 644 165 644 165 646 98 c 0,10,11
 646 69 646 69 642.5 44 c 128,-1,12
 639 19 639 19 605 8 c 0,13,14
 505 -23 505 -23 428.5 -23 c 128,-1,15
 352 -23 352 -23 303.5 -17.5 c 128,-1,16
 255 -12 255 -12 205.5 5 c 128,-1,17
 156 22 156 22 123.5 50 c 128,-1,18
 91 78 91 78 70.5 125.5 c 128,-1,19
 50 173 50 173 50 245.5 c 128,-1,20
 50 318 50 318 81.5 375 c 128,-1,21
 113 432 113 432 168.5 462 c 0,22,23
 272.1 518 272.1 518 428 518 c 0,24,25
 512 518 512 518 599 491 c 0,26,27
 636 479 636 479 636 410.5 c 128,-1,28
 636 342 636 342 601 342 c 0,29,30
 586 342 586 342 546.5 353.5 c 128,-1,31
 507 365 507 365 480 365 c 0,0,1
EndSplineSet
EndChar

StartChar: d
Encoding: 100 100 74
Width: 826
Flags: HMW
HStem: -22 183<208 402> -20 20G<602 632.5> 356 169<241.5 402> 711 20G<524 716 716 739.5>
LayerCount: 2
Fore
SplineSet
388 356 m 0,0,1
 329 356 329 356 329 258.5 c 128,-1,2
 329 161 329 161 388 161 c 0,3,4
 411 161 411 161 429.5 176.5 c 128,-1,5
 448 192 448 192 448 220 c 2,6,-1
 448 297 l 2,7,8
 448 325 448 325 429.5 340.5 c 128,-1,9
 411 356 411 356 388 356 c 0,0,1
718 2 m 2,10,-1
 612 0 l 1,11,12
 554 0 554 0 534 2 c 0,13,14
 472 6 472 6 472 72 c 1,15,16
 435 30 435 30 376.5 4 c 128,-1,17
 318 -22 318 -22 269 -22 c 0,18,19
 169 -22 169 -22 104.5 44 c 128,-1,20
 40 110 40 110 40 248 c 0,21,22
 40 419.971428571 40 419.971428571 157 488.5 c 0,23,24
 219.317073171 525 219.317073171 525 302.158536585 525 c 128,-1,25
 385 525 385 525 443 488 c 0,26,27
 462 475 462 475 464.125 496.625 c 128,-1,28
 466.25 518.25 466.25 518.25 466.25 560.34375 c 2,29,-1
 465.5 642.875 l 2,30,31
 465.5 663 465.5 663 466.75 683.5 c 128,-1,32
 468 704 468 704 479 717.5 c 128,-1,33
 490 731 490 731 524 731 c 2,34,-1
 716 731 l 2,35,36
 749 731 749 731 760.5 715 c 128,-1,37
 772 699 772 699 773 666 c 0,38,39
 776 524 776 524 776 376 c 2,40,41
 774 49 l 2,42,43
 774 29 774 29 755.5 15.5 c 128,-1,44
 737 2 737 2 718 2 c 2,10,-1
EndSplineSet
EndChar

StartChar: e
Encoding: 101 101 75
Width: 742
Flags: HMW
HStem: -16 120<427 434.5> -16 169 211 93<404.5 555.5> 407 114<416 446>
VStem: 480 222<330.5 368>
LayerCount: 2
Fore
SplineSet
292.5 511 m 128,-1,1
 341 521 341 521 412.5 521 c 128,-1,2
 484 521 484 521 549 503.5 c 128,-1,3
 614 486 614 486 645.5 455.5 c 0,4,5
 702 400.793650794 702 400.793650794 702 327 c 0,6,7
 702 211 702 211 506 211 c 0,8,9
 437 211 437 211 363 224 c 1,10,11
 366 158 366 158 387.5 131 c 128,-1,12
 409 104 409 104 464 104 c 128,-1,13
 519 104 519 104 555 116 c 128,-1,14
 591 128 591 128 613 140.5 c 128,-1,15
 635 153 635 153 650.5 153 c 128,-1,16
 666 153 666 153 677 139 c 1,17,18
 694 121 694 121 694 89.5 c 128,-1,19
 694 58 694 58 681.5 46.5 c 128,-1,20
 669 35 669 35 642 24 c 0,21,22
 547 -16 547 -16 372 -16 c 0,23,24
 227 -16 227 -16 133.5 53.5 c 128,-1,25
 40 123 40 123 40 241 c 0,26,27
 40 298 40 298 61 345.5 c 128,-1,28
 82 393 82 393 117 424.5 c 128,-1,29
 152 456 152 456 198 478.5 c 128,-1,0
 244 501 244 501 292.5 511 c 128,-1,1
430 407 m 0,30,31
 369 407 369 407 364 308 c 1,32,33
 412 304 412 304 414 304 c 0,34,35
 480 304 480 304 480 348 c 0,36,37
 480 407 480 407 430 407 c 0,30,31
EndSplineSet
EndChar

StartChar: f
Encoding: 102 102 76
Width: 606
Flags: HMW
HStem: 0 21G<112 137 137 332> 350 122<43 62> 564 176<332 606.5> 587 153<450.5 452 332 506>
LayerCount: 2
Fore
SplineSet
502 349 m 2,0,-1
 409 349 l 2,1,2
 391 349 391 349 391 328 c 2,3,-1
 391 66 l 2,4,5
 391 32 391 32 379 16 c 128,-1,6
 367 0 367 0 332 0 c 2,7,-1
 137 0 l 2,8,9
 102 0 102 0 90.5 15.5 c 128,-1,10
 79 31 79 31 77 66 c 0,11,12
 73 151 73 151 73 316 c 0,13,14
 73 339 73 339 69 344.5 c 128,-1,15
 65 350 65 350 54 350 c 0,16,17
 20 350 20 350 20 411 c 0,18,19
 20 447 20 447 30 459 c 128,-1,20
 40 471 40 471 61 472 c 0,21,22
 67 472 67 472 72 477 c 128,-1,23
 77 482 77 482 77 488 c 2,24,-1
 77 509 l 2,25,26
 77 707 77 707 317 734.5 c 0,27,28
 365 740 365 740 437.5 740 c 128,-1,29
 510 740 510 740 591 713 c 0,30,31
 626 701 626 701 626 632.5 c 128,-1,32
 626 564 626 564 594 564 c 0,33,34
 580 564 580 564 544 575.5 c 128,-1,35
 508 587 508 587 483 587 c 0,36,37
 437 587 437 587 414 561.5 c 128,-1,38
 391 536 391 536 391 499 c 0,39,40
 391 472 391 472 413 472 c 2,41,-1
 503 472 l 2,42,43
 527 472 527 472 539 461 c 128,-1,44
 551 450 551 450 551 410.5 c 128,-1,45
 551 371 551 371 539.5 360 c 128,-1,46
 528 349 528 349 502 349 c 2,0,-1
EndSplineSet
EndChar

StartChar: g
Encoding: 103 103 77
Width: 826
Flags: HMW
HStem: -203 123<338 349 259 503.5> -203 173 0 183<206.5 401> 356 165<233 402>
LayerCount: 2
Fore
SplineSet
388 356 m 0,0,1
 329 356 329 356 329 269.5 c 128,-1,2
 329 183 329 183 386 183 c 0,3,4
 411 183 411 183 429.5 196.5 c 128,-1,5
 448 210 448 210 448 235 c 2,6,-1
 448 304 l 2,7,8
 448 328 448 328 429.5 342 c 128,-1,9
 411 356 411 356 388 356 c 0,0,1
764 461 m 2,10,-1
 766 154 l 2,11,12
 766 54 766 54 765 2 c 128,-1,13
 764 -50 764 -50 735 -92 c 128,-1,14
 706 -134 706 -134 655.5 -157.5 c 0,15,16
 557.723404255 -203 557.723404255 -203 394.861702128 -203 c 128,-1,17
 232 -203 232 -203 128 -159 c 0,18,19
 103 -148 103 -148 91.5 -135.5 c 128,-1,20
 80 -123 80 -123 80 -91.5 c 128,-1,21
 80 -60 80 -60 92.5 -45 c 128,-1,22
 105 -30 105 -30 122 -30 c 128,-1,23
 139 -30 139 -30 164.5 -42.5 c 0,24,25
 241 -80 241 -80 318 -80 c 0,26,27
 353 -80 353 -80 381 -72.5 c 128,-1,28
 409 -65 409 -65 430.5 -42 c 128,-1,29
 452 -19 452 -19 452 17 c 2,30,-1
 451 70 l 2,31,32
 451 80 451 80 445 80 c 0,33,34
 442 80 442 80 439 77 c 0,35,36
 359 0 359 0 263 0 c 128,-1,37
 167 0 167 0 102.5 61 c 128,-1,38
 38 122 38 122 38 254 c 128,-1,39
 38 386 38 386 114 453.5 c 128,-1,40
 190 521 190 521 300 521 c 128,-1,41
 410 521 410 521 463 452 c 1,42,43
 464 478 464 478 482 492 c 128,-1,44
 500 506 500 506 522 508 c 128,-1,45
 544 510 544 510 602 510 c 1,46,-1
 708 508 l 2,47,48
 727 508 727 508 745.5 494.5 c 128,-1,49
 764 481 764 481 764 461 c 2,10,-1
EndSplineSet
EndChar

StartChar: h
Encoding: 104 104 78
Width: 856
Flags: HMW
HStem: -20 20G<111.5 161.5 123 319> 347 175<429 640.5> 711 20G<125 317 317 341>
LayerCount: 2
Fore
SplineSet
67 47 m 2,0,-1
 65 374 l 2,1,2
 65 524 65 524 68 666 c 0,3,4
 69 699 69 699 80.5 715 c 128,-1,5
 92 731 92 731 125 731 c 2,6,-1
 317 731 l 2,7,8
 350 731 350 731 361.5 715.5 c 128,-1,9
 373 700 373 700 375.5 659.5 c 128,-1,10
 378 619 378 619 380 443 c 1,11,12
 458 522 458 522 567.5 522 c 128,-1,13
 677 522 677 522 740 468 c 128,-1,14
 803 414 803 414 804.5 319 c 128,-1,15
 806 224 806 224 806 149 c 128,-1,16
 806 74 806 74 805 48 c 128,-1,17
 804 22 804 22 791.5 10.5 c 128,-1,18
 779 -1 779 -1 743 -1 c 2,19,-1
 551 -3 l 2,20,21
 519 -3 519 -3 506.5 8.5 c 128,-1,22
 494 20 494 20 494 43 c 2,23,-1
 495 287 l 2,24,25
 495 317 495 317 480 332 c 128,-1,26
 465 347 465 347 442.5 347 c 128,-1,27
 420 347 420 347 402 331.5 c 128,-1,28
 384 316 384 316 383 288 c 2,29,-1
 377 47 l 2,30,31
 376 28 376 28 359 15 c 128,-1,32
 342 2 342 2 317.5 0 c 128,-1,33
 293 -2 293 -2 263 -2 c 2,34,-1
 123 0 l 2,35,36
 104 0 104 0 85.5 13.5 c 128,-1,37
 67 27 67 27 67 47 c 2,0,-1
EndSplineSet
EndChar

StartChar: i
Encoding: 105 105 79
Width: 443
Flags: HMW
HStem: -4 21G<214.5 238> 535 207<186 266>
LayerCount: 2
Fore
SplineSet
124 506 m 2,0,-1
 319 506 l 2,1,2
 353 506 353 506 364.5 491 c 128,-1,3
 376 476 376 476 379.5 424.5 c 0,4,5
 383 373 383 373 383 236.5 c 0,6,7
 383 100 383 100 377 44 c 1,8,9
 374 27 374 27 360 14 c 128,-1,10
 346 1 346 1 310.5 -1.5 c 0,11,12
 275 -4 275 -4 226 -4 c 128,-1,13
 177 -4 177 -4 137 -1.5 c 0,14,15
 97 1 97 1 83 14 c 128,-1,16
 69 27 69 27 67 44 c 0,17,18
 60 109 60 109 60 243.5 c 0,19,20
 60 378 60 378 64 427 c 0,21,22
 68 476 68 476 79 491 c 128,-1,23
 90 506 90 506 124 506 c 2,0,-1
232 742 m 0,24,25
 298 742 298 742 331.5 715.5 c 128,-1,26
 365 689 365 689 365 643 c 0,27,28
 365 535 365 535 221 535 c 0,29,30
 163 535 163 535 122 560 c 128,-1,31
 81 585 81 585 81 635 c 0,32,33
 81 742 81 742 232 742 c 0,24,25
EndSplineSet
EndChar

StartChar: j
Encoding: 106 106 80
Width: 456
Flags: HMW
HStem: -174 21G<-19.5 116> 535 207<199 279>
LayerCount: 2
Fore
SplineSet
396 252 m 1,0,-1
 392 59 l 1,1,2
 392 -78.5454545455 392 -78.5454545455 281 -129 c 0,3,4
 182 -174 182 -174 3 -174 c 0,5,6
 -29 -174 -29 -174 -39.5 -154.5 c 128,-1,7
 -50 -135 -50 -135 -50 -87.5 c 128,-1,8
 -50 -40 -50 -40 -13 -36 c 0,9,10
 79 -25 79 -25 79 62 c 2,11,-1
 78 440 l 2,12,13
 78 474 78 474 90 490 c 128,-1,14
 102 506 102 506 137 506 c 2,15,-1
 332 506 l 2,16,17
 367 506 367 506 378.5 490.5 c 128,-1,18
 390 475 390 475 392 440 c 0,19,20
 396 355 396 355 396 252 c 1,0,-1
245 742 m 0,21,22
 311 742 311 742 344.5 715.5 c 128,-1,23
 378 689 378 689 378 643 c 0,24,25
 378 535 378 535 234 535 c 0,26,27
 176 535 176 535 135 560 c 128,-1,28
 94 585 94 585 94 635 c 0,29,30
 94 742 94 742 245 742 c 0,21,22
EndSplineSet
EndChar

StartChar: k
Encoding: 107 107 81
Width: 851
Flags: HMW
HStem: -20 20G<526.5 547.5> -3 21G<214 246> 711 20G<125 317 317 341>
LayerCount: 2
Fore
SplineSet
646 -1 m 1,0,-1
 536 0 l 2,1,2
 498 0 498 0 483 23 c 2,3,-1
 390 171 l 1,4,5
 382 177 382 177 380.5 175.5 c 128,-1,6
 379 174 379 174 378.5 141.5 c 128,-1,7
 378 109 378 109 373 43 c 0,8,9
 371 27 371 27 357 14 c 128,-1,10
 343 1 343 1 309.5 -1 c 128,-1,11
 276 -3 276 -3 228.5 -3 c 128,-1,12
 181 -3 181 -3 123 0 c 0,13,14
 99 1 99 1 85.5 13.5 c 128,-1,15
 72 26 72 26 70 43 c 0,16,17
 60 165 60 165 60 369 c 128,-1,18
 60 573 60 573 68 666 c 0,19,20
 71 700 71 700 81.5 715.5 c 128,-1,21
 92 731 92 731 125 731 c 2,22,-1
 317 731 l 2,23,24
 350 731 350 731 361 715.5 c 128,-1,25
 372 700 372 700 375 666 c 0,26,27
 381 579 381 579 381 374 c 0,28,29
 381 350.886792453 381 350.886792453 389.285866857 350.886792453 c 0,30,31
 393.547169811 350.886792453 393.547169811 350.886792453 400 357 c 2,32,-1
 531 477 l 2,33,34
 548 492 548 492 559 496.5 c 128,-1,35
 570 501 570 501 590 501 c 2,36,-1
 736 501 l 2,37,38
 749 501 749 501 755 484.5 c 0,39,40
 756.8 479.55 756.8 479.55 756.8 471.675 c 128,-1,41
 756.8 463.8 756.8 463.8 747 454 c 2,42,-1
 608 332 l 2,43,44
 600 324 600 324 608 315 c 0,45,46
 703 203 703 203 810 53 c 0,47,48
 821.130434783 37.6956521739 821.130434783 37.6956521739 821.130434783 25.7788279773 c 0,49,50
 821.130434783 1 821.130434783 1 784 1 c 2,51,-1
 646 -1 l 1,0,-1
EndSplineSet
EndChar

StartChar: l
Encoding: 108 108 82
Width: 441
Flags: HMW
HStem: -4 21G<214 237> 711 20G<125 317 317 341>
LayerCount: 2
Fore
SplineSet
125 731 m 2,0,-1
 317 731 l 2,1,2
 350 731 350 731 361 715.5 c 128,-1,3
 372 700 372 700 375 666 c 1,4,5
 381 546 381 546 381 334.5 c 128,-1,6
 381 123 381 123 373 43 c 0,7,8
 371 27 371 27 357 14 c 128,-1,9
 343 1 343 1 307.5 -1.5 c 128,-1,10
 272 -4 272 -4 224 -4 c 128,-1,11
 176 -4 176 -4 137.5 -1.5 c 0,12,13
 72.5175224124 2.71964140179 72.5175224124 2.71964140179 70 43 c 1,14,15
 60 130 60 130 60 351.5 c 128,-1,16
 60 573 60 573 68 666 c 0,17,18
 71 700 71 700 81.5 715.5 c 128,-1,19
 92 731 92 731 125 731 c 2,0,-1
EndSplineSet
EndChar

StartChar: m
Encoding: 109 109 83
Width: 1278
Flags: HMW
HStem: -3 21G<528 551 950 973> 347 175<429 622.5>
LayerCount: 2
Fore
SplineSet
916 43 m 2,0,-1
 917 287 l 2,1,2
 917 317 917 317 902 332 c 128,-1,3
 887 347 887 347 864.5 347 c 128,-1,4
 842 347 842 347 823.5 331.5 c 128,-1,5
 805 316 805 316 805 288 c 2,6,-1
 806 143 l 2,7,8
 806 74 806 74 805 48 c 128,-1,9
 804 22 804 22 791.5 10.5 c 128,-1,10
 779 -1 779 -1 743 -1 c 2,11,-1
 551 -3 l 2,12,13
 519 -3 519 -3 506.5 8.5 c 128,-1,14
 494 20 494 20 494 43 c 2,15,-1
 495 287 l 2,16,17
 495 317 495 317 480 332 c 128,-1,18
 465 347 465 347 442.5 347 c 128,-1,19
 420 347 420 347 401.5 331.5 c 128,-1,20
 383 316 383 316 383 288 c 2,21,-1
 383 227 l 2,22,23
 383 95 383 95 377 47 c 0,24,25
 374 30 374 30 360 17 c 128,-1,26
 346 4 346 4 310.5 1.5 c 128,-1,27
 275 -1 275 -1 240 -1 c 128,-1,28
 205 -1 205 -1 121 3 c 0,29,30
 97 4 97 4 83 17 c 128,-1,31
 69 30 69 30 67 47 c 0,32,33
 60 112 60 112 60 246 c 128,-1,34
 60 380 60 380 64 429.5 c 128,-1,35
 68 479 68 479 79 494 c 128,-1,36
 90 509 90 509 124 509 c 2,37,-1
 319 509 l 2,38,39
 353 509 353 509 364.5 494 c 128,-1,40
 376 479 376 479 379 443 c 1,41,-1
 379 442 l 1,42,43
 456 522 456 522 575 522 c 0,44,45
 648 522 648 522 702 494 c 128,-1,46
 756 466 756 466 782 412 c 1,47,48
 815 466 815 466 872.5 494 c 128,-1,49
 930 522 930 522 997 522 c 0,50,51
 1099 522 1099 522 1162 468 c 128,-1,52
 1225 414 1225 414 1226.5 319 c 128,-1,53
 1228 224 1228 224 1228 149 c 128,-1,54
 1228 74 1228 74 1227 48 c 128,-1,55
 1226 22 1226 22 1213.5 10.5 c 128,-1,56
 1201 -1 1201 -1 1165 -1 c 2,57,-1
 973 -3 l 2,58,59
 941 -3 941 -3 928.5 8.5 c 128,-1,60
 916 20 916 20 916 43 c 2,0,-1
EndSplineSet
EndChar

StartChar: n
Encoding: 110 110 84
Width: 856
Flags: HMW
HStem: -3 21G<528 551> 347 162<124 456.5> 347 175<429 640.5>
LayerCount: 2
Fore
SplineSet
494 43 m 2,0,-1
 495 287 l 2,1,2
 495 317 495 317 480 332 c 128,-1,3
 465 347 465 347 442.5 347 c 128,-1,4
 420 347 420 347 401.5 331.5 c 128,-1,5
 383 316 383 316 383 288 c 2,6,-1
 383 227 l 2,7,8
 383 95 383 95 377 47 c 0,9,10
 374 30 374 30 360 17 c 128,-1,11
 346 4 346 4 310.5 1.5 c 128,-1,12
 275 -1 275 -1 240 -1 c 128,-1,13
 205 -1 205 -1 121 3 c 0,14,15
 97 4 97 4 83 17 c 128,-1,16
 69 30 69 30 67 47 c 0,17,18
 60 112 60 112 60 246 c 128,-1,19
 60 380 60 380 64 429.5 c 128,-1,20
 68 479 68 479 79 494 c 128,-1,21
 90 509 90 509 124 509 c 2,22,-1
 319 509 l 2,23,24
 353 509 353 509 364.5 494 c 128,-1,25
 376 479 376 479 379 443 c 1,26,-1
 379 442 l 1,27,28
 456 522 456 522 566.5 522 c 128,-1,29
 677 522 677 522 740 468 c 128,-1,30
 803 414 803 414 804.5 319 c 128,-1,31
 806 224 806 224 806 149 c 128,-1,32
 806 74 806 74 805 48 c 128,-1,33
 804 22 804 22 791.5 10.5 c 128,-1,34
 779 -1 779 -1 743 -1 c 2,35,-1
 551 -3 l 2,36,37
 519 -3 519 -3 506.5 8.5 c 128,-1,38
 494 20 494 20 494 43 c 2,0,-1
EndSplineSet
EndChar

StartChar: o
Encoding: 111 111 85
Width: 826
Flags: HMW
HStem: -22 160<388 438 388 537> 356 165<388 438>
LayerCount: 2
Fore
SplineSet
413 138 m 128,-1,1
 472 138 472 138 472 250 c 0,2,3
 472 301 472 301 460 328.5 c 128,-1,4
 448 356 448 356 413 356 c 128,-1,5
 378 356 378 356 366 328.5 c 128,-1,6
 354 301 354 301 354 250 c 0,7,0
 354 138 354 138 413 138 c 128,-1,1
413 -22 m 128,-1,9
 40 -22 40 -22 40 250 c 0,10,11
 40 379 40 379 135 450 c 128,-1,12
 230 521 230 521 413 521 c 128,-1,13
 596 521 596 521 691 450 c 128,-1,14
 786 379 786 379 786 250 c 0,15,8
 786 -22 786 -22 413 -22 c 128,-1,9
EndSplineSet
EndChar

StartChar: p
Encoding: 112 112 86
Width: 812
Flags: HMW
HStem: -173 21G<96.5 120 120 312> -13 165<425 596.5> 347 176<425 626>
LayerCount: 2
Fore
SplineSet
439 152 m 0,0,1
 498 152 498 152 498 249.5 c 128,-1,2
 498 347 498 347 439 347 c 0,3,4
 416 347 416 347 397.5 331.5 c 128,-1,5
 379 316 379 316 379 288 c 2,6,-1
 379 211 l 2,7,8
 379 183 379 183 397.5 167.5 c 128,-1,9
 416 152 416 152 439 152 c 0,0,1
119 509 m 2,10,-1
 303 508 l 2,11,12
 327 508 327 508 345 493.5 c 128,-1,13
 363 479 363 479 364 452 c 1,14,15
 403 487 403 487 458.5 505 c 128,-1,16
 514 523 514 523 568 523 c 0,17,18
 662 523 662 523 722 456.5 c 128,-1,19
 782 390 782 390 782 255 c 0,20,21
 782 178 782 178 761 123.5 c 128,-1,22
 740 69 740 69 703.5 40.5 c 0,23,24
 634.98245614 -13 634.98245614 -13 539.49122807 -13 c 128,-1,25
 444 -13 444 -13 390 49 c 0,26,27
 383.222222222 55.7777777778 383.222222222 55.7777777778 379.611111111 52.8888888889 c 128,-1,28
 376 50 376 50 376 44 c 0,29,30
 376 -27 376 -27 370 -111 c 0,31,32
 368 -144 368 -144 357 -158.5 c 128,-1,33
 346 -173 346 -173 312 -173 c 2,34,-1
 120 -173 l 2,35,36
 87 -173 87 -173 75.5 -157 c 128,-1,37
 64 -141 64 -141 63 -108 c 0,38,39
 61 -13 61 -13 61 135 c 2,40,-1
 63 462 l 2,41,42
 63 482 63 482 81.5 495.5 c 128,-1,43
 100 509 100 509 119 509 c 2,10,-1
EndSplineSet
EndChar

StartChar: q
Encoding: 113 113 87
Width: 826
Flags: HMW
HStem: -173 21G<490 514 514 706> -22 183<208.5 402> 356 165<239.5 402>
LayerCount: 2
Fore
SplineSet
388 356 m 0,0,1
 329 356 329 356 329 258.5 c 128,-1,2
 329 161 329 161 388 161 c 0,3,4
 411 161 411 161 429.5 176.5 c 128,-1,5
 448 192 448 192 448 220 c 2,6,-1
 448 297 l 2,7,8
 448 325 448 325 429.5 340.5 c 128,-1,9
 411 356 411 356 388 356 c 0,0,1
764 461 m 2,10,-1
 766 134 l 2,11,12
 766 34 766 34 763 -108 c 0,13,14
 762 -141 762 -141 750.5 -157 c 128,-1,15
 739 -173 739 -173 706 -173 c 2,16,-1
 514 -173 l 2,17,18
 480 -173 480 -173 469 -159.5 c 0,19,20
 451 -137.409090909 451 -137.409090909 451 44 c 0,21,22
 451 50 451 50 448 53.5 c 128,-1,23
 445 57 445 57 439 52 c 0,24,25
 360 -22 360 -22 264.5 -22 c 128,-1,26
 169 -22 169 -22 104.5 42 c 128,-1,27
 40 106 40 106 40 244 c 0,28,29
 40 320 40 320 63 376.5 c 128,-1,30
 86 433 86 433 125.5 463 c 0,31,32
 201.866666667 521 201.866666667 521 305.933333333 521 c 128,-1,33
 410 521 410 521 463 452 c 1,34,35
 464 478 464 478 482 492 c 128,-1,36
 500 506 500 506 522 508 c 128,-1,37
 544 510 544 510 602 510 c 1,38,-1
 708 508 l 2,39,40
 727 508 727 508 745.5 494.5 c 128,-1,41
 764 481 764 481 764 461 c 2,10,-1
EndSplineSet
EndChar

StartChar: r
Encoding: 114 114 88
Width: 657
Flags: HMW
HStem: -1 21G<214.5 238> 288 233<546 588.5 520 597.5> 329 192<443.5 588.5>
LayerCount: 2
Fore
SplineSet
124 509 m 2,0,-1
 319 509 l 2,1,2
 353 509 353 509 366 494.5 c 128,-1,3
 379 480 379 480 379 451 c 2,4,-1
 379 415 l 1,5,6
 435 521 435 521 561 521 c 0,7,8
 603 521 603 521 630 494 c 128,-1,9
 657 467 657 467 657 422 c 0,10,11
 657 377 657 377 633 332.5 c 128,-1,12
 609 288 609 288 566 288 c 0,13,14
 546 288 546 288 510 308.5 c 128,-1,15
 474 329 474 329 452 329 c 0,16,17
 430 329 430 329 406.5 313 c 128,-1,18
 383 297 383 297 383 260 c 0,19,20
 383 99 383 99 377 47 c 1,21,22
 374 30 374 30 360 17 c 128,-1,23
 346 4 346 4 310.5 1.5 c 0,24,25
 275 -1 275 -1 240 -1 c 0,26,27
 205 -1 205 -1 121 3 c 0,28,29
 97 4 97 4 83 17 c 128,-1,30
 69 30 69 30 67 47 c 0,31,32
 60 112 60 112 60 246 c 0,33,34
 60 380 60 380 64 429.5 c 0,35,36
 68 479 68 479 79 494 c 128,-1,37
 90 509 90 509 124 509 c 2,0,-1
EndSplineSet
EndChar

StartChar: s
Encoding: 115 115 89
Width: 650
Flags: HMW
HStem: -22 118<187 404> -22 162 356 165<257 551.5> 402 119<257 419>
VStem: 280 106
LayerCount: 2
Fore
SplineSet
280 131 m 0,0,1
 280 159 280 159 256.5 175 c 128,-1,2
 233 191 233 191 199.5 199.5 c 128,-1,3
 166 208 166 208 132 219.5 c 128,-1,4
 98 231 98 231 74.5 259.5 c 128,-1,5
 51 288 51 288 51 335 c 0,6,7
 51 521 51 521 340 521 c 0,8,9
 464 521 464 521 539 479 c 0,10,11
 563 466 563 466 573 454.5 c 128,-1,12
 583 443 583 443 583 414 c 0,13,14
 583 385 583 385 571.5 370.5 c 0,15,16
 560 356 560 356 548.5 356 c 0,17,18
 537 356 537 356 498.5 378.5 c 128,-1,19
 460 401 460 401 419 402 c 0,20,21
 386 402 386 402 386 369 c 0,22,23
 386 347 386 347 409 334 c 128,-1,24
 432 321 432 321 465 311.5 c 128,-1,25
 498 302 498 302 531 288.5 c 128,-1,26
 564 275 564 275 587 243.5 c 128,-1,27
 610 212 610 212 610 164 c 0,28,29
 610 -22 610 -22 321 -22 c 0,30,31
 180 -22 180 -22 91 19 c 1,32,33
 64 30 64 30 52 41.5 c 128,-1,34
 40 53 40 53 40 83.5 c 0,35,36
 40 114 40 114 52.5 127 c 0,37,38
 65 140 65 140 73.5 140 c 0,39,40
 82 140 82 140 131 118 c 128,-1,41
 180 96 180 96 230 96 c 0,42,43
 280 96 280 96 280 131 c 0,0,1
EndSplineSet
EndChar

StartChar: t
Encoding: 116 116 90
Width: 661
Flags: HMW
HStem: 1 152<316 527.5> 380 123<434 438 438 541 541 542> 634 20G<307 357 357 381.5>
LayerCount: 2
Fore
SplineSet
102 364 m 2,0,1
 102 380 102 380 80 380 c 0,2,3
 40.92 380 40.92 380 33.5 406.5 c 0,4,5
 30 419 30 419 30 446 c 128,-1,6
 30 473 30 473 37.5 484.5 c 128,-1,7
 45 496 45 496 66.5 501.5 c 128,-1,8
 88 507 88 507 105.5 520.5 c 128,-1,9
 123 534 123 534 177.5 580 c 128,-1,10
 232 626 232 626 253.5 640 c 128,-1,11
 275 654 275 654 307 654 c 2,12,-1
 357 654 l 2,13,14
 392 654 392 654 404 645.5 c 128,-1,15
 416 637 416 637 416 619 c 2,16,-1
 416 524 l 2,17,18
 416 503 416 503 434 503 c 2,19,-1
 541 503 l 2,20,21
 567 503 567 503 578.5 492 c 128,-1,22
 590 481 590 481 590 441.5 c 128,-1,23
 590 402 590 402 578 391 c 128,-1,24
 566 380 566 380 542 380 c 2,25,-1
 438 380 l 2,26,27
 424 380 424 380 420 373 c 128,-1,28
 416 366 416 366 416 353 c 2,29,-1
 416 233 l 1,30,31
 418 199 418 199 441.5 176 c 128,-1,32
 465 153 465 153 508 153 c 0,33,34
 529 153 529 153 560 164.5 c 128,-1,35
 591 176 591 176 602 176 c 0,36,37
 629 176 629 176 629 96 c 0,38,39
 629 38 629 38 598 26 c 1,40,41
 566 15 566 15 508 8 c 128,-1,42
 450 1 450 1 392 1 c 128,-1,43
 334 1 334 1 281.5 10.5 c 128,-1,44
 229 20 229 20 186.5 44.5 c 0,45,46
 102 93.2117647059 102 93.2117647059 102 231 c 2,47,-1
 102 364 l 2,0,1
EndSplineSet
EndChar

StartChar: u
Encoding: 117 117 91
Width: 856
Flags: HMW
HStem: -13 175<196.5 420> 491 20G<305 328>
LayerCount: 2
Fore
SplineSet
362 465 m 2,0,-1
 361 221 l 2,1,2
 361 192 361 192 374 177 c 128,-1,3
 387 162 387 162 407.5 162 c 128,-1,4
 428 162 428 162 446.5 177.5 c 128,-1,5
 465 193 465 193 473 220 c 1,6,-1
 473 281 l 2,7,8
 473 413 473 413 479 461 c 0,9,10
 482 478 482 478 496 491 c 128,-1,11
 510 504 510 504 545.5 506.5 c 128,-1,12
 581 509 581 509 616 509 c 128,-1,13
 651 509 651 509 735 505 c 0,14,15
 759 504 759 504 773 491 c 128,-1,16
 787 478 787 478 789 461 c 0,17,18
 796 396 796 396 796 261.5 c 128,-1,19
 796 127 796 127 792 78 c 128,-1,20
 788 29 788 29 777 14 c 128,-1,21
 766 -1 766 -1 732 -1 c 2,22,-1
 537 -1 l 2,23,24
 503 -1 503 -1 491.5 14 c 128,-1,25
 480 29 480 29 477 65 c 1,26,-1
 477 66 l 1,27,28
 374 -13 374 -13 268 -13 c 128,-1,29
 162 -13 162 -13 107.5 39.5 c 128,-1,30
 53 92 53 92 51.5 188 c 128,-1,31
 50 284 50 284 50 359 c 128,-1,32
 50 434 50 434 51 460 c 128,-1,33
 52 486 52 486 64.5 497.5 c 128,-1,34
 77 509 77 509 113 509 c 2,35,-1
 305 511 l 2,36,37
 337 511 337 511 349.5 499.5 c 128,-1,38
 362 488 362 488 362 465 c 2,0,-1
EndSplineSet
EndChar

StartChar: v
Encoding: 118 118 92
Width: 767
Flags: HMW
HStem: -22 21G<357 412> 488 20G<41.5 61 611.5 620> 489 20G<281 302.5 725 734.5>
LayerCount: 2
Fore
SplineSet
20.3333333333 472.222222222 m 0,0,1
 20.3333333333 508 20.3333333333 508 61 508 c 2,2,-1
 281 509 l 2,3,4
 314 509 314 509 331 499.5 c 128,-1,5
 348 490 348 490 361 461 c 1,6,-1
 454 287 l 1,7,8
 458 275 458 275 470 275 c 128,-1,9
 482 275 482 275 488 287 c 2,10,-1
 584 486 l 2,11,12
 592.202247191 504.04494382 592.202247191 504.04494382 605.5 507 c 0,13,14
 610 508 610 508 620 508 c 2,15,-1
 725 509 l 2,16,17
 739 509 739 509 744.5 495.5 c 0,18,19
 746.740740741 490 746.740740741 490 746.740740741 482.740740741 c 128,-1,20
 746.740740741 475.481481481 746.740740741 475.481481481 742 466 c 0,21,22
 606 186 606 186 519 32 c 1,23,24
 502 6 502 6 465 -8 c 128,-1,25
 428 -22 428 -22 384 -22 c 0,26,27
 286 -22 286 -22 253.5 28.5 c 128,-1,28
 221 79 221 79 185 144 c 128,-1,29
 149 209 149 209 103 297 c 128,-1,30
 57 385 57 385 31 432 c 1,31,32
 20.3333333333 455.333333333 20.3333333333 455.333333333 20.3333333333 472.222222222 c 0,0,1
EndSplineSet
EndChar

StartChar: w
Encoding: 119 119 93
Width: 1140
Flags: HMW
HStem: -22 21G<346.5 407 782.5 843> 489 20G<75 285 285 306.5> 490 20G<589 697 697 718.5>
LayerCount: 2
Fore
SplineSet
1099 508 m 2,0,1
 1119.42857143 508 1119.42857143 508 1119.42857143 483.12244898 c 0,2,3
 1119.42857143 474.714285714 1119.42857143 474.714285714 1110.71428571 450.857142857 c 128,-1,4
 1102 427 1102 427 1073.5 344.5 c 128,-1,5
 1045 262 1045 262 1031 224 c 0,6,7
 991.811965812 117.632478632 991.811965812 117.632478632 948 32 c 0,8,9
 934 6 934 6 897 -8 c 128,-1,10
 860 -22 860 -22 811 -22 c 128,-1,11
 762 -22 762 -22 714.5 -7.5 c 128,-1,12
 667 7 667 7 651 37.5 c 128,-1,13
 635 68 635 68 610 130 c 128,-1,14
 585 192 585 192 580 202 c 1,15,16
 529 64 529 64 513.5 35 c 128,-1,17
 498 6 498 6 461 -8 c 128,-1,18
 424 -22 424 -22 375 -22 c 128,-1,19
 326 -22 326 -22 278.5 -7.5 c 128,-1,20
 231 7 231 7 217 34 c 0,21,22
 132 198 132 198 45 432 c 0,23,24
 35.8837209302 457.069767442 35.8837209302 457.069767442 35.8837209302 473.977285019 c 0,25,26
 35.8837209302 509 35.8837209302 509 75 509 c 2,27,-1
 285 509 l 2,28,29
 321 509 321 509 340 499.5 c 128,-1,30
 359 490 359 490 365 461 c 1,31,-1
 410 287 l 2,32,33
 413 275 413 275 426.5 275 c 128,-1,34
 440 275 440 275 444 287 c 1,35,-1
 528 464 l 1,36,37
 546 510 546 510 589 510 c 2,38,-1
 697 510 l 2,39,40
 731 510 731 510 748.5 500.5 c 128,-1,41
 766 491 766 491 777 462 c 2,42,-1
 846 287 l 2,43,44
 850 275 850 275 863 275 c 128,-1,45
 876 275 876 275 880 287 c 2,46,-1
 958 485 l 2,47,48
 964 500 964 500 971.5 504.5 c 128,-1,49
 979 509 979 509 992 508 c 1,50,-1
 1099 508 l 2,0,1
EndSplineSet
EndChar

StartChar: x
Encoding: 120 120 94
Width: 806
Flags: HMW
HStem: 0 21G<29 37 37 209 633 678> 1 21G<470.5 511.5> 488 20G<585 758 758 766> 489 20G<67 343 343 358>
LayerCount: 2
Fore
SplineSet
343 509 m 1,0,-1
 358 508 l 2,1,2
 361 508 361 508 364.5 506.5 c 128,-1,3
 368 505 368 505 370 504.5 c 128,-1,4
 372 504 372 504 375 501 c 128,-1,5
 378 498 378 498 379.5 497.5 c 128,-1,6
 381 497 381 497 384.5 493 c 128,-1,7
 388 489 388 489 389 488 c 0,8,9
 398 479 398 479 400 475 c 1,10,11
 464 402 464 402 467 399 c 1,12,13
 568.178947368 503.589473684 568.178947368 503.589473684 569.589473684 504.294736842 c 0,14,15
 575 507 575 507 576.5 507 c 2,16,-1
 585 508 l 1,17,-1
 758 508 l 2,18,19
 770 508 770 508 774.5 499 c 128,-1,20
 779 490 779 490 770 481 c 2,21,-1
 563 295 l 1,22,23
 683 165 683 165 768 69 c 0,24,25
 786 48.4285714286 786 48.4285714286 786 29.693877551 c 0,26,27
 786 2.14814814815 786 2.14814814815 754.5 1.07407407407 c 128,-1,28
 723 0 723 0 663 0 c 2,29,-1
 480 1 l 2,30,31
 446 1 446 1 422 25 c 1,32,-1
 335 118 l 1,33,34
 225.99047619 4.49523809524 225.99047619 4.49523809524 224.495238095 3.74761904762 c 0,35,36
 219 1 219 1 217.5 1 c 2,37,-1
 209 0 l 1,38,-1
 37 0 l 2,39,40
 25 0 25 0 22 6 c 128,-1,41
 19 12 19 12 19 16.5 c 128,-1,42
 19 21 19 21 25 27 c 2,43,-1
 241 220 l 1,44,-1
 40 437 l 2,45,46
 23.7746478873 455.929577465 23.7746478873 455.929577465 23.7746478873 467.901408451 c 128,-1,47
 23.7746478873 479.873239437 23.7746478873 479.873239437 27.5 487 c 0,48,49
 39 509 39 509 67 509 c 2,50,-1
 343 509 l 1,0,-1
EndSplineSet
EndChar

StartChar: y
Encoding: 121 121 95
Width: 768
Flags: HMW
HStem: -183 144<110 312.5> 489 20G<62 282 282 303.5 621 726 726 735.5>
LayerCount: 2
Fore
SplineSet
132 -39 m 2,0,1
 264 -39 264 -39 264 0 c 0,2,3
 264 13 264 13 248 39 c 0,4,5
 175 153 175 153 32 432 c 0,6,7
 20.6666666667 454.666666667 20.6666666667 454.666666667 20.6666666667 467.5 c 0,8,9
 20.6666666667 509 20.6666666667 509 62 509 c 2,10,-1
 282 509 l 2,11,12
 314 509 314 509 330.5 499 c 128,-1,13
 347 489 347 489 362 461 c 2,14,-1
 455 287 l 2,15,16
 461 275 461 275 472 275 c 128,-1,17
 483 275 483 275 489 287 c 2,18,-1
 585 486 l 2,19,20
 594.096385542 506.012048193 594.096385542 506.012048193 606 507.5 c 0,21,22
 610 508 610 508 621 509 c 1,23,-1
 726 509 l 2,24,25
 740 509 740 509 745.5 495.5 c 0,26,27
 747.740740741 490 747.740740741 490 747.740740741 482.740740741 c 128,-1,28
 747.740740741 475.481481481 747.740740741 475.481481481 740.37037037 460.740740741 c 128,-1,29
 733 446 733 446 665 301 c 128,-1,30
 597 156 597 156 561.5 88 c 128,-1,31
 526 20 526 20 511.5 -5 c 128,-1,32
 497 -30 497 -30 473 -64.5 c 128,-1,33
 449 -99 449 -99 427 -116.5 c 128,-1,34
 405 -134 405 -134 372.5 -151.5 c 0,35,36
 314 -183 314 -183 223.5 -183 c 128,-1,37
 133 -183 133 -183 104 -167.5 c 128,-1,38
 75 -152 75 -152 75 -100 c 0,39,40
 75 -75 75 -75 84.5 -57 c 128,-1,41
 94 -39 94 -39 110 -39 c 2,42,-1
 132 -39 l 2,0,1
EndSplineSet
EndChar

StartChar: z
Encoding: 122 122 96
Width: 679
Flags: HMW
HStem: -4 138<274.5 617> 373 136<84 94 94 167.5 84 242> 488 20G<584 594.5>
LayerCount: 2
Fore
SplineSet
316 -4 m 1,0,-1
 87 -1 l 2,1,2
 70 -1 70 -1 55 8 c 128,-1,3
 40 17 40 17 40 32 c 2,4,-1
 40 91 l 2,5,6
 40 116 40 116 55.5 132.5 c 128,-1,7
 71 149 71 149 112 192 c 0,8,9
 202.017777778 286.408888889 202.017777778 286.408888889 249 344 c 0,10,11
 258 355 258 355 255.5 364 c 128,-1,12
 253 373 253 373 242 373 c 2,13,-1
 94 373 l 2,14,15
 79 373 79 373 70.5 383.5 c 128,-1,16
 62 394 62 394 62 407 c 2,17,-1
 62 470 l 2,18,19
 62 509 62 509 94 509 c 0,20,21
 463 509 463 509 584 508 c 0,22,23
 601 508 601 508 616 499 c 128,-1,24
 631 490 631 490 631 475 c 2,25,-1
 631 416 l 2,26,27
 631 393 631 393 609.5 368 c 128,-1,28
 588 343 588 343 525.5 277.5 c 128,-1,29
 463 212 463 212 422 163 c 0,30,31
 413 152 413 152 415.5 143 c 128,-1,32
 418 134 418 134 429 134 c 2,33,-1
 617 134 l 2,34,35
 632 134 632 134 640.5 123.5 c 128,-1,36
 649 113 649 113 649 100 c 2,37,-1
 649 37 l 2,38,39
 649 -2 649 -2 617 -2 c 2,40,-1
 316 -4 l 1,0,-1
EndSplineSet
EndChar

StartChar: eth
Encoding: 240 240 97
Width: 826
Flags: HMW
HStem: -22 160<387 432.5 387 537> 338 165
LayerCount: 2
Fore
SplineSet
228 732 m 2,0,-1
 265 731 l 1,1,-1
 278 763 l 2,2,3
 286 782 286 782 292.48 785.96 c 128,-1,4
 298.96 789.92 298.96 789.92 307.64 789.92 c 128,-1,5
 316.32 789.92 316.32 789.92 332 786 c 1,6,-1
 351 779 l 2,7,8
 380.142857143 768.071428571 380.142857143 768.071428571 380.142857143 743.867346939 c 0,9,10
 380.142857143 731.571428571 380.142857143 731.571428571 373 718 c 1,11,12
 566 680 566 680 667.431034483 563.25862069 c 128,-1,13
 768.862068966 446.517241379 768.862068966 446.517241379 768.862068966 291.613555291 c 0,14,15
 768.862068966 127.427586207 768.862068966 127.427586207 676.5 48.5 c 0,16,17
 594 -22 594 -22 413 -22 c 0,18,19
 40 -22 40 -22 40 237 c 0,20,21
 40 359 40 359 131 429.5 c 128,-1,22
 222 500 222 500 397 503 c 1,23,24
 364 544 364 544 316 570 c 1,25,-1
 308 549 l 2,26,27
 300 530 300 530 293.625 526.458333333 c 128,-1,28
 287.25 522.916666667 287.25 522.916666667 278.583333333 522.916666667 c 128,-1,29
 269.916666667 522.916666667 269.916666667 522.916666667 253 527 c 1,30,-1
 236 533 l 1,31,32
 205.88 545.55 205.88 545.55 205.88 568.1344 c 0,33,34
 205.88 577.76 205.88 577.76 211 588 c 1,35,-1
 217 605 l 1,36,-1
 180 611 l 1,37,38
 148 614.2 148 614.2 148 634 c 128,-1,39
 148 654 148 654 167.5 686.5 c 128,-1,40
 187 719 187 719 198 725.5 c 128,-1,41
 209 732 209 732 228 732 c 2,0,-1
413 138 m 0,42,43
 464 138 464 138 464 246 c 0,44,45
 464 338 464 338 412 338 c 0,46,47
 377 338 377 338 365 313 c 128,-1,48
 353 288 353 288 353 240.5 c 128,-1,49
 353 193 353 193 365 165.5 c 128,-1,50
 377 138 377 138 413 138 c 0,42,43
EndSplineSet
EndChar

StartChar: thorn
Encoding: 254 254 98
Width: 813
Flags: HMW
HStem: -174 21G<98.5 122 122 314> -14 166<425 598.5> 347 175<425 618.5> 711 20G<121 313 313 337>
LayerCount: 2
Fore
SplineSet
65 -109 m 0,0,1
 60 129 60 129 60 320 c 128,-1,2
 60 511 60 511 64 666 c 0,3,4
 65 699 65 699 76.5 715 c 128,-1,5
 88 731 88 731 121 731 c 2,6,-1
 313 731 l 2,7,8
 346 731 346 731 357.5 715.5 c 128,-1,9
 369 700 369 700 372.5 648 c 128,-1,10
 376 596 376 596 376 464 c 0,11,12
 376 458 376 458 379 454.5 c 128,-1,13
 382 451 382 451 388 456 c 0,14,15
 458 522 458 522 558 522 c 128,-1,16
 658 522 658 522 720 458.5 c 128,-1,17
 782 395 782 395 782 258 c 0,18,19
 782 181 782 181 761.5 125.5 c 128,-1,20
 741 70 741 70 704.5 41 c 0,21,22
 635.275862069 -14 635.275862069 -14 540.637931034 -14 c 128,-1,23
 446 -14 446 -14 392 48 c 0,24,25
 385.222222222 54.7777777778 385.222222222 54.7777777778 381.611111111 51.8888888889 c 128,-1,26
 378 49 378 49 378 43 c 0,27,28
 378 -28 378 -28 372 -112 c 0,29,30
 370 -145 370 -145 359 -159.5 c 128,-1,31
 348 -174 348 -174 314 -174 c 2,32,-1
 122 -174 l 2,33,34
 89 -174 89 -174 77.5 -158 c 128,-1,35
 66 -142 66 -142 65 -109 c 0,0,1
439 152 m 0,36,37
 498 152 498 152 498 249.5 c 128,-1,38
 498 347 498 347 439 347 c 0,39,40
 416 347 416 347 397.5 331.5 c 128,-1,41
 379 316 379 316 379 288 c 2,42,-1
 379 211 l 2,43,44
 379 183 379 183 397.5 167.5 c 128,-1,45
 416 152 416 152 439 152 c 0,36,37
EndSplineSet
EndChar

StartChar: germandbls
Encoding: 223 223 99
Width: 992
Flags: HMW
HStem: -22 116<545.5 729> -22 162 -20 20G<95 120 120 315> 570 155<433 486>
VStem: 541 195<317 525> 622 114 622 183
LayerCount: 2
Fore
SplineSet
805 510 m 0,0,1
 805 475 805 475 787.5 449 c 128,-1,2
 770 423 770 423 753 402 c 128,-1,3
 736 381 736 381 736 356 c 128,-1,4
 736 331 736 331 770 310 c 128,-1,5
 804 289 804 289 844.5 275.5 c 128,-1,6
 885 262 885 262 919 231.5 c 128,-1,7
 953 201 953 201 953 159 c 128,-1,8
 953 117 953 117 930.5 76.5 c 128,-1,9
 908 36 908 36 874 15 c 0,10,11
 811 -22 811 -22 689 -22 c 128,-1,12
 567 -22 567 -22 487 19 c 1,13,14
 460 30 460 30 448 41.5 c 128,-1,15
 436 53 436 53 436 83.5 c 128,-1,16
 436 114 436 114 448.5 127 c 128,-1,17
 461 140 461 140 470 140 c 128,-1,18
 479 140 479 140 492.5 128.5 c 0,19,20
 533 94 533 94 578 94 c 0,21,22
 595 94 595 94 608.5 105 c 128,-1,23
 622 116 622 116 622 139 c 128,-1,24
 622 162 622 162 604 178.5 c 128,-1,25
 586 195 586 195 560 204 c 128,-1,26
 534 213 534 213 508.5 224.5 c 128,-1,27
 483 236 483 236 465 263.5 c 128,-1,28
 447 291 447 291 447 332 c 128,-1,29
 447 373 447 373 470.5 404.5 c 128,-1,30
 494 436 494 436 517.5 461 c 128,-1,31
 541 486 541 486 541 509.5 c 128,-1,32
 541 533 541 533 518.5 551.5 c 128,-1,33
 496 570 496 570 468 570 c 0,34,35
 419 570 419 570 396.5 541.5 c 128,-1,36
 374 513 374 513 374 472 c 2,37,-1
 374 66 l 2,38,39
 374 32 374 32 362 16 c 128,-1,40
 350 0 350 0 315 0 c 2,41,-1
 120 0 l 2,42,43
 85 0 85 0 72.5 16 c 128,-1,44
 60 32 60 32 60 66 c 0,45,46
 61 202 61 202 61 458 c 0,47,48
 61 527 61 527 93 579.5 c 128,-1,49
 125 632 125 632 179 663 c 0,50,51
 287 725 287 725 436 725 c 0,52,53
 642.465346535 725 642.465346535 725 748 631.5 c 0,54,55
 805 581 805 581 805 510 c 0,0,1
EndSplineSet
EndChar

StartChar: ae
Encoding: 230 230 100
Width: 1114
Flags: HMW
HStem: -16 120<799 800.5> -16 132<181.5 374.5> -16 169 211 104 241 74<233.5 385.5> 354 167 401 120 505 20G<354.5 450.5>
VStem: 852 222<330.5 368>
LayerCount: 2
Fore
SplineSet
429 147 m 1,0,1
 412 186 412 186 412 220 c 0,2,3
 412 241 412 241 380 241 c 128,-1,4
 348 241 348 241 328 225.5 c 128,-1,5
 308 210 308 210 308 180.5 c 128,-1,6
 308 151 308 151 324.5 133.5 c 128,-1,7
 341 116 341 116 367 116 c 0,8,9
 414 116 414 116 429 147 c 1,0,1
458 97 m 1,10,11
 363 -16 363 -16 230 -16 c 0,12,13
 151 -16 151 -16 95.5 23.5 c 128,-1,14
 40 63 40 63 40 132.5 c 128,-1,15
 40 202 40 202 79.5 243.5 c 128,-1,16
 119 285 119 285 173.5 300 c 128,-1,17
 228 315 228 315 290.5 315 c 128,-1,18
 353 315 353 315 413 303 c 1,19,-1
 413 307 l 2,20,21
 413 357 413 357 393.5 379 c 128,-1,22
 374 401 374 401 330.5 401 c 128,-1,23
 287 401 287 401 258 393.5 c 128,-1,24
 229 386 229 386 214 377.5 c 0,25,26
 172.529411765 354 172.529411765 354 156.764705882 354 c 128,-1,27
 141 354 141 354 128.5 369 c 128,-1,28
 116 384 116 384 116 415.5 c 128,-1,29
 116 447 116 447 127.5 459 c 128,-1,30
 139 471 139 471 164 483 c 0,31,32
 251 525 251 525 392.5 525 c 128,-1,33
 534 525 534 525 610 495 c 1,34,35
 685 521 685 521 770.5 521 c 128,-1,36
 856 521 856 521 921 503.5 c 128,-1,37
 986 486 986 486 1017.5 455.5 c 0,38,39
 1074 400.793650794 1074 400.793650794 1074 327 c 0,40,41
 1074 211 1074 211 878 211 c 0,42,43
 809 211 809 211 735 224 c 1,44,45
 738 158 738 158 759.5 131 c 128,-1,46
 781 104 781 104 836 104 c 128,-1,47
 891 104 891 104 927 116 c 128,-1,48
 963 128 963 128 985 140.5 c 128,-1,49
 1007 153 1007 153 1022.5 153 c 128,-1,50
 1038 153 1038 153 1049 139 c 1,51,52
 1066 121 1066 121 1066 89.5 c 128,-1,53
 1066 58 1066 58 1053.5 46.5 c 128,-1,54
 1041 35 1041 35 1014 24 c 0,55,56
 919 -16 919 -16 738 -16 c 0,57,58
 648 -16 648 -16 574 14 c 128,-1,59
 500 44 500 44 458 97 c 1,10,11
802 407 m 0,60,61
 741 407 741 407 736 308 c 1,62,63
 784 304 784 304 786 304 c 0,64,65
 852 304 852 304 852 348 c 0,66,67
 852 407 852 407 802 407 c 0,60,61
EndSplineSet
EndChar

StartChar: oe
Encoding: 339 339 101
Width: 1164
Flags: HMW
HStem: -22 126 -22 160<388 438 388 457> -22 175 211 93<826.5 977.5> 356 165<388 438> 407 114<838 868>
VStem: 902 222<330.5 368>
LayerCount: 2
Fore
SplineSet
413 -22 m 0,0,1
 40 -22 40 -22 40 250 c 0,2,3
 40 379 40 379 135 450 c 128,-1,4
 230 521 230 521 413 521 c 0,5,6
 544 521 544 521 634 482 c 1,7,8
 716 521 716 521 811 521 c 128,-1,9
 906 521 906 521 971 503.5 c 128,-1,10
 1036 486 1036 486 1067.5 455.5 c 0,11,12
 1124 400.793650794 1124 400.793650794 1124 327 c 0,13,14
 1124 211 1124 211 928 211 c 0,15,16
 859 211 859 211 785 224 c 1,17,-1
 785 223 l 1,18,19
 788 158 788 158 809.5 131 c 128,-1,20
 831 104 831 104 886 104 c 128,-1,21
 941 104 941 104 977 116 c 128,-1,22
 1013 128 1013 128 1035 140.5 c 128,-1,23
 1057 153 1057 153 1072.5 153 c 128,-1,24
 1088 153 1088 153 1099 139 c 1,25,26
 1116 121 1116 121 1116 89.5 c 128,-1,27
 1116 58 1116 58 1103.5 46.5 c 128,-1,28
 1091 35 1091 35 1064 24 c 0,29,30
 969 -16 969 -16 794 -16 c 0,31,32
 704 -16 704 -16 631 12 c 1,33,34
 543 -22 543 -22 413 -22 c 0,0,1
413 138 m 128,-1,36
 472 138 472 138 472 250 c 0,37,38
 472 301 472 301 460 328.5 c 128,-1,39
 448 356 448 356 413 356 c 128,-1,40
 378 356 378 356 366 328.5 c 128,-1,41
 354 301 354 301 354 250 c 0,42,35
 354 138 354 138 413 138 c 128,-1,36
852 407 m 0,43,44
 791 407 791 407 786 308 c 1,45,46
 834 304 834 304 836 304 c 0,47,48
 902 304 902 304 902 348 c 0,49,50
 902 407 902 407 852 407 c 0,43,44
EndSplineSet
EndChar

StartChar: agrave
Encoding: 224 224 102
Width: 813
Flags: HMW
HStem: -16 21G<191.5 274> 241 74<243.5 390.5> 401 124<364.5 368.5> 570 153<457.5 465 465 465.5 333 534>
LayerCount: 2
Fore
SplineSet
500 697 m 1,0,-1
 552 599 l 1,1,2
 561 586 561 586 555.5 578 c 128,-1,3
 550 570 550 570 534 570 c 2,4,-1
 465 570 l 2,5,6
 445 570 445 570 428.5 583 c 128,-1,7
 412 596 412 596 394 611 c 128,-1,8
 376 626 376 626 355.5 643.5 c 128,-1,9
 335 661 335 661 323 671 c 128,-1,10
 311 681 311 681 304.5 693 c 128,-1,11
 298 705 298 705 304.5 714 c 128,-1,12
 311 723 311 723 333 723 c 2,13,-1
 453 723 l 2,14,15
 483 723 483 723 500 697 c 1,0,-1
422 525 m 0,16,17
 748 525 748 525 751 313 c 0,18,19
 753 223 753 223 753 148 c 128,-1,20
 753 73 753 73 752 47 c 128,-1,21
 751 21 751 21 738.5 9.5 c 128,-1,22
 726 -2 726 -2 690 -2 c 2,23,-1
 478 -2 l 2,24,25
 446 -2 446 -2 434 9.5 c 128,-1,26
 422 21 422 21 421 44 c 0,27,28
 421 45 421 45 420.5 47.5 c 128,-1,29
 420 50 420 50 420 52 c 1,30,31
 354 -16 354 -16 240 -16 c 0,32,33
 161 -16 161 -16 105.5 23.5 c 128,-1,34
 50 63 50 63 50 132.5 c 128,-1,35
 50 202 50 202 89.5 243.5 c 128,-1,36
 129 285 129 285 183.5 300 c 128,-1,37
 238 315 238 315 300.5 315 c 128,-1,38
 363 315 363 315 423 303 c 1,39,-1
 423 307 l 2,40,41
 423 357 423 357 403.5 379 c 128,-1,42
 384 401 384 401 340.5 401 c 128,-1,43
 297 401 297 401 268 393.5 c 128,-1,44
 239 386 239 386 224 377.5 c 0,45,46
 182.529411765 354 182.529411765 354 166.764705882 354 c 128,-1,47
 151 354 151 354 138.5 369 c 128,-1,48
 126 384 126 384 126 415.5 c 128,-1,49
 126 447 126 447 137.5 459 c 128,-1,50
 149 471 149 471 174 483 c 0,51,52
 261 525 261 525 422 525 c 0,16,17
375 116 m 0,53,54
 419 116 419 116 420 133 c 0,55,56
 422 166 422 166 422 220 c 0,57,58
 422 241 422 241 390 241 c 128,-1,59
 358 241 358 241 338 225.5 c 128,-1,60
 318 210 318 210 318 180 c 128,-1,61
 318 150 318 150 334.5 133 c 128,-1,62
 351 116 351 116 375 116 c 0,53,54
EndSplineSet
EndChar

StartChar: acircumflex
Encoding: 226 226 103
Width: 813
Flags: HMW
HStem: -16 21G<191.5 274> 241 74<243.5 390.5> 401 124<364.5 368.5> 725 20G<414 480 480 488.5>
LayerCount: 2
Fore
SplineSet
422 525 m 0,0,1
 748 525 748 525 751 313 c 0,2,3
 753 223 753 223 753 148 c 128,-1,4
 753 73 753 73 752 47 c 128,-1,5
 751 21 751 21 738.5 9.5 c 128,-1,6
 726 -2 726 -2 690 -2 c 2,7,-1
 478 -2 l 2,8,9
 446 -2 446 -2 434 9.5 c 128,-1,10
 422 21 422 21 421 44 c 0,11,12
 421 45 421 45 420.5 47.5 c 128,-1,13
 420 50 420 50 420 52 c 1,14,15
 354 -16 354 -16 240 -16 c 0,16,17
 161 -16 161 -16 105.5 23.5 c 128,-1,18
 50 63 50 63 50 132.5 c 128,-1,19
 50 202 50 202 89.5 243.5 c 128,-1,20
 129 285 129 285 183.5 300 c 128,-1,21
 238 315 238 315 300.5 315 c 128,-1,22
 363 315 363 315 423 303 c 1,23,-1
 423 307 l 2,24,25
 423 357 423 357 403.5 379 c 128,-1,26
 384 401 384 401 340.5 401 c 128,-1,27
 297 401 297 401 268 393.5 c 128,-1,28
 239 386 239 386 224 377.5 c 0,29,30
 182.529411765 354 182.529411765 354 166.764705882 354 c 128,-1,31
 151 354 151 354 138.5 369 c 128,-1,32
 126 384 126 384 126 415.5 c 128,-1,33
 126 447 126 447 137.5 459 c 128,-1,34
 149 471 149 471 174 483 c 0,35,36
 261 525 261 525 422 525 c 0,0,1
375 116 m 0,37,38
 419 116 419 116 420 133 c 0,39,40
 422 166 422 166 422 220 c 0,41,42
 422 241 422 241 390 241 c 128,-1,43
 358 241 358 241 338 225.5 c 128,-1,44
 318 210 318 210 318 180 c 128,-1,45
 318 150 318 150 334.5 133 c 128,-1,46
 351 116 351 116 375 116 c 0,37,38
414 745 m 2,47,-1
 480 745 l 2,48,49
 500 745 500 745 535 715 c 2,50,-1
 652 613 l 1,51,52
 657.142857143 605.285714286 657.142857143 605.285714286 657.142857143 596.5 c 0,53,54
 657.142857143 567.312169312 657.142857143 567.312169312 645.369300912 553.794382528 c 128,-1,55
 633.595744681 540.276595745 633.595744681 540.276595745 625.361702128 540.276595745 c 128,-1,56
 617.127659574 540.276595745 617.127659574 540.276595745 611 543 c 2,57,-1
 447 617 l 1,58,-1
 283 543 l 2,59,60
 276.872340426 540.276595745 276.872340426 540.276595745 268.638297872 540.276595745 c 128,-1,61
 260.404255319 540.276595745 260.404255319 540.276595745 249.20212766 553.138297872 c 128,-1,62
 238 566 238 566 237.428571429 576.857142857 c 128,-1,63
 236.857142857 587.714285714 236.857142857 587.714285714 236.857142857 596.5 c 128,-1,64
 236.857142857 605.285714286 236.857142857 605.285714286 242 613 c 1,65,-1
 359 715 l 2,66,67
 394 745 394 745 414 745 c 2,47,-1
EndSplineSet
EndChar

StartChar: aacute
Encoding: 225 225 104
Width: 813
Flags: HMW
HStem: -16 21G<191.5 274> 241 74<243.5 390.5> 401 124<364.5 368.5> 570 153<389.5 601 400 601>
LayerCount: 2
Fore
SplineSet
382 599 m 1,0,-1
 434 697 l 1,1,2
 451 723 451 723 481 723 c 2,3,-1
 601 723 l 2,4,5
 623 723 623 723 629.5 714 c 0,6,7
 641.936416185 696.780346821 641.936416185 696.780346821 611 671 c 2,8,-1
 503 581 l 2,9,10
 489 570 489 570 469 570 c 2,11,-1
 400 570 l 2,12,13
 384 570 384 570 378.5 578 c 128,-1,14
 373 586 373 586 382 599 c 1,0,-1
422 525 m 0,15,16
 748 525 748 525 751 313 c 0,17,18
 753 223 753 223 753 148 c 128,-1,19
 753 73 753 73 752 47 c 128,-1,20
 751 21 751 21 738.5 9.5 c 128,-1,21
 726 -2 726 -2 690 -2 c 2,22,-1
 478 -2 l 2,23,24
 446 -2 446 -2 434 9.5 c 128,-1,25
 422 21 422 21 421 44 c 0,26,27
 421 45 421 45 420.5 47.5 c 128,-1,28
 420 50 420 50 420 52 c 1,29,30
 354 -16 354 -16 240 -16 c 0,31,32
 161 -16 161 -16 105.5 23.5 c 128,-1,33
 50 63 50 63 50 132.5 c 128,-1,34
 50 202 50 202 89.5 243.5 c 128,-1,35
 129 285 129 285 183.5 300 c 128,-1,36
 238 315 238 315 300.5 315 c 128,-1,37
 363 315 363 315 423 303 c 1,38,-1
 423 307 l 2,39,40
 423 357 423 357 403.5 379 c 128,-1,41
 384 401 384 401 340.5 401 c 128,-1,42
 297 401 297 401 268 393.5 c 128,-1,43
 239 386 239 386 224 377.5 c 0,44,45
 182.529411765 354 182.529411765 354 166.764705882 354 c 128,-1,46
 151 354 151 354 138.5 369 c 128,-1,47
 126 384 126 384 126 415.5 c 128,-1,48
 126 447 126 447 137.5 459 c 128,-1,49
 149 471 149 471 174 483 c 0,50,51
 261 525 261 525 422 525 c 0,15,16
375 116 m 0,52,53
 419 116 419 116 420 133 c 0,54,55
 422 166 422 166 422 220 c 0,56,57
 422 241 422 241 390 241 c 128,-1,58
 358 241 358 241 338 225.5 c 128,-1,59
 318 210 318 210 318 180 c 128,-1,60
 318 150 318 150 334.5 133 c 128,-1,61
 351 116 351 116 375 116 c 0,52,53
EndSplineSet
EndChar

StartChar: adieresis
Encoding: 228 228 105
Width: 813
Flags: HMW
HStem: -16 21G<191.5 274> 241 74<243.5 390.5> 401 124<364.5 368.5> 557 174<264.5 320.5 530.5 586.5>
VStem: 191 199<625.5 664> 457 199<625.5 664>
LayerCount: 2
Fore
SplineSet
422 525 m 0,0,1
 748 525 748 525 751 313 c 0,2,3
 753 223 753 223 753 148 c 128,-1,4
 753 73 753 73 752 47 c 128,-1,5
 751 21 751 21 738.5 9.5 c 128,-1,6
 726 -2 726 -2 690 -2 c 2,7,-1
 478 -2 l 2,8,9
 446 -2 446 -2 434 9.5 c 128,-1,10
 422 21 422 21 421 44 c 0,11,12
 421 45 421 45 420.5 47.5 c 128,-1,13
 420 50 420 50 420 52 c 1,14,15
 354 -16 354 -16 240 -16 c 0,16,17
 161 -16 161 -16 105.5 23.5 c 128,-1,18
 50 63 50 63 50 132.5 c 128,-1,19
 50 202 50 202 89.5 243.5 c 128,-1,20
 129 285 129 285 183.5 300 c 128,-1,21
 238 315 238 315 300.5 315 c 128,-1,22
 363 315 363 315 423 303 c 1,23,-1
 423 307 l 2,24,25
 423 357 423 357 403.5 379 c 128,-1,26
 384 401 384 401 340.5 401 c 128,-1,27
 297 401 297 401 268 393.5 c 128,-1,28
 239 386 239 386 224 377.5 c 0,29,30
 182.529411765 354 182.529411765 354 166.764705882 354 c 128,-1,31
 151 354 151 354 138.5 369 c 128,-1,32
 126 384 126 384 126 415.5 c 128,-1,33
 126 447 126 447 137.5 459 c 128,-1,34
 149 471 149 471 174 483 c 0,35,36
 261 525 261 525 422 525 c 0,0,1
375 116 m 0,37,38
 419 116 419 116 420 133 c 0,39,40
 422 166 422 166 422 220 c 0,41,42
 422 241 422 241 390 241 c 128,-1,43
 358 241 358 241 338 225.5 c 128,-1,44
 318 210 318 210 318 180 c 128,-1,45
 318 150 318 150 334.5 133 c 128,-1,46
 351 116 351 116 375 116 c 0,37,38
220 704.5 m 128,-1,48
 249 731 249 731 296.5 731 c 128,-1,49
 344 731 344 731 367 705.5 c 128,-1,50
 390 680 390 680 390 646 c 128,-1,51
 390 612 390 612 362 584.5 c 128,-1,52
 334 557 334 557 292 557 c 128,-1,53
 250 557 250 557 220.5 580 c 128,-1,54
 191 603 191 603 191 640.5 c 128,-1,47
 191 678 191 678 220 704.5 c 128,-1,48
486 704.5 m 128,-1,56
 515 731 515 731 562.5 731 c 128,-1,57
 610 731 610 731 633 705.5 c 128,-1,58
 656 680 656 680 656 646 c 128,-1,59
 656 612 656 612 628 584.5 c 128,-1,60
 600 557 600 557 558 557 c 128,-1,61
 516 557 516 557 486.5 580 c 128,-1,62
 457 603 457 603 457 640.5 c 128,-1,55
 457 678 457 678 486 704.5 c 128,-1,56
EndSplineSet
EndChar

StartChar: atilde
Encoding: 227 227 106
Width: 813
Flags: HMW
HStem: -16 21G<191.5 274> 241 74<243.5 390.5> 401 124<364.5 368.5> 554 127<505 540.5 505 563.5> 613 68 613 127<361.5 397>
LayerCount: 2
Fore
SplineSet
516 554 m 0,0,1
 482 554 482 554 438.5 583.5 c 128,-1,2
 395 613 395 613 375.5 613 c 128,-1,3
 356 613 356 613 345 603.5 c 128,-1,4
 334 594 334 594 323 571 c 1,5,6
 314 562 314 562 304 562 c 2,7,-1
 240 562 l 2,8,9
 227 562 227 562 227 585 c 0,10,11
 227 658 227 658 270.5 699 c 128,-1,12
 314 740 314 740 386 740 c 0,13,14
 420 740 420 740 463.5 710.5 c 128,-1,15
 507 681 507 681 526.5 681 c 128,-1,16
 546 681 546 681 557 690.5 c 128,-1,17
 568 700 568 700 579 723 c 1,18,19
 588 732 588 732 598 732 c 2,20,-1
 662 732 l 2,21,22
 675 732 675 732 675 709 c 0,23,24
 675 636 675 636 631.5 595 c 128,-1,25
 588 554 588 554 516 554 c 0,0,1
422 525 m 0,26,27
 748 525 748 525 751 313 c 0,28,29
 753 223 753 223 753 148 c 128,-1,30
 753 73 753 73 752 47 c 128,-1,31
 751 21 751 21 738.5 9.5 c 128,-1,32
 726 -2 726 -2 690 -2 c 2,33,-1
 478 -2 l 2,34,35
 446 -2 446 -2 434 9.5 c 128,-1,36
 422 21 422 21 421 44 c 0,37,38
 421 45 421 45 420.5 47.5 c 128,-1,39
 420 50 420 50 420 52 c 1,40,41
 354 -16 354 -16 240 -16 c 0,42,43
 161 -16 161 -16 105.5 23.5 c 128,-1,44
 50 63 50 63 50 132.5 c 128,-1,45
 50 202 50 202 89.5 243.5 c 128,-1,46
 129 285 129 285 183.5 300 c 128,-1,47
 238 315 238 315 300.5 315 c 128,-1,48
 363 315 363 315 423 303 c 1,49,-1
 423 307 l 2,50,51
 423 357 423 357 403.5 379 c 128,-1,52
 384 401 384 401 340.5 401 c 128,-1,53
 297 401 297 401 268 393.5 c 128,-1,54
 239 386 239 386 224 377.5 c 0,55,56
 182.529411765 354 182.529411765 354 166.764705882 354 c 128,-1,57
 151 354 151 354 138.5 369 c 128,-1,58
 126 384 126 384 126 415.5 c 128,-1,59
 126 447 126 447 137.5 459 c 128,-1,60
 149 471 149 471 174 483 c 0,61,62
 261 525 261 525 422 525 c 0,26,27
375 116 m 0,63,64
 419 116 419 116 420 133 c 0,65,66
 422 166 422 166 422 220 c 0,67,68
 422 241 422 241 390 241 c 128,-1,69
 358 241 358 241 338 225.5 c 128,-1,70
 318 210 318 210 318 180 c 128,-1,71
 318 150 318 150 334.5 133 c 128,-1,72
 351 116 351 116 375 116 c 0,63,64
EndSplineSet
EndChar

StartChar: aring
Encoding: 229 229 107
Width: 803
Flags: HMW
HStem: -16 21G<181.5 264> 241 74<233.5 380.5> 401 124<354.5 358.5> 578 91<427.5 452 427.5 486> 743 99<427.5 453>
VStem: 301 102<696.5 710> 478 100<698.5 711 685 717>
LayerCount: 2
Fore
SplineSet
412 525 m 0,0,1
 738 525 738 525 741 313 c 0,2,3
 743 223 743 223 743 148 c 128,-1,4
 743 73 743 73 742 47 c 128,-1,5
 741 21 741 21 728.5 9.5 c 128,-1,6
 716 -2 716 -2 680 -2 c 2,7,-1
 468 -2 l 2,8,9
 436 -2 436 -2 424 9.5 c 128,-1,10
 412 21 412 21 411 44 c 0,11,12
 411 45 411 45 410.5 47.5 c 128,-1,13
 410 50 410 50 410 52 c 1,14,15
 344 -16 344 -16 230 -16 c 0,16,17
 151 -16 151 -16 95.5 23.5 c 128,-1,18
 40 63 40 63 40 132.5 c 128,-1,19
 40 202 40 202 79.5 243.5 c 128,-1,20
 119 285 119 285 173.5 300 c 128,-1,21
 228 315 228 315 290.5 315 c 128,-1,22
 353 315 353 315 413 303 c 1,23,-1
 413 307 l 2,24,25
 413 357 413 357 393.5 379 c 128,-1,26
 374 401 374 401 330.5 401 c 128,-1,27
 287 401 287 401 258 393.5 c 128,-1,28
 229 386 229 386 214 377.5 c 0,29,30
 172.529411765 354 172.529411765 354 156.764705882 354 c 128,-1,31
 141 354 141 354 128.5 369 c 128,-1,32
 116 384 116 384 116 415.5 c 128,-1,33
 116 447 116 447 127.5 459 c 128,-1,34
 139 471 139 471 164 483 c 0,35,36
 251 525 251 525 412 525 c 0,0,1
365 116 m 0,37,38
 409 116 409 116 410 133 c 0,39,40
 412 166 412 166 412 220 c 0,41,42
 412 241 412 241 380 241 c 128,-1,43
 348 241 348 241 328 225.5 c 128,-1,44
 308 210 308 210 308 180 c 128,-1,45
 308 150 308 150 324.5 133 c 128,-1,46
 341 116 341 116 365 116 c 0,37,38
440 743 m 128,-1,48
 422 743 422 743 412.5 732 c 128,-1,49
 403 721 403 721 403 706 c 128,-1,50
 403 691 403 691 412.5 680 c 128,-1,51
 422 669 422 669 439.5 669 c 128,-1,52
 457 669 457 669 467.5 681 c 128,-1,53
 478 693 478 693 478 708 c 128,-1,54
 478 723 478 723 468 733 c 128,-1,47
 458 743 458 743 440 743 c 128,-1,48
540.5 621.5 m 128,-1,56
 503 578 503 578 437.5 578 c 128,-1,57
 372 578 372 578 336.5 620.5 c 128,-1,58
 301 663 301 663 301.5 712.5 c 128,-1,59
 302 762 302 762 338 802 c 128,-1,60
 374 842 374 842 438.5 842 c 128,-1,61
 503 842 503 842 540 804 c 128,-1,62
 577 766 577 766 577.5 715.5 c 128,-1,55
 578 665 578 665 540.5 621.5 c 128,-1,56
EndSplineSet
EndChar

StartChar: ccedilla
Encoding: 231 231 108
Width: 676
Flags: HMW
HStem: -174 68<308 360 308 372> -23 168 342 176<332.5 614.5> 365 153<446.5 457 332.5 505>
VStem: 298 182<-115 -35.5> 347 133<-96 -79 -115 -73.5>
LayerCount: 2
Fore
SplineSet
296 -105 m 1,0,-1
 310 -106 l 1,1,2
 347 -106 347 -106 347 -88 c 0,3,4
 347 -74 347 -74 322.5 -64.5 c 128,-1,5
 298 -55 298 -55 298 -39 c 0,6,7
 298 -28.5 298 -28.5 304 -21 c 1,8,-1
 304 -17 l 1,9,10
 118.655775963 5.76157137301 118.655775963 5.76157137301 69.5 125.5 c 0,11,12
 50 173 50 173 50 245.5 c 128,-1,13
 50 318 50 318 81.5 375 c 128,-1,14
 113 432 113 432 168.5 462 c 0,15,16
 272.1 518 272.1 518 428 518 c 0,17,18
 512 518 512 518 599 491 c 0,19,20
 636 479 636 479 636 410.5 c 128,-1,21
 636 342 636 342 601 342 c 0,22,23
 586 342 586 342 546.5 353.5 c 128,-1,24
 507 365 507 365 480 365 c 0,25,26
 433 365 433 365 410 334 c 128,-1,27
 387 303 387 303 387 257 c 128,-1,28
 387 211 387 211 414 178 c 128,-1,29
 441 145 441 145 501 145 c 0,30,31
 520 145 520 145 557 155 c 128,-1,32
 594 165 594 165 609 165 c 0,33,34
 644 165 644 165 646 98 c 0,35,36
 646 69 646 69 642.5 44 c 128,-1,37
 639 19 639 19 605 8 c 0,38,39
 516 -20 516 -20 425 -23 c 1,40,41
 425 -25 425 -25 427 -26 c 0,42,43
 480 -41 480 -41 480 -98 c 0,44,45
 480 -126 480 -126 452 -149 c 128,-1,46
 424 -172 424 -172 372 -174 c 1,47,-1
 360 -174 l 2,48,49
 281 -174 281 -174 281 -154 c 0,50,51
 281 -106 281 -106 296 -105 c 1,0,-1
EndSplineSet
EndChar

StartChar: egrave
Encoding: 232 232 109
Width: 742
Flags: HMW
HStem: -16 120<427 434.5> -16 169 211 93<404.5 555.5> 407 114<416 446> 568 153<381.5 389 389 389.5 257 458>
VStem: 480 222<330.5 368>
LayerCount: 2
Fore
SplineSet
424 695 m 1,0,-1
 476 597 l 1,1,2
 485 584 485 584 479.5 576 c 128,-1,3
 474 568 474 568 458 568 c 2,4,-1
 389 568 l 2,5,6
 369 568 369 568 352.5 581 c 128,-1,7
 336 594 336 594 318 609 c 128,-1,8
 300 624 300 624 279.5 641.5 c 128,-1,9
 259 659 259 659 247 669 c 128,-1,10
 235 679 235 679 228.5 691 c 128,-1,11
 222 703 222 703 228.5 712 c 128,-1,12
 235 721 235 721 257 721 c 2,13,-1
 377 721 l 2,14,15
 407 721 407 721 424 695 c 1,0,-1
292.5 511 m 128,-1,17
 341 521 341 521 412.5 521 c 128,-1,18
 484 521 484 521 549 503.5 c 128,-1,19
 614 486 614 486 645.5 455.5 c 0,20,21
 702 400.793650794 702 400.793650794 702 327 c 0,22,23
 702 211 702 211 506 211 c 0,24,25
 437 211 437 211 363 224 c 1,26,27
 366 158 366 158 387.5 131 c 128,-1,28
 409 104 409 104 464 104 c 128,-1,29
 519 104 519 104 555 116 c 128,-1,30
 591 128 591 128 613 140.5 c 128,-1,31
 635 153 635 153 650.5 153 c 128,-1,32
 666 153 666 153 677 139 c 1,33,34
 694 121 694 121 694 89.5 c 128,-1,35
 694 58 694 58 681.5 46.5 c 128,-1,36
 669 35 669 35 642 24 c 0,37,38
 547 -16 547 -16 372 -16 c 0,39,40
 227 -16 227 -16 133.5 53.5 c 128,-1,41
 40 123 40 123 40 241 c 0,42,43
 40 298 40 298 61 345.5 c 128,-1,44
 82 393 82 393 117 424.5 c 128,-1,45
 152 456 152 456 198 478.5 c 128,-1,16
 244 501 244 501 292.5 511 c 128,-1,17
430 407 m 0,46,47
 369 407 369 407 364 308 c 1,48,49
 412 304 412 304 414 304 c 0,50,51
 480 304 480 304 480 348 c 0,52,53
 480 407 480 407 430 407 c 0,46,47
EndSplineSet
EndChar

StartChar: ecircumflex
Encoding: 234 234 110
Width: 742
Flags: HMW
HStem: -16 120<427 434.5> -16 169 211 93<404.5 555.5> 407 114<416 446> 727 20G<384 450 450 458.5>
VStem: 480 222<330.5 368>
LayerCount: 2
Fore
SplineSet
292.5 511 m 128,-1,1
 341 521 341 521 412.5 521 c 128,-1,2
 484 521 484 521 549 503.5 c 128,-1,3
 614 486 614 486 645.5 455.5 c 0,4,5
 702 400.793650794 702 400.793650794 702 327 c 0,6,7
 702 211 702 211 506 211 c 0,8,9
 437 211 437 211 363 224 c 1,10,11
 366 158 366 158 387.5 131 c 128,-1,12
 409 104 409 104 464 104 c 128,-1,13
 519 104 519 104 555 116 c 128,-1,14
 591 128 591 128 613 140.5 c 128,-1,15
 635 153 635 153 650.5 153 c 128,-1,16
 666 153 666 153 677 139 c 1,17,18
 694 121 694 121 694 89.5 c 128,-1,19
 694 58 694 58 681.5 46.5 c 128,-1,20
 669 35 669 35 642 24 c 0,21,22
 547 -16 547 -16 372 -16 c 0,23,24
 227 -16 227 -16 133.5 53.5 c 128,-1,25
 40 123 40 123 40 241 c 0,26,27
 40 298 40 298 61 345.5 c 128,-1,28
 82 393 82 393 117 424.5 c 128,-1,29
 152 456 152 456 198 478.5 c 128,-1,0
 244 501 244 501 292.5 511 c 128,-1,1
430 407 m 0,30,31
 369 407 369 407 364 308 c 1,32,33
 412 304 412 304 414 304 c 0,34,35
 480 304 480 304 480 348 c 0,36,37
 480 407 480 407 430 407 c 0,30,31
384 747 m 2,38,-1
 450 747 l 2,39,40
 470 747 470 747 505 717 c 2,41,-1
 622 615 l 1,42,43
 627.142857143 607.285714286 627.142857143 607.285714286 627.142857143 598.5 c 0,44,45
 627.142857143 569.312169312 627.142857143 569.312169312 615.369300912 555.794382528 c 128,-1,46
 603.595744681 542.276595745 603.595744681 542.276595745 595.361702128 542.276595745 c 128,-1,47
 587.127659574 542.276595745 587.127659574 542.276595745 581 545 c 2,48,-1
 417 619 l 1,49,-1
 253 545 l 2,50,51
 246.872340426 542.276595745 246.872340426 542.276595745 238.638297872 542.276595745 c 128,-1,52
 230.404255319 542.276595745 230.404255319 542.276595745 219.20212766 555.138297872 c 128,-1,53
 208 568 208 568 207.428571429 578.857142857 c 128,-1,54
 206.857142857 589.714285714 206.857142857 589.714285714 206.857142857 598.5 c 128,-1,55
 206.857142857 607.285714286 206.857142857 607.285714286 212 615 c 1,56,-1
 329 717 l 2,57,58
 364 747 364 747 384 747 c 2,38,-1
EndSplineSet
EndChar

StartChar: eacute
Encoding: 233 233 111
Width: 742
Flags: HMW
HStem: -16 120<427 434.5> -16 169 211 93<404.5 555.5> 407 114<416 446> 568 153<351.5 563 362 563>
VStem: 480 222<330.5 368>
LayerCount: 2
Fore
SplineSet
344 597 m 1,0,-1
 396 695 l 1,1,2
 413 721 413 721 443 721 c 2,3,-1
 563 721 l 2,4,5
 585 721 585 721 591.5 712 c 128,-1,6
 598 703 598 703 591.5 691 c 128,-1,7
 585 679 585 679 573 669 c 128,-1,8
 561 659 561 659 540.5 641.5 c 0,9,10
 495.4 603 495.4 603 465 579 c 0,11,12
 451 568 451 568 431 568 c 2,13,-1
 362 568 l 2,14,15
 346 568 346 568 340.5 576 c 128,-1,16
 335 584 335 584 344 597 c 1,0,-1
292.5 511 m 128,-1,18
 341 521 341 521 412.5 521 c 128,-1,19
 484 521 484 521 549 503.5 c 128,-1,20
 614 486 614 486 645.5 455.5 c 0,21,22
 702 400.793650794 702 400.793650794 702 327 c 0,23,24
 702 211 702 211 506 211 c 0,25,26
 437 211 437 211 363 224 c 1,27,28
 366 158 366 158 387.5 131 c 128,-1,29
 409 104 409 104 464 104 c 128,-1,30
 519 104 519 104 555 116 c 128,-1,31
 591 128 591 128 613 140.5 c 128,-1,32
 635 153 635 153 650.5 153 c 128,-1,33
 666 153 666 153 677 139 c 1,34,35
 694 121 694 121 694 89.5 c 128,-1,36
 694 58 694 58 681.5 46.5 c 128,-1,37
 669 35 669 35 642 24 c 0,38,39
 547 -16 547 -16 372 -16 c 0,40,41
 227 -16 227 -16 133.5 53.5 c 128,-1,42
 40 123 40 123 40 241 c 0,43,44
 40 298 40 298 61 345.5 c 128,-1,45
 82 393 82 393 117 424.5 c 128,-1,46
 152 456 152 456 198 478.5 c 128,-1,17
 244 501 244 501 292.5 511 c 128,-1,18
430 407 m 0,47,48
 369 407 369 407 364 308 c 1,49,50
 412 304 412 304 414 304 c 0,51,52
 480 304 480 304 480 348 c 0,53,54
 480 407 480 407 430 407 c 0,47,48
EndSplineSet
EndChar

StartChar: edieresis
Encoding: 235 235 112
Width: 742
Flags: HMW
HStem: -16 120<427 434.5> -16 169 211 93<404.5 555.5> 407 114<416 446> 558 174<253.5 309.5 519.5 575.5>
VStem: 180 199<626.5 665> 446 199<626.5 665> 480 222<330.5 368>
LayerCount: 2
Fore
SplineSet
292.5 511 m 128,-1,1
 341 521 341 521 412.5 521 c 128,-1,2
 484 521 484 521 549 503.5 c 128,-1,3
 614 486 614 486 645.5 455.5 c 0,4,5
 702 400.793650794 702 400.793650794 702 327 c 0,6,7
 702 211 702 211 506 211 c 0,8,9
 437 211 437 211 363 224 c 1,10,11
 366 158 366 158 387.5 131 c 128,-1,12
 409 104 409 104 464 104 c 128,-1,13
 519 104 519 104 555 116 c 128,-1,14
 591 128 591 128 613 140.5 c 128,-1,15
 635 153 635 153 650.5 153 c 128,-1,16
 666 153 666 153 677 139 c 1,17,18
 694 121 694 121 694 89.5 c 128,-1,19
 694 58 694 58 681.5 46.5 c 128,-1,20
 669 35 669 35 642 24 c 0,21,22
 547 -16 547 -16 372 -16 c 0,23,24
 227 -16 227 -16 133.5 53.5 c 128,-1,25
 40 123 40 123 40 241 c 0,26,27
 40 298 40 298 61 345.5 c 128,-1,28
 82 393 82 393 117 424.5 c 128,-1,29
 152 456 152 456 198 478.5 c 128,-1,0
 244 501 244 501 292.5 511 c 128,-1,1
430 407 m 0,30,31
 369 407 369 407 364 308 c 1,32,33
 412 304 412 304 414 304 c 0,34,35
 480 304 480 304 480 348 c 0,36,37
 480 407 480 407 430 407 c 0,30,31
209 705.5 m 128,-1,39
 238 732 238 732 285.5 732 c 128,-1,40
 333 732 333 732 356 706.5 c 128,-1,41
 379 681 379 681 379 647 c 128,-1,42
 379 613 379 613 351 585.5 c 128,-1,43
 323 558 323 558 281 558 c 128,-1,44
 239 558 239 558 209.5 581 c 128,-1,45
 180 604 180 604 180 641.5 c 128,-1,38
 180 679 180 679 209 705.5 c 128,-1,39
475 705.5 m 128,-1,47
 504 732 504 732 551.5 732 c 128,-1,48
 599 732 599 732 622 706.5 c 128,-1,49
 645 681 645 681 645 647 c 128,-1,50
 645 613 645 613 617 585.5 c 128,-1,51
 589 558 589 558 547 558 c 128,-1,52
 505 558 505 558 475.5 581 c 128,-1,53
 446 604 446 604 446 641.5 c 128,-1,46
 446 679 446 679 475 705.5 c 128,-1,47
EndSplineSet
EndChar

StartChar: hbar
Encoding: 295 295 113
Width: 866
Flags: HMW
HStem: -20 20G<111.5 161.5 123 319> 347 175<429 640.5> 528 122<45 46 46 65> 711 20G<125 317 317 341>
LayerCount: 2
Fore
SplineSet
67 650 m 1,0,-1
 68 666 l 1,1,2
 69 699 69 699 80.5 715 c 128,-1,3
 92 731 92 731 125 731 c 2,4,-1
 317 731 l 2,5,6
 350 731 350 731 361.5 715.5 c 128,-1,7
 373 700 373 700 374 678 c 128,-1,8
 375 656 375 656 376 650 c 1,9,-1
 410 650 l 2,10,11
 434 650 434 650 446 639 c 128,-1,12
 458 628 458 628 458 588.5 c 128,-1,13
 458 549 458 549 446.5 538 c 128,-1,14
 435 527 435 527 409 527 c 2,15,-1
 379 527 l 1,16,17
 379 472 379 472 380 443 c 1,18,19
 458 522 458 522 567.5 522 c 128,-1,20
 677 522 677 522 740 468 c 128,-1,21
 803 414 803 414 804.5 319 c 128,-1,22
 806 224 806 224 806 149 c 128,-1,23
 806 74 806 74 805 48 c 128,-1,24
 804 22 804 22 791.5 10.5 c 128,-1,25
 779 -1 779 -1 743 -1 c 2,26,-1
 551 -3 l 2,27,28
 519 -3 519 -3 506.5 8.5 c 128,-1,29
 494 20 494 20 494 43 c 2,30,-1
 495 287 l 2,31,32
 495 317 495 317 480 332 c 128,-1,33
 465 347 465 347 442.5 347 c 128,-1,34
 420 347 420 347 402 331.5 c 128,-1,35
 384 316 384 316 383 288 c 2,36,-1
 377 47 l 2,37,38
 376 28 376 28 359 15 c 128,-1,39
 342 2 342 2 317.5 0 c 128,-1,40
 293 -2 293 -2 263 -2 c 2,41,-1
 123 0 l 2,42,43
 104 0 104 0 85.5 13.5 c 128,-1,44
 67 27 67 27 67 47 c 2,45,-1
 65 374 l 1,46,-1
 65 528 l 1,47,-1
 46 528 l 2,48,49
 20 528 20 528 8.5 539 c 128,-1,50
 -3 550 -3 550 -3 589.5 c 128,-1,51
 -3 629 -3 629 8.5 639.5 c 128,-1,52
 20 650 20 650 45 650 c 2,53,-1
 67 650 l 1,0,-1
EndSplineSet
EndChar

StartChar: dotlessi
Encoding: 305 305 114
Width: 443
Flags: HMW
HStem: -4 21G<214.5 238> 486 20G<124 319 319 344>
LayerCount: 2
Fore
SplineSet
124 506 m 2,0,-1
 319 506 l 2,1,2
 353 506 353 506 364.5 491 c 128,-1,3
 376 476 376 476 379.5 424.5 c 0,4,5
 383 373 383 373 383 236.5 c 0,6,7
 383 100 383 100 377 44 c 1,8,9
 374 27 374 27 360 14 c 128,-1,10
 346 1 346 1 310.5 -1.5 c 0,11,12
 275 -4 275 -4 226 -4 c 128,-1,13
 177 -4 177 -4 137 -1.5 c 0,14,15
 97 1 97 1 83 14 c 128,-1,16
 69 27 69 27 67 44 c 0,17,18
 60 109 60 109 60 243.5 c 0,19,20
 60 378 60 378 64 427 c 0,21,22
 68 476 68 476 79 491 c 128,-1,23
 90 506 90 506 124 506 c 2,0,-1
EndSplineSet
EndChar

StartChar: igrave
Encoding: 236 236 115
Width: 443
Flags: HMW
HStem: -4 21G<214.5 238> 570 153<223.5 231 231 231.5 99 300>
LayerCount: 2
Fore
SplineSet
266 697 m 1,0,-1
 318 599 l 1,1,2
 327 586 327 586 321.5 578 c 128,-1,3
 316 570 316 570 300 570 c 2,4,-1
 231 570 l 2,5,6
 211 570 211 570 194.5 583 c 0,7,8
 178 596 178 596 160 611 c 128,-1,9
 142 626 142 626 121.5 643.5 c 128,-1,10
 101 661 101 661 89 671 c 128,-1,11
 77 681 77 681 70.5 693 c 128,-1,12
 64 705 64 705 70.5 714 c 128,-1,13
 77 723 77 723 99 723 c 2,14,-1
 219 723 l 2,15,16
 249 723 249 723 266 697 c 1,0,-1
124 506 m 2,17,-1
 319 506 l 2,18,19
 353 506 353 506 364.5 491 c 128,-1,20
 376 476 376 476 379.5 424.5 c 0,21,22
 383 373 383 373 383 236.5 c 0,23,24
 383 100 383 100 377 44 c 1,25,26
 374 27 374 27 360 14 c 128,-1,27
 346 1 346 1 310.5 -1.5 c 0,28,29
 275 -4 275 -4 226 -4 c 128,-1,30
 177 -4 177 -4 137 -1.5 c 0,31,32
 97 1 97 1 83 14 c 128,-1,33
 69 27 69 27 67 44 c 0,34,35
 60 109 60 109 60 243.5 c 0,36,37
 60 378 60 378 64 427 c 0,38,39
 68 476 68 476 79 491 c 128,-1,40
 90 506 90 506 124 506 c 2,17,-1
EndSplineSet
EndChar

StartChar: icircumflex
Encoding: 238 238 116
Width: 443
Flags: HMW
HStem: -4 21G<214.5 238> 726 20G<189 255 255 263.5>
LayerCount: 2
Fore
SplineSet
124 506 m 2,0,-1
 319 506 l 2,1,2
 353 506 353 506 364.5 491 c 128,-1,3
 376 476 376 476 379.5 424.5 c 128,-1,4
 383 373 383 373 383 236.5 c 128,-1,5
 383 100 383 100 377 44 c 1,6,7
 374 27 374 27 360 14 c 128,-1,8
 346 1 346 1 310.5 -1.5 c 128,-1,9
 275 -4 275 -4 226 -4 c 128,-1,10
 177 -4 177 -4 137 -1.5 c 128,-1,11
 97 1 97 1 83 14 c 128,-1,12
 69 27 69 27 67 44 c 0,13,14
 60 109 60 109 60 243.5 c 128,-1,15
 60 378 60 378 64 427 c 128,-1,16
 68 476 68 476 79 491 c 128,-1,17
 90 506 90 506 124 506 c 2,0,-1
189 746 m 2,18,-1
 255 746 l 2,19,20
 275 746 275 746 310 716 c 2,21,-1
 427 614 l 1,22,23
 432.142857143 606.285714286 432.142857143 606.285714286 432.142857143 597.5 c 0,24,25
 432.142857143 568.312169312 432.142857143 568.312169312 420.369300912 554.794382528 c 128,-1,26
 408.595744681 541.276595745 408.595744681 541.276595745 400.361702128 541.276595745 c 128,-1,27
 392.127659574 541.276595745 392.127659574 541.276595745 386 544 c 2,28,-1
 222 618 l 1,29,-1
 58 544 l 2,30,31
 51.8723404255 541.276595745 51.8723404255 541.276595745 43.6382978723 541.276595745 c 128,-1,32
 35.4042553191 541.276595745 35.4042553191 541.276595745 24.2021276596 554.138297872 c 128,-1,33
 13 567 13 567 12.4285714286 577.857142857 c 128,-1,34
 11.8571428571 588.714285714 11.8571428571 588.714285714 11.8571428571 597.5 c 128,-1,35
 11.8571428571 606.285714286 11.8571428571 606.285714286 17 614 c 1,36,-1
 134 716 l 2,37,38
 169 746 169 746 189 746 c 2,18,-1
EndSplineSet
EndChar

StartChar: iacute
Encoding: 237 237 117
Width: 443
Flags: HMW
HStem: -4 21G<214.5 238> 570 153<160.5 372 171 372>
LayerCount: 2
Fore
SplineSet
372 723 m 2,0,1
 403.75 723 403.75 723 403.75 704.25 c 0,2,3
 403.75 689.125 403.75 689.125 386.875 675.0625 c 128,-1,4
 370 661 370 661 349.5 643.5 c 0,5,6
 304.4 605 304.4 605 274 581 c 0,7,8
 260 570 260 570 240 570 c 2,9,-1
 171 570 l 2,10,11
 155 570 155 570 149.5 578 c 128,-1,12
 144 586 144 586 153 599 c 1,13,-1
 205 697 l 1,14,15
 222 723 222 723 252 723 c 2,16,-1
 372 723 l 2,0,1
124 506 m 2,17,-1
 319 506 l 2,18,19
 353 506 353 506 364.5 491 c 128,-1,20
 376 476 376 476 379.5 424.5 c 128,-1,21
 383 373 383 373 383 236.5 c 128,-1,22
 383 100 383 100 377 44 c 1,23,24
 374 27 374 27 360 14 c 128,-1,25
 346 1 346 1 310.5 -1.5 c 128,-1,26
 275 -4 275 -4 226 -4 c 128,-1,27
 177 -4 177 -4 137 -1.5 c 128,-1,28
 97 1 97 1 83 14 c 128,-1,29
 69 27 69 27 67 44 c 0,30,31
 60 109 60 109 60 243.5 c 128,-1,32
 60 378 60 378 64 427 c 128,-1,33
 68 476 68 476 79 491 c 128,-1,34
 90 506 90 506 124 506 c 2,17,-1
EndSplineSet
EndChar

StartChar: idieresis
Encoding: 239 239 118
Width: 443
Flags: HMW
HStem: -4 21G<214.5 238> 557 174<62.5 118.5 328.5 384.5>
VStem: -11 199<625.5 664> 255 199<625.5 664>
LayerCount: 2
Fore
SplineSet
124 506 m 2,0,-1
 319 506 l 2,1,2
 353 506 353 506 364.5 491 c 128,-1,3
 376 476 376 476 379.5 424.5 c 128,-1,4
 383 373 383 373 383 236.5 c 128,-1,5
 383 100 383 100 377 44 c 1,6,7
 374 27 374 27 360 14 c 128,-1,8
 346 1 346 1 310.5 -1.5 c 128,-1,9
 275 -4 275 -4 226 -4 c 128,-1,10
 177 -4 177 -4 137 -1.5 c 128,-1,11
 97 1 97 1 83 14 c 128,-1,12
 69 27 69 27 67 44 c 0,13,14
 60 109 60 109 60 243.5 c 128,-1,15
 60 378 60 378 64 427 c 128,-1,16
 68 476 68 476 79 491 c 128,-1,17
 90 506 90 506 124 506 c 2,0,-1
18 704.5 m 128,-1,19
 47 731 47 731 94.5 731 c 128,-1,20
 142 731 142 731 165 705.5 c 128,-1,21
 188 680 188 680 188 646 c 128,-1,22
 188 612 188 612 160 584.5 c 128,-1,23
 132 557 132 557 90 557 c 128,-1,24
 48 557 48 557 18.5 580 c 128,-1,25
 -11 603 -11 603 -11 640.5 c 128,-1,18
 -11 678 -11 678 18 704.5 c 128,-1,19
284 704.5 m 128,-1,27
 313 731 313 731 360.5 731 c 128,-1,28
 408 731 408 731 431 705.5 c 128,-1,29
 454 680 454 680 454 646 c 128,-1,30
 454 612 454 612 426 584.5 c 128,-1,31
 398 557 398 557 356 557 c 128,-1,32
 314 557 314 557 284.5 580 c 128,-1,33
 255 603 255 603 255 640.5 c 128,-1,26
 255 678 255 678 284 704.5 c 128,-1,27
EndSplineSet
EndChar

StartChar: itilde
Encoding: 297 297 119
Width: 443
Flags: HMW
HStem: -4 21G<214.5 238> 554 127<273 308.5 273 331.5> 613 68 613 127<129.5 165>
LayerCount: 2
Fore
SplineSet
284 554 m 0,0,1
 250 554 250 554 206.5 583.5 c 128,-1,2
 163 613 163 613 143.5 613 c 0,3,4
 124 613 124 613 113 603.5 c 128,-1,5
 102 594 102 594 91 571 c 1,6,7
 82 562 82 562 72 562 c 2,8,-1
 8 562 l 2,9,10
 -5 562 -5 562 -5 585 c 0,11,12
 -5 658 -5 658 38.5 699 c 128,-1,13
 82 740 82 740 154 740 c 0,14,15
 188 740 188 740 231.5 710.5 c 128,-1,16
 275 681 275 681 294.5 681 c 0,17,18
 314 681 314 681 325 690.5 c 128,-1,19
 336 700 336 700 347 723 c 1,20,21
 356 732 356 732 366 732 c 2,22,-1
 430 732 l 2,23,24
 443 732 443 732 443 709 c 0,25,26
 443 636 443 636 399.5 595 c 128,-1,27
 356 554 356 554 284 554 c 0,0,1
124 506 m 2,28,-1
 319 506 l 2,29,30
 353 506 353 506 364.5 491 c 128,-1,31
 376 476 376 476 379.5 424.5 c 0,32,33
 383 373 383 373 383 236.5 c 0,34,35
 383 100 383 100 377 44 c 1,36,37
 374 27 374 27 360 14 c 128,-1,38
 346 1 346 1 310.5 -1.5 c 0,39,40
 275 -4 275 -4 226 -4 c 128,-1,41
 177 -4 177 -4 137 -1.5 c 0,42,43
 97 1 97 1 83 14 c 128,-1,44
 69 27 69 27 67 44 c 0,45,46
 60 109 60 109 60 243.5 c 0,47,48
 60 378 60 378 64 427 c 0,49,50
 68 476 68 476 79 491 c 128,-1,51
 90 506 90 506 124 506 c 2,28,-1
EndSplineSet
EndChar

StartChar: ij
Encoding: 307 307 120
Width: 884
Flags: HMW
HStem: -174 21G<408.5 544> 535 207<186 266 627 707>
LayerCount: 2
Fore
SplineSet
124 506 m 2,0,-1
 319 506 l 2,1,2
 353 506 353 506 364.5 491 c 128,-1,3
 376 476 376 476 379.5 424.5 c 128,-1,4
 383 373 383 373 383 236.5 c 128,-1,5
 383 100 383 100 377 44 c 1,6,7
 374 27 374 27 360 14 c 128,-1,8
 346 1 346 1 310.5 -1.5 c 128,-1,9
 275 -4 275 -4 226 -4 c 128,-1,10
 177 -4 177 -4 137 -1.5 c 128,-1,11
 97 1 97 1 83 14 c 128,-1,12
 69 27 69 27 67 44 c 0,13,14
 60 109 60 109 60 243.5 c 128,-1,15
 60 378 60 378 64 427 c 128,-1,16
 68 476 68 476 79 491 c 128,-1,17
 90 506 90 506 124 506 c 2,0,-1
232 742 m 0,18,19
 298 742 298 742 331.5 715.5 c 128,-1,20
 365 689 365 689 365 643 c 0,21,22
 365 535 365 535 221 535 c 0,23,24
 163 535 163 535 122 560 c 128,-1,25
 81 585 81 585 81 635 c 0,26,27
 81 742 81 742 232 742 c 0,18,19
824 252 m 1,28,-1
 820 59 l 1,29,30
 820 -78.5454545455 820 -78.5454545455 709 -129 c 0,31,32
 610 -174 610 -174 431 -174 c 0,33,34
 399 -174 399 -174 388.5 -154.5 c 128,-1,35
 378 -135 378 -135 378 -87.5 c 128,-1,36
 378 -40 378 -40 415 -36 c 0,37,38
 507 -25 507 -25 507 62 c 2,39,-1
 506 440 l 2,40,41
 506 474 506 474 518 490 c 128,-1,42
 530 506 530 506 565 506 c 2,43,-1
 760 506 l 2,44,45
 795 506 795 506 806.5 490.5 c 128,-1,46
 818 475 818 475 820 440 c 0,47,48
 824 355 824 355 824 252 c 1,28,-1
673 742 m 0,49,50
 739 742 739 742 772.5 715.5 c 128,-1,51
 806 689 806 689 806 643 c 0,52,53
 806 535 806 535 662 535 c 0,54,55
 604 535 604 535 563 560 c 128,-1,56
 522 585 522 585 522 635 c 0,57,58
 522 742 522 742 673 742 c 0,49,50
EndSplineSet
EndChar

StartChar: jcircumflex
Encoding: 309 309 121
Width: 456
Flags: HMW
HStem: -174 21G<-19.5 116> 726 20G<204 270 270 278.5>
LayerCount: 2
Fore
SplineSet
204 746 m 2,0,-1
 270 746 l 2,1,2
 290 746 290 746 325 716 c 2,3,-1
 442 614 l 1,4,5
 447.142857143 606.285714286 447.142857143 606.285714286 447.142857143 597.5 c 0,6,7
 447.142857143 568.312169312 447.142857143 568.312169312 435.369300912 554.794382528 c 128,-1,8
 423.595744681 541.276595745 423.595744681 541.276595745 415.361702128 541.276595745 c 128,-1,9
 407.127659574 541.276595745 407.127659574 541.276595745 401 544 c 2,10,-1
 237 618 l 1,11,-1
 73 544 l 2,12,13
 66.8723404255 541.276595745 66.8723404255 541.276595745 58.6382978723 541.276595745 c 128,-1,14
 50.4042553191 541.276595745 50.4042553191 541.276595745 39.2021276596 554.138297872 c 128,-1,15
 28 567 28 567 27 586 c 128,-1,16
 26 605 26 605 32 614 c 1,17,-1
 149 716 l 2,18,19
 184 746 184 746 204 746 c 2,0,-1
396 252 m 1,20,-1
 392 59 l 1,21,22
 392 -78.5454545455 392 -78.5454545455 281 -129 c 0,23,24
 182 -174 182 -174 3 -174 c 0,25,26
 -29 -174 -29 -174 -39.5 -154.5 c 128,-1,27
 -50 -135 -50 -135 -50 -87.5 c 128,-1,28
 -50 -40 -50 -40 -13 -36 c 0,29,30
 79 -25 79 -25 79 62 c 2,31,-1
 78 440 l 2,32,33
 78 474 78 474 90 490 c 128,-1,34
 102 506 102 506 137 506 c 2,35,-1
 332 506 l 2,36,37
 367 506 367 506 378.5 490.5 c 128,-1,38
 390 475 390 475 392 440 c 0,39,40
 396 355 396 355 396 252 c 1,20,-1
EndSplineSet
EndChar

StartChar: kcommaaccent
Encoding: 311 311 122
Width: 851
Flags: HMW
HStem: -215 180<283.5 456> -20 20G<526.5 547.5> 711 20G<125 317 317 341>
LayerCount: 2
Fore
SplineSet
646 -1 m 1,0,-1
 536 0 l 2,1,2
 498 0 498 0 483 23 c 2,3,-1
 390 171 l 1,4,5
 382 177 382 177 380.5 175.5 c 128,-1,6
 379 174 379 174 378.5 141.5 c 128,-1,7
 378 109 378 109 373 43 c 0,8,9
 371 27 371 27 357 14 c 128,-1,10
 343 1 343 1 309.5 -1 c 128,-1,11
 276 -3 276 -3 228.5 -3 c 128,-1,12
 181 -3 181 -3 123 0 c 0,13,14
 99 1 99 1 85.5 13.5 c 128,-1,15
 72 26 72 26 70 43 c 0,16,17
 60 165 60 165 60 369 c 128,-1,18
 60 573 60 573 68 666 c 0,19,20
 71 700 71 700 81.5 715.5 c 128,-1,21
 92 731 92 731 125 731 c 2,22,-1
 317 731 l 2,23,24
 350 731 350 731 361 715.5 c 128,-1,25
 372 700 372 700 375 666 c 0,26,27
 381 579 381 579 381 374 c 0,28,29
 381 350.886792453 381 350.886792453 389.285866857 350.886792453 c 0,30,31
 393.547169811 350.886792453 393.547169811 350.886792453 400 357 c 2,32,-1
 531 477 l 2,33,34
 548 492 548 492 559 496.5 c 128,-1,35
 570 501 570 501 590 501 c 2,36,-1
 736 501 l 2,37,38
 749 501 749 501 755 484.5 c 0,39,40
 756.8 479.55 756.8 479.55 756.8 471.675 c 128,-1,41
 756.8 463.8 756.8 463.8 747 454 c 2,42,-1
 608 332 l 2,43,44
 600 324 600 324 608 315 c 0,45,46
 703 203 703 203 810 53 c 0,47,48
 821.130434783 37.6956521739 821.130434783 37.6956521739 821.130434783 25.7788279773 c 0,49,50
 821.130434783 1 821.130434783 1 784 1 c 2,51,-1
 646 -1 l 1,0,-1
268.5 -199 m 128,-1,53
 257 -183 257 -183 257 -171 c 128,-1,54
 257 -159 257 -159 268 -155 c 0,55,56
 332.755102041 -132.846938776 332.755102041 -132.846938776 342 -82 c 0,57,58
 346 -60 346 -60 350 -54 c 0,59,60
 363 -35 363 -35 407 -35 c 2,61,-1
 456 -35 l 2,62,63
 499 -35 499 -35 499 -73 c 0,64,65
 499 -101 499 -101 474.5 -134 c 128,-1,66
 450 -167 450 -167 392 -191 c 128,-1,67
 334 -215 334 -215 290 -215 c 0,68,52
 280 -215 280 -215 268.5 -199 c 128,-1,53
EndSplineSet
EndChar

StartChar: kgreenlandic
Encoding: 312 312 123
Width: 851
Flags: HMW
HStem: -20 20G<533 554> -2 21G<202 236 632.5 671> 321 205<679 698 610 728> 352 174<610 630.5>
LayerCount: 2
Fore
SplineSet
652 -2 m 1,0,-1
 533 0 l 1,1,2
 496 2 496 2 483 23 c 1,3,-1
 393 148 l 2,4,5
 388 154 388 154 383.5 152.5 c 128,-1,6
 379 151 379 151 378.5 134 c 128,-1,7
 378 117 378 117 373 43 c 0,8,9
 371 27 371 27 357 14 c 128,-1,10
 343 1 343 1 315.5 -0.5 c 128,-1,11
 288 -2 288 -2 220 -2 c 128,-1,12
 152 -2 152 -2 127 0 c 1,13,14
 68 2 68 2 64 44 c 0,15,16
 57 109 57 109 57 243.5 c 128,-1,17
 57 378 57 378 61 427 c 128,-1,18
 65 476 65 476 76 491 c 128,-1,19
 87 506 87 506 121 506 c 2,20,-1
 316 506 l 2,21,22
 350 506 350 506 363 491.5 c 128,-1,23
 376 477 376 477 376 448 c 2,24,-1
 376 356 l 2,25,26
 376 340 376 340 385 340 c 0,27,28
 390 340 390 340 394 347 c 0,29,30
 443 430 443 430 513.5 478 c 128,-1,31
 584 526 584 526 668 526 c 0,32,33
 716 526 716 526 752 497 c 128,-1,34
 788 468 788 468 788 423.5 c 128,-1,35
 788 379 788 379 764 350 c 128,-1,36
 740 321 740 321 700 321 c 0,37,38
 677 321 677 321 652.5 336.5 c 128,-1,39
 628 352 628 352 619 352 c 0,40,41
 584 352 584 352 559 316 c 1,42,43
 667 217 667 217 798 66 c 1,44,45
 813 47 813 47 813 32 c 0,46,47
 813 1 813 1 770.5 -0.5 c 128,-1,48
 728 -2 728 -2 652 -2 c 1,0,-1
EndSplineSet
EndChar

StartChar: ldot
Encoding: 320 320 124
Width: 689
Flags: HMW
HStem: -4 21G<214 237> 255 224<527.5 597> 711 20G<125 317 317 341>
VStem: 435 249<342.5 393>
LayerCount: 2
Fore
SplineSet
470.5 445 m 128,-1,1
 506 479 506 479 566 479 c 128,-1,2
 626 479 626 479 655 446 c 128,-1,3
 684 413 684 413 684 369.5 c 128,-1,4
 684 326 684 326 649 290.5 c 128,-1,5
 614 255 614 255 561.5 255 c 128,-1,6
 509 255 509 255 472 284.5 c 128,-1,7
 435 314 435 314 435 362.5 c 128,-1,0
 435 411 435 411 470.5 445 c 128,-1,1
125 731 m 2,8,-1
 317 731 l 2,9,10
 350 731 350 731 361 715.5 c 128,-1,11
 372 700 372 700 375 666 c 1,12,13
 381 546 381 546 381 334.5 c 128,-1,14
 381 123 381 123 373 43 c 0,15,16
 371 27 371 27 357 14 c 128,-1,17
 343 1 343 1 307.5 -1.5 c 128,-1,18
 272 -4 272 -4 224 -4 c 128,-1,19
 176 -4 176 -4 137.5 -1.5 c 0,20,21
 72.5175224124 2.71964140179 72.5175224124 2.71964140179 70 43 c 1,22,23
 60 130 60 130 60 351.5 c 128,-1,24
 60 573 60 573 68 666 c 0,25,26
 71 700 71 700 81.5 715.5 c 128,-1,27
 92 731 92 731 125 731 c 2,8,-1
EndSplineSet
EndChar

StartChar: lslash
Encoding: 322 322 125
Width: 441
Flags: HMW
HStem: -4 21G<214 237> 711 20G<125 317 317 341>
LayerCount: 2
Fore
SplineSet
4.5 255 m 0,0,1
 -19 255 -19 255 -19 301.5 c 128,-1,2
 -19 348 -19 348 -7.5 361.5 c 128,-1,3
 4 375 4 375 30 380 c 2,4,-1
 60 386 l 1,5,6
 60 580 60 580 65.5 640 c 128,-1,7
 71 700 71 700 81.5 715.5 c 128,-1,8
 92 731 92 731 125 731 c 2,9,-1
 317 731 l 2,10,11
 350 731 350 731 361 715.5 c 128,-1,12
 372 700 372 700 375 666 c 1,13,14
 378 590 378 590 380 451 c 1,15,-1
 417 459 l 2,16,17
 430 461 430 461 440.5 460.5 c 0,18,19
 464 459.380952381 464 459.380952381 464 413.19047619 c 128,-1,20
 464 367 464 367 452.5 353.5 c 128,-1,21
 441 340 441 340 415 335 c 2,22,-1
 381 328 l 1,23,24
 381 133 381 133 373 43 c 0,25,26
 371 27 371 27 357 14 c 128,-1,27
 343 1 343 1 307.5 -1.5 c 128,-1,28
 272 -4 272 -4 224 -4 c 128,-1,29
 176 -4 176 -4 137.5 -1.5 c 0,30,31
 72.5175224124 2.71964140179 72.5175224124 2.71964140179 70 43 c 1,32,33
 62 119 62 119 60 263 c 1,34,-1
 28 257 l 2,35,36
 15 255 15 255 4.5 255 c 0,0,1
EndSplineSet
EndChar

StartChar: nacute
Encoding: 324 324 126
Width: 866
Flags: HMW
HStem: -3 21G<528 551> 347 162<124 456.5> 347 175<429 640.5> 570 153<399.5 611 410 611>
LayerCount: 2
Fore
SplineSet
392 599 m 1,0,-1
 444 697 l 1,1,2
 461 723 461 723 491 723 c 2,3,-1
 611 723 l 2,4,5
 633 723 633 723 639.5 714 c 128,-1,6
 646 705 646 705 639.5 693 c 128,-1,7
 633 681 633 681 621 671 c 128,-1,8
 609 661 609 661 588.5 643.5 c 0,9,10
 543.4 605 543.4 605 513 581 c 0,11,12
 499 570 499 570 479 570 c 2,13,-1
 410 570 l 2,14,15
 394 570 394 570 388.5 578 c 128,-1,16
 383 586 383 586 392 599 c 1,0,-1
494 43 m 2,17,-1
 495 287 l 2,18,19
 495 317 495 317 480 332 c 128,-1,20
 465 347 465 347 442.5 347 c 128,-1,21
 420 347 420 347 401.5 331.5 c 128,-1,22
 383 316 383 316 383 288 c 2,23,-1
 383 227 l 2,24,25
 383 95 383 95 377 47 c 0,26,27
 374 30 374 30 360 17 c 128,-1,28
 346 4 346 4 310.5 1.5 c 128,-1,29
 275 -1 275 -1 240 -1 c 128,-1,30
 205 -1 205 -1 121 3 c 0,31,32
 97 4 97 4 83 17 c 128,-1,33
 69 30 69 30 67 47 c 0,34,35
 60 112 60 112 60 246 c 128,-1,36
 60 380 60 380 64 429.5 c 128,-1,37
 68 479 68 479 79 494 c 128,-1,38
 90 509 90 509 124 509 c 2,39,-1
 319 509 l 2,40,41
 353 509 353 509 364.5 494 c 128,-1,42
 376 479 376 479 379 443 c 1,43,-1
 379 442 l 1,44,45
 456 522 456 522 566.5 522 c 128,-1,46
 677 522 677 522 740 468 c 128,-1,47
 803 414 803 414 804.5 319 c 128,-1,48
 806 224 806 224 806 149 c 128,-1,49
 806 74 806 74 805 48 c 128,-1,50
 804 22 804 22 791.5 10.5 c 128,-1,51
 779 -1 779 -1 743 -1 c 2,52,-1
 551 -3 l 2,53,54
 519 -3 519 -3 506.5 8.5 c 128,-1,55
 494 20 494 20 494 43 c 2,17,-1
EndSplineSet
EndChar

StartChar: ntilde
Encoding: 241 241 127
Width: 866
Flags: HMW
HStem: -3 21G<528 551> 347 162<124 456.5> 347 175<429 640.5> 554 127<518 553.5 518 576.5> 613 68 613 127<374.5 410>
LayerCount: 2
Fore
SplineSet
529 554 m 0,0,1
 495 554 495 554 451.5 583.5 c 128,-1,2
 408 613 408 613 388.5 613 c 128,-1,3
 369 613 369 613 358 603.5 c 128,-1,4
 347 594 347 594 336 571 c 1,5,6
 327 562 327 562 317 562 c 2,7,-1
 253 562 l 2,8,9
 240 562 240 562 240 585 c 0,10,11
 240 658 240 658 283.5 699 c 128,-1,12
 327 740 327 740 399 740 c 0,13,14
 433 740 433 740 476.5 710.5 c 128,-1,15
 520 681 520 681 539.5 681 c 128,-1,16
 559 681 559 681 570 690.5 c 128,-1,17
 581 700 581 700 592 723 c 1,18,19
 601 732 601 732 611 732 c 2,20,-1
 675 732 l 2,21,22
 688 732 688 732 688 709 c 0,23,24
 688 636 688 636 644.5 595 c 128,-1,25
 601 554 601 554 529 554 c 0,0,1
494 43 m 2,26,-1
 495 287 l 2,27,28
 495 317 495 317 480 332 c 128,-1,29
 465 347 465 347 442.5 347 c 128,-1,30
 420 347 420 347 401.5 331.5 c 128,-1,31
 383 316 383 316 383 288 c 2,32,-1
 383 227 l 2,33,34
 383 95 383 95 377 47 c 0,35,36
 374 30 374 30 360 17 c 128,-1,37
 346 4 346 4 310.5 1.5 c 128,-1,38
 275 -1 275 -1 240 -1 c 128,-1,39
 205 -1 205 -1 121 3 c 0,40,41
 97 4 97 4 83 17 c 128,-1,42
 69 30 69 30 67 47 c 0,43,44
 60 112 60 112 60 246 c 128,-1,45
 60 380 60 380 64 429.5 c 128,-1,46
 68 479 68 479 79 494 c 128,-1,47
 90 509 90 509 124 509 c 2,48,-1
 319 509 l 2,49,50
 353 509 353 509 364.5 494 c 128,-1,51
 376 479 376 479 379 443 c 1,52,-1
 379 442 l 1,53,54
 456 522 456 522 566.5 522 c 128,-1,55
 677 522 677 522 740 468 c 128,-1,56
 803 414 803 414 804.5 319 c 128,-1,57
 806 224 806 224 806 149 c 128,-1,58
 806 74 806 74 805 48 c 128,-1,59
 804 22 804 22 791.5 10.5 c 128,-1,60
 779 -1 779 -1 743 -1 c 2,61,-1
 551 -3 l 2,62,63
 519 -3 519 -3 506.5 8.5 c 128,-1,64
 494 20 494 20 494 43 c 2,26,-1
EndSplineSet
EndChar

StartChar: ograve
Encoding: 242 242 128
Width: 826
Flags: HMW
HStem: -22 160<388 438 388 537> 356 165<388 438> 570 153<367.5 375 375 375.5 243 444>
LayerCount: 2
Fore
SplineSet
410 697 m 1,0,-1
 462 599 l 1,1,2
 471 586 471 586 465.5 578 c 128,-1,3
 460 570 460 570 444 570 c 2,4,-1
 375 570 l 2,5,6
 355 570 355 570 341 581 c 2,7,-1
 233 671 l 2,8,9
 202.063583815 696.780346821 202.063583815 696.780346821 214.5 714 c 0,10,11
 221 723 221 723 243 723 c 2,12,-1
 363 723 l 2,13,14
 393 723 393 723 410 697 c 1,0,-1
413 138 m 128,-1,16
 472 138 472 138 472 250 c 0,17,18
 472 301 472 301 460 328.5 c 128,-1,19
 448 356 448 356 413 356 c 128,-1,20
 378 356 378 356 366 328.5 c 128,-1,21
 354 301 354 301 354 250 c 0,22,15
 354 138 354 138 413 138 c 128,-1,16
413 -22 m 128,-1,24
 40 -22 40 -22 40 250 c 0,25,26
 40 379 40 379 135 450 c 128,-1,27
 230 521 230 521 413 521 c 128,-1,28
 596 521 596 521 691 450 c 128,-1,29
 786 379 786 379 786 250 c 0,30,23
 786 -22 786 -22 413 -22 c 128,-1,24
EndSplineSet
EndChar

StartChar: ocircumflex
Encoding: 244 244 129
Width: 826
Flags: HMW
HStem: -22 160<388 438 388 537> 356 165<388 438> 725 20G<380 446 446 454.5>
LayerCount: 2
Fore
SplineSet
413 138 m 128,-1,1
 472 138 472 138 472 250 c 0,2,3
 472 301 472 301 460 328.5 c 128,-1,4
 448 356 448 356 413 356 c 128,-1,5
 378 356 378 356 366 328.5 c 128,-1,6
 354 301 354 301 354 250 c 0,7,0
 354 138 354 138 413 138 c 128,-1,1
413 -22 m 128,-1,9
 40 -22 40 -22 40 250 c 0,10,11
 40 379 40 379 135 450 c 128,-1,12
 230 521 230 521 413 521 c 128,-1,13
 596 521 596 521 691 450 c 128,-1,14
 786 379 786 379 786 250 c 0,15,8
 786 -22 786 -22 413 -22 c 128,-1,9
380 745 m 2,16,-1
 446 745 l 2,17,18
 466 745 466 745 501 715 c 2,19,-1
 618 613 l 1,20,21
 623.142857143 605.285714286 623.142857143 605.285714286 623.142857143 596.5 c 0,22,23
 623.142857143 567.312169312 623.142857143 567.312169312 611.369300912 553.794382528 c 128,-1,24
 599.595744681 540.276595745 599.595744681 540.276595745 591.361702128 540.276595745 c 128,-1,25
 583.127659574 540.276595745 583.127659574 540.276595745 577 543 c 2,26,-1
 413 617 l 1,27,-1
 249 543 l 2,28,29
 242.872340426 540.276595745 242.872340426 540.276595745 234.638297872 540.276595745 c 128,-1,30
 226.404255319 540.276595745 226.404255319 540.276595745 215.20212766 553.138297872 c 128,-1,31
 204 566 204 566 203.428571429 576.857142857 c 128,-1,32
 202.857142857 587.714285714 202.857142857 587.714285714 202.857142857 596.5 c 128,-1,33
 202.857142857 605.285714286 202.857142857 605.285714286 208 613 c 1,34,-1
 325 715 l 2,35,36
 360 745 360 745 380 745 c 2,16,-1
EndSplineSet
EndChar

